M48
METRIC,TZ
T1C0.300
T2C0.600
T3C1.000
T4C2.200
T5C2.700
%
G90
G05
T1
X95500Y-52400
X95500Y-57400
X95500Y-62400
X95500Y-67400
X95500Y-72400
X95500Y-104900
X95500Y-109900
X95500Y-114900
X95500Y-124900
X95500Y-134900
X96400Y-98425
X97950Y-64900
X97955Y-63900
X98575Y-97125
X98600Y-90075
X98663Y-84063
X100500Y-47400
X100500Y-52400
X100500Y-62400
X100500Y-67400
X100500Y-72400
X100500Y-104900
X100500Y-124900
X100650Y-88050
X101250Y-134750
X101250Y-135850
X101250Y-136950
X101250Y-137950
X101250Y-139050
X101250Y-140050
X101250Y-141050
X101250Y-142150
X102350Y-134750
X102350Y-135850
X102350Y-136950
X102350Y-137950
X102350Y-139050
X102350Y-140050
X102350Y-141050
X102350Y-142150
X103000Y-74900
X103135Y-125350
X103150Y-124275
X103450Y-134750
X103450Y-135850
X103450Y-136950
X103450Y-137950
X103450Y-139050
X103450Y-140050
X103450Y-141050
X103450Y-142150
X104550Y-134750
X104550Y-135850
X104550Y-136950
X104550Y-137950
X104550Y-139050
X104550Y-140050
X104550Y-141050
X104550Y-142150
X105500Y-62400
X105500Y-67400
X105500Y-72400
X105500Y-89900
X105550Y-134750
X105550Y-135850
X105550Y-136950
X105550Y-137950
X105550Y-139050
X105550Y-140050
X105550Y-141050
X105550Y-142150
X106750Y-134750
X106750Y-135850
X106750Y-136950
X106750Y-137950
X106750Y-139050
X106750Y-140050
X106750Y-141050
X106750Y-142150
X107025Y-94300
X107073Y-98328
X107125Y-89525
X107125Y-91500
X107850Y-97025
X107850Y-134750
X107850Y-135850
X107850Y-136950
X107850Y-137950
X107850Y-139050
X107850Y-140050
X107850Y-141050
X107850Y-142150
X108300Y-100850
X108950Y-134750
X108950Y-135850
X108950Y-136950
X108950Y-137950
X108950Y-139050
X108950Y-140050
X108950Y-141050
X108950Y-142150
X109600Y-56050
X110050Y-134750
X110050Y-135850
X110050Y-136950
X110050Y-137950
X110050Y-139050
X110050Y-140050
X110050Y-141050
X110050Y-142150
X110500Y-72400
X110500Y-92400
X110500Y-104900
X110500Y-124900
X110575Y-56050
X113000Y-117400
X113000Y-122400
X113882Y-84500
X114900Y-94280
X115500Y-67400
X115500Y-97400
X115500Y-124900
X115500Y-134900
X115500Y-139900
X117935Y-92400
X118000Y-74900
X118000Y-89900
X119300Y-62500
X119400Y-108675
X119400Y-109675
X119400Y-110600
X119400Y-111600
X119900Y-109175
X119900Y-111100
X120313Y-84500
X120400Y-108675
X120400Y-109675
X120400Y-110600
X120400Y-111600
X120500Y-47400
X120500Y-52400
X120500Y-62400
X120500Y-89900
X120500Y-92400
X122338Y-91738
X122825Y-96800
X123000Y-107400
X123000Y-112400
X123000Y-134900
X123000Y-139900
X124725Y-84550
X125500Y-47400
X125500Y-52400
X125500Y-62400
X125500Y-67400
X125500Y-74900
X126900Y-86325
X127450Y-134350
X127450Y-135450
X127450Y-136450
X127450Y-137450
X127450Y-138550
X127450Y-139550
X127450Y-140650
X127450Y-141750
X128550Y-134350
X128550Y-135450
X128550Y-136450
X128550Y-137450
X128550Y-138550
X128550Y-139550
X128550Y-140650
X128550Y-141750
X128775Y-70875
X129200Y-95750
X129650Y-134350
X129650Y-135450
X129650Y-136450
X129650Y-137450
X129650Y-138550
X129650Y-139550
X129650Y-140650
X129650Y-141750
X129825Y-72100
X130500Y-47400
X130500Y-52400
X130500Y-62400
X130500Y-67400
X130700Y-73275
X130750Y-134350
X130750Y-135450
X130750Y-136450
X130750Y-137450
X130750Y-138550
X130750Y-139550
X130750Y-140650
X130750Y-141750
X131725Y-84325
X131950Y-134350
X131950Y-135450
X131950Y-136450
X131950Y-137450
X131950Y-138550
X131950Y-139550
X131950Y-140650
X131950Y-141750
X132950Y-134350
X132950Y-135450
X132950Y-136450
X132950Y-137450
X132950Y-138550
X132950Y-139550
X132950Y-140650
X132950Y-141750
X133000Y-74900
X133800Y-93225
X134050Y-134350
X134050Y-135450
X134050Y-136450
X134050Y-137450
X134050Y-138550
X134050Y-139550
X134050Y-140650
X134050Y-141750
X135150Y-134350
X135150Y-135450
X135150Y-136450
X135150Y-137450
X135150Y-138550
X135150Y-139550
X135150Y-140650
X135150Y-141750
X135500Y-47400
X135500Y-52400
X135500Y-62400
X135500Y-67400
X135500Y-87400
X135500Y-114900
X136250Y-134350
X136250Y-135450
X136250Y-136450
X136250Y-137450
X136250Y-138550
X136250Y-139550
X136250Y-140650
X136250Y-141750
X136975Y-108925
X137150Y-128250
X137150Y-129000
X137150Y-129750
X137825Y-128250
X137825Y-129000
X137825Y-129750
X138025Y-108925
X139525Y-63900
X140500Y-47400
X140500Y-52400
X140500Y-62400
X140500Y-67400
X140500Y-74900
X140500Y-87400
X140500Y-92400
X140500Y-114900
X140500Y-119900
X140500Y-134900
X145075Y-63750
X145500Y-47400
X145500Y-52400
X145500Y-87400
X145500Y-92400
X145650Y-97650
X145650Y-98650
X145650Y-99750
X145650Y-100750
X145650Y-101750
X145650Y-102850
X146850Y-97650
X146850Y-98650
X146850Y-99750
X146850Y-100750
X146850Y-101750
X146850Y-102850
X147375Y-81700
X147950Y-70875
X147950Y-72100
X147950Y-73275
X147950Y-97650
X147950Y-98650
X147950Y-99750
X147950Y-100750
X147950Y-101750
X147950Y-102850
X148000Y-74900
X149050Y-97650
X149050Y-98650
X149050Y-99750
X149050Y-100750
X149050Y-101750
X149050Y-102850
X149975Y-93150
X150150Y-97650
X150150Y-98650
X150150Y-99750
X150150Y-100750
X150150Y-101750
X150150Y-102850
X150200Y-128400
X150200Y-129150
X150200Y-129900
X150500Y-47400
X150500Y-52400
X150500Y-57400
X150500Y-87400
X150500Y-109900
X150875Y-128400
X150875Y-129150
X150875Y-129900
X151625Y-106550
X151750Y-61225
X151775Y-59925
X151775Y-75000
X151950Y-134850
X151950Y-135950
X151950Y-136950
X151950Y-137950
X151950Y-139050
X151950Y-140050
X151950Y-141150
X151950Y-142250
X152675Y-58900
X152675Y-60700
X153050Y-97650
X153050Y-98650
X153050Y-99750
X153050Y-100750
X153050Y-101750
X153050Y-102850
X153050Y-134850
X153050Y-135950
X153050Y-136950
X153050Y-137950
X153050Y-139050
X153050Y-140050
X153050Y-141150
X153050Y-142250
X154150Y-134850
X154150Y-135950
X154150Y-136950
X154150Y-137950
X154150Y-139050
X154150Y-140050
X154150Y-141150
X154150Y-142250
X154250Y-97650
X154250Y-98650
X154250Y-99750
X154250Y-100750
X154250Y-101750
X154250Y-102850
X154800Y-65000
X155025Y-118025
X155025Y-118700
X155250Y-134850
X155250Y-135950
X155250Y-136950
X155250Y-137950
X155250Y-139050
X155250Y-140050
X155250Y-141150
X155250Y-142250
X155350Y-97650
X155350Y-98650
X155350Y-99750
X155350Y-100750
X155350Y-101750
X155350Y-102850
X155500Y-47400
X155500Y-52400
X155775Y-118025
X155775Y-118700
X156025Y-89225
X156450Y-97650
X156450Y-98650
X156450Y-99750
X156450Y-100750
X156450Y-101750
X156450Y-102850
X156450Y-134850
X156450Y-135950
X156450Y-136950
X156450Y-137950
X156450Y-139050
X156450Y-140050
X156450Y-141150
X156450Y-142250
X156525Y-118025
X156525Y-118700
X156550Y-93150
X156688Y-87038
X157450Y-134850
X157450Y-135950
X157450Y-136950
X157450Y-137950
X157450Y-139050
X157450Y-140050
X157450Y-141150
X157450Y-142250
X157550Y-97650
X157550Y-98650
X157550Y-99750
X157550Y-100750
X157550Y-101750
X157550Y-102850
X157875Y-123500
X158112Y-53463
X158275Y-66900
X158313Y-61888
X158550Y-59925
X158550Y-134850
X158550Y-135950
X158550Y-136950
X158550Y-137950
X158550Y-139050
X158550Y-140050
X158550Y-141150
X158550Y-142250
X159075Y-61200
X159250Y-71000
X159650Y-134850
X159650Y-135950
X159650Y-136950
X159650Y-137950
X159650Y-139050
X159650Y-140050
X159650Y-141150
X159650Y-142250
X159750Y-86450
X159850Y-48550
X159850Y-57750
X160750Y-134850
X160750Y-135950
X160750Y-136950
X160750Y-137950
X160750Y-139050
X160750Y-140050
X160750Y-141150
X160750Y-142250
X160900Y-61600
X160900Y-70925
X160900Y-79325
X163900Y-62600
X164000Y-54500
X164125Y-90050
X164200Y-78700
X164200Y-81950
X164200Y-128575
X164200Y-129325
X164200Y-130075
X164250Y-65825
X164300Y-86800
X164375Y-73850
X164400Y-70700
X164450Y-97650
X164450Y-98650
X164450Y-99750
X164450Y-100750
X164450Y-101750
X164450Y-102850
X164875Y-128575
X164875Y-129325
X164875Y-130075
X165400Y-49700
X165500Y-57800
X165600Y-65900
X165600Y-82000
X165600Y-90100
X165650Y-97650
X165650Y-98650
X165650Y-99750
X165650Y-100750
X165650Y-101750
X165650Y-102850
X165700Y-73900
X165950Y-106550
X165950Y-134850
X165950Y-135950
X165950Y-136950
X165950Y-137950
X165950Y-139050
X165950Y-140050
X165950Y-141150
X165950Y-142250
X166750Y-97650
X166750Y-98650
X166750Y-99750
X166750Y-100750
X166750Y-101750
X166750Y-102850
X167050Y-134850
X167050Y-135950
X167050Y-136950
X167050Y-137950
X167050Y-139050
X167050Y-140050
X167050Y-141150
X167050Y-142250
X167200Y-67450
X167225Y-51350
X167400Y-59375
X167600Y-83450
X167650Y-75225
X167850Y-97650
X167850Y-98650
X167850Y-99750
X167850Y-100750
X167850Y-101750
X167850Y-102850
X168150Y-134850
X168150Y-135950
X168150Y-136950
X168150Y-137950
X168150Y-139050
X168150Y-140050
X168150Y-141150
X168150Y-142250
X168200Y-92000
X168775Y-59500
X168800Y-75700
X168800Y-83800
X168825Y-67650
X168900Y-51350
X168950Y-97650
X168950Y-98650
X168950Y-99750
X168950Y-100750
X168950Y-101750
X168950Y-102850
X169250Y-134850
X169250Y-135950
X169250Y-136950
X169250Y-137950
X169250Y-139050
X169250Y-140050
X169250Y-141150
X169250Y-142250
X169325Y-111575
X169800Y-55800
X169800Y-63900
X169800Y-71900
X169800Y-79800
X169800Y-88000
X170000Y-47800
X170450Y-134850
X170450Y-135950
X170450Y-136950
X170450Y-137950
X170450Y-139050
X170450Y-140050
X170450Y-141150
X170450Y-142250
X171450Y-134850
X171450Y-135950
X171450Y-136950
X171450Y-137950
X171450Y-139050
X171450Y-140050
X171450Y-141150
X171450Y-142250
X171600Y-65800
X171700Y-90100
X171800Y-73900
X171800Y-82000
X171800Y-84300
X171800Y-92400
X171900Y-60100
X171900Y-68200
X171900Y-76300
X172088Y-102350
X172200Y-49400
X172300Y-57500
X172550Y-134850
X172550Y-135950
X172550Y-136950
X172550Y-137950
X172550Y-139050
X172550Y-140050
X172550Y-141150
X172550Y-142250
X173000Y-122400
X173650Y-134850
X173650Y-135950
X173650Y-136950
X173650Y-137950
X173650Y-139050
X173650Y-140050
X173650Y-141150
X173650Y-142250
X173900Y-94625
X174750Y-50500
X174750Y-51500
X174750Y-58750
X174750Y-59750
X174750Y-134850
X174750Y-135950
X174750Y-136950
X174750Y-137950
X174750Y-139050
X174750Y-140050
X174750Y-141150
X174750Y-142250
X174800Y-66700
X174800Y-67700
X174800Y-74700
X174800Y-75700
X174800Y-82700
X174800Y-83700
X174800Y-90700
X174800Y-91700
X175150Y-107000
X175150Y-108000
X175250Y-51000
X175250Y-59250
X175300Y-67200
X175300Y-75200
X175300Y-83200
X175300Y-91200
X175500Y-97400
X175500Y-124900
X175650Y-107500
X175750Y-50500
X175750Y-51500
X175750Y-58750
X175750Y-59750
X175800Y-66700
X175800Y-67700
X175800Y-74700
X175800Y-75700
X175800Y-82700
X175800Y-83700
X175800Y-90700
X175800Y-91700
X176150Y-107000
X176150Y-108000
X178000Y-127400
X178700Y-80200
X178700Y-81200
X178700Y-82300
X178700Y-83300
X178700Y-84300
X178700Y-85400
X178800Y-48200
X178800Y-49300
X178800Y-50300
X178800Y-51300
X178800Y-52400
X178800Y-53400
X178800Y-56000
X178800Y-57000
X178800Y-58100
X178800Y-59100
X178800Y-60100
X178800Y-61200
X178800Y-64100
X178800Y-65100
X178800Y-66200
X178800Y-67200
X178800Y-68200
X178800Y-69300
X178800Y-72100
X178800Y-73100
X178800Y-74200
X178800Y-75200
X178800Y-76200
X178800Y-77300
X178800Y-88200
X178800Y-89200
X178800Y-90300
X178800Y-91300
X178800Y-92300
X178800Y-93400
X179800Y-80200
X179800Y-81200
X179800Y-82300
X179800Y-83300
X179800Y-84300
X179800Y-85400
X179900Y-48200
X179900Y-49300
X179900Y-50300
X179900Y-51300
X179900Y-52400
X179900Y-53400
X179900Y-56000
X179900Y-57000
X179900Y-58100
X179900Y-59100
X179900Y-60100
X179900Y-61200
X179900Y-64100
X179900Y-65100
X179900Y-66200
X179900Y-67200
X179900Y-68200
X179900Y-69300
X179900Y-72100
X179900Y-73100
X179900Y-74200
X179900Y-75200
X179900Y-76200
X179900Y-77300
X179900Y-88200
X179900Y-89200
X179900Y-90300
X179900Y-91300
X179900Y-92300
X179900Y-93400
X180100Y-100075
X180500Y-127400
X181000Y-48200
X181000Y-49300
X181000Y-50300
X181000Y-51300
X181000Y-52400
X181000Y-53400
X181000Y-80200
X181000Y-81200
X181000Y-82300
X181000Y-83300
X181000Y-84300
X181000Y-85400
X181100Y-56000
X181100Y-57000
X181100Y-58100
X181100Y-59100
X181100Y-60100
X181100Y-61200
X181100Y-64100
X181100Y-65100
X181100Y-66200
X181100Y-67200
X181100Y-68200
X181100Y-69300
X181100Y-72100
X181100Y-73100
X181100Y-74200
X181100Y-75200
X181100Y-76200
X181100Y-77300
X181100Y-88200
X181100Y-89200
X181100Y-90300
X181100Y-91300
X181100Y-92300
X181100Y-93400
X182100Y-48200
X182100Y-49300
X182100Y-50300
X182100Y-51300
X182100Y-52400
X182100Y-53400
X182100Y-80200
X182100Y-81200
X182100Y-82300
X182100Y-83300
X182100Y-84300
X182100Y-85400
X182200Y-56000
X182200Y-57000
X182200Y-58100
X182200Y-59100
X182200Y-60100
X182200Y-61200
X182200Y-64100
X182200Y-65100
X182200Y-66200
X182200Y-67200
X182200Y-68200
X182200Y-69300
X182200Y-72100
X182200Y-73100
X182200Y-74200
X182200Y-75200
X182200Y-76200
X182200Y-77300
X182200Y-88200
X182200Y-89200
X182200Y-90300
X182200Y-91300
X182200Y-92300
X182200Y-93400
X183000Y-129900
X183000Y-134900
X183200Y-80200
X183200Y-81200
X183200Y-82300
X183200Y-83300
X183200Y-84300
X183200Y-85400
X183300Y-48200
X183300Y-49300
X183300Y-50300
X183300Y-51300
X183300Y-52400
X183300Y-53400
X183300Y-56000
X183300Y-57000
X183300Y-58100
X183300Y-59100
X183300Y-60100
X183300Y-61200
X183300Y-64100
X183300Y-65100
X183300Y-66200
X183300Y-67200
X183300Y-68200
X183300Y-69300
X183300Y-72100
X183300Y-73100
X183300Y-74200
X183300Y-75200
X183300Y-76200
X183300Y-77300
X183300Y-88200
X183300Y-89200
X183300Y-90300
X183300Y-91300
X183300Y-92300
X183300Y-93400
X184300Y-80200
X184300Y-81200
X184300Y-82300
X184300Y-83300
X184300Y-84300
X184300Y-85400
X184400Y-48200
X184400Y-49300
X184400Y-50300
X184400Y-51300
X184400Y-52400
X184400Y-53400
X184400Y-56000
X184400Y-57000
X184400Y-58100
X184400Y-59100
X184400Y-60100
X184400Y-61200
X184400Y-64100
X184400Y-65100
X184400Y-66200
X184400Y-67200
X184400Y-68200
X184400Y-69300
X184400Y-72100
X184400Y-73100
X184400Y-74200
X184400Y-75200
X184400Y-76200
X184400Y-77300
X184400Y-88200
X184400Y-89200
X184400Y-90300
X184400Y-91300
X184400Y-92300
X184400Y-93400
X185200Y-99620
X185500Y-134900
X186600Y-127050
X186600Y-127725
X187150Y-97003
X187350Y-127050
X187350Y-127725
X188000Y-74900
X188000Y-82400
X188000Y-87400
X188000Y-92400
X188000Y-109900
X188000Y-112400
X188000Y-114900
X188000Y-117400
X188000Y-134900
X188000Y-137400
X188100Y-127050
X188100Y-127725
X188750Y-100890
X190500Y-82400
X190500Y-87400
X190500Y-92400
T3
X105505Y-85450
X108045Y-85450
X110585Y-85450
X121475Y-54575
X124015Y-54575
X126555Y-54575
X129095Y-54575
X131635Y-54575
X134175Y-54575
X134175Y-85575
X136715Y-54575
X136715Y-85575
X139255Y-54575
X139255Y-85575
X141795Y-54575
X141795Y-85575
X144335Y-54575
X144335Y-85575
X146875Y-85575
X149415Y-85575
X188775Y-56425
X188775Y-58965
X188775Y-61505
X188775Y-64045
X188775Y-66585
X188775Y-69125
X188775Y-71665
T4
X96000Y-47900
X96000Y-91900
X96000Y-141900
X189500Y-89900
X189500Y-141400
X190000Y-47900
T5
X102400Y-110550
X102400Y-117750
X182475Y-110600
X182475Y-117800
T2
G00X95850Y-107400
M15
G01X96950Y-107400
M16
G05
G00X95850Y-120900
M15
G01X96950Y-120900
M16
G05
G00X189025Y-107450
M15
G01X187925Y-107450
M16
G05
G00X189025Y-120950
M15
G01X187925Y-120950
M16
G05
M30
