%TF.GenerationSoftware,KiCad,Pcbnew,8.0.1*%
%TF.CreationDate,2024-05-10T21:49:13+02:00*%
%TF.ProjectId,Charger,43686172-6765-4722-9e6b-696361645f70,rev?*%
%TF.SameCoordinates,Original*%
%TF.FileFunction,Legend,Bot*%
%TF.FilePolarity,Positive*%
%FSLAX46Y46*%
G04 Gerber Fmt 4.6, Leading zero omitted, Abs format (unit mm)*
G04 Created by KiCad (PCBNEW 8.0.1) date 2024-05-10 21:49:13*
%MOMM*%
%LPD*%
G01*
G04 APERTURE LIST*
%ADD10C,0.100000*%
%ADD11C,0.150000*%
%ADD12C,0.120000*%
%ADD13C,0.350000*%
%ADD14O,1.700000X0.600000*%
G04 APERTURE END LIST*
D10*
X132300000Y-83700000D02*
X151300000Y-83700000D01*
X151300000Y-94100000D01*
X132300000Y-94100000D01*
X132300000Y-83700000D01*
X119600000Y-52700000D02*
X146200000Y-52700000D01*
X146200000Y-61400000D01*
X119600000Y-61400000D01*
X119600000Y-52700000D01*
X139677180Y-57075312D02*
X139724800Y-57027693D01*
X139724800Y-57027693D02*
X139772419Y-56884836D01*
X139772419Y-56884836D02*
X139772419Y-56789598D01*
X139772419Y-56789598D02*
X139724800Y-56646741D01*
X139724800Y-56646741D02*
X139629561Y-56551503D01*
X139629561Y-56551503D02*
X139534323Y-56503884D01*
X139534323Y-56503884D02*
X139343847Y-56456265D01*
X139343847Y-56456265D02*
X139200990Y-56456265D01*
X139200990Y-56456265D02*
X139010514Y-56503884D01*
X139010514Y-56503884D02*
X138915276Y-56551503D01*
X138915276Y-56551503D02*
X138820038Y-56646741D01*
X138820038Y-56646741D02*
X138772419Y-56789598D01*
X138772419Y-56789598D02*
X138772419Y-56884836D01*
X138772419Y-56884836D02*
X138820038Y-57027693D01*
X138820038Y-57027693D02*
X138867657Y-57075312D01*
X139724800Y-57456265D02*
X139772419Y-57599122D01*
X139772419Y-57599122D02*
X139772419Y-57837217D01*
X139772419Y-57837217D02*
X139724800Y-57932455D01*
X139724800Y-57932455D02*
X139677180Y-57980074D01*
X139677180Y-57980074D02*
X139581942Y-58027693D01*
X139581942Y-58027693D02*
X139486704Y-58027693D01*
X139486704Y-58027693D02*
X139391466Y-57980074D01*
X139391466Y-57980074D02*
X139343847Y-57932455D01*
X139343847Y-57932455D02*
X139296228Y-57837217D01*
X139296228Y-57837217D02*
X139248609Y-57646741D01*
X139248609Y-57646741D02*
X139200990Y-57551503D01*
X139200990Y-57551503D02*
X139153371Y-57503884D01*
X139153371Y-57503884D02*
X139058133Y-57456265D01*
X139058133Y-57456265D02*
X138962895Y-57456265D01*
X138962895Y-57456265D02*
X138867657Y-57503884D01*
X138867657Y-57503884D02*
X138820038Y-57551503D01*
X138820038Y-57551503D02*
X138772419Y-57646741D01*
X138772419Y-57646741D02*
X138772419Y-57884836D01*
X138772419Y-57884836D02*
X138820038Y-58027693D01*
X133720038Y-87927693D02*
X133672419Y-87832455D01*
X133672419Y-87832455D02*
X133672419Y-87689598D01*
X133672419Y-87689598D02*
X133720038Y-87546741D01*
X133720038Y-87546741D02*
X133815276Y-87451503D01*
X133815276Y-87451503D02*
X133910514Y-87403884D01*
X133910514Y-87403884D02*
X134100990Y-87356265D01*
X134100990Y-87356265D02*
X134243847Y-87356265D01*
X134243847Y-87356265D02*
X134434323Y-87403884D01*
X134434323Y-87403884D02*
X134529561Y-87451503D01*
X134529561Y-87451503D02*
X134624800Y-87546741D01*
X134624800Y-87546741D02*
X134672419Y-87689598D01*
X134672419Y-87689598D02*
X134672419Y-87784836D01*
X134672419Y-87784836D02*
X134624800Y-87927693D01*
X134624800Y-87927693D02*
X134577180Y-87975312D01*
X134577180Y-87975312D02*
X134243847Y-87975312D01*
X134243847Y-87975312D02*
X134243847Y-87784836D01*
X134672419Y-88403884D02*
X133672419Y-88403884D01*
X133672419Y-88403884D02*
X134672419Y-88975312D01*
X134672419Y-88975312D02*
X133672419Y-88975312D01*
X134672419Y-89451503D02*
X133672419Y-89451503D01*
X133672419Y-89451503D02*
X133672419Y-89689598D01*
X133672419Y-89689598D02*
X133720038Y-89832455D01*
X133720038Y-89832455D02*
X133815276Y-89927693D01*
X133815276Y-89927693D02*
X133910514Y-89975312D01*
X133910514Y-89975312D02*
X134100990Y-90022931D01*
X134100990Y-90022931D02*
X134243847Y-90022931D01*
X134243847Y-90022931D02*
X134434323Y-89975312D01*
X134434323Y-89975312D02*
X134529561Y-89927693D01*
X134529561Y-89927693D02*
X134624800Y-89832455D01*
X134624800Y-89832455D02*
X134672419Y-89689598D01*
X134672419Y-89689598D02*
X134672419Y-89451503D01*
X134672419Y-56503884D02*
X133672419Y-56503884D01*
X133672419Y-56503884D02*
X134386704Y-56837217D01*
X134386704Y-56837217D02*
X133672419Y-57170550D01*
X133672419Y-57170550D02*
X134672419Y-57170550D01*
X133672419Y-57837217D02*
X133672419Y-58027693D01*
X133672419Y-58027693D02*
X133720038Y-58122931D01*
X133720038Y-58122931D02*
X133815276Y-58218169D01*
X133815276Y-58218169D02*
X134005752Y-58265788D01*
X134005752Y-58265788D02*
X134339085Y-58265788D01*
X134339085Y-58265788D02*
X134529561Y-58218169D01*
X134529561Y-58218169D02*
X134624800Y-58122931D01*
X134624800Y-58122931D02*
X134672419Y-58027693D01*
X134672419Y-58027693D02*
X134672419Y-57837217D01*
X134672419Y-57837217D02*
X134624800Y-57741979D01*
X134624800Y-57741979D02*
X134529561Y-57646741D01*
X134529561Y-57646741D02*
X134339085Y-57599122D01*
X134339085Y-57599122D02*
X134005752Y-57599122D01*
X134005752Y-57599122D02*
X133815276Y-57646741D01*
X133815276Y-57646741D02*
X133720038Y-57741979D01*
X133720038Y-57741979D02*
X133672419Y-57837217D01*
X134624800Y-58646741D02*
X134672419Y-58789598D01*
X134672419Y-58789598D02*
X134672419Y-59027693D01*
X134672419Y-59027693D02*
X134624800Y-59122931D01*
X134624800Y-59122931D02*
X134577180Y-59170550D01*
X134577180Y-59170550D02*
X134481942Y-59218169D01*
X134481942Y-59218169D02*
X134386704Y-59218169D01*
X134386704Y-59218169D02*
X134291466Y-59170550D01*
X134291466Y-59170550D02*
X134243847Y-59122931D01*
X134243847Y-59122931D02*
X134196228Y-59027693D01*
X134196228Y-59027693D02*
X134148609Y-58837217D01*
X134148609Y-58837217D02*
X134100990Y-58741979D01*
X134100990Y-58741979D02*
X134053371Y-58694360D01*
X134053371Y-58694360D02*
X133958133Y-58646741D01*
X133958133Y-58646741D02*
X133862895Y-58646741D01*
X133862895Y-58646741D02*
X133767657Y-58694360D01*
X133767657Y-58694360D02*
X133720038Y-58741979D01*
X133720038Y-58741979D02*
X133672419Y-58837217D01*
X133672419Y-58837217D02*
X133672419Y-59075312D01*
X133672419Y-59075312D02*
X133720038Y-59218169D01*
X134672419Y-59646741D02*
X133672419Y-59646741D01*
X144348609Y-87737217D02*
X144396228Y-87880074D01*
X144396228Y-87880074D02*
X144443847Y-87927693D01*
X144443847Y-87927693D02*
X144539085Y-87975312D01*
X144539085Y-87975312D02*
X144681942Y-87975312D01*
X144681942Y-87975312D02*
X144777180Y-87927693D01*
X144777180Y-87927693D02*
X144824800Y-87880074D01*
X144824800Y-87880074D02*
X144872419Y-87784836D01*
X144872419Y-87784836D02*
X144872419Y-87403884D01*
X144872419Y-87403884D02*
X143872419Y-87403884D01*
X143872419Y-87403884D02*
X143872419Y-87737217D01*
X143872419Y-87737217D02*
X143920038Y-87832455D01*
X143920038Y-87832455D02*
X143967657Y-87880074D01*
X143967657Y-87880074D02*
X144062895Y-87927693D01*
X144062895Y-87927693D02*
X144158133Y-87927693D01*
X144158133Y-87927693D02*
X144253371Y-87880074D01*
X144253371Y-87880074D02*
X144300990Y-87832455D01*
X144300990Y-87832455D02*
X144348609Y-87737217D01*
X144348609Y-87737217D02*
X144348609Y-87403884D01*
X143872419Y-88261027D02*
X143872419Y-88832455D01*
X144872419Y-88546741D02*
X143872419Y-88546741D01*
X144872419Y-89165789D02*
X143872419Y-89165789D01*
X143872419Y-89165789D02*
X144872419Y-89737217D01*
X144872419Y-89737217D02*
X143872419Y-89737217D01*
X144967657Y-89975313D02*
X144967657Y-90737217D01*
X143967657Y-90927694D02*
X143920038Y-90975313D01*
X143920038Y-90975313D02*
X143872419Y-91070551D01*
X143872419Y-91070551D02*
X143872419Y-91308646D01*
X143872419Y-91308646D02*
X143920038Y-91403884D01*
X143920038Y-91403884D02*
X143967657Y-91451503D01*
X143967657Y-91451503D02*
X144062895Y-91499122D01*
X144062895Y-91499122D02*
X144158133Y-91499122D01*
X144158133Y-91499122D02*
X144300990Y-91451503D01*
X144300990Y-91451503D02*
X144872419Y-90880075D01*
X144872419Y-90880075D02*
X144872419Y-91499122D01*
X129572419Y-57075312D02*
X129096228Y-56741979D01*
X129572419Y-56503884D02*
X128572419Y-56503884D01*
X128572419Y-56503884D02*
X128572419Y-56884836D01*
X128572419Y-56884836D02*
X128620038Y-56980074D01*
X128620038Y-56980074D02*
X128667657Y-57027693D01*
X128667657Y-57027693D02*
X128762895Y-57075312D01*
X128762895Y-57075312D02*
X128905752Y-57075312D01*
X128905752Y-57075312D02*
X129000990Y-57027693D01*
X129000990Y-57027693D02*
X129048609Y-56980074D01*
X129048609Y-56980074D02*
X129096228Y-56884836D01*
X129096228Y-56884836D02*
X129096228Y-56503884D01*
X129524800Y-57456265D02*
X129572419Y-57599122D01*
X129572419Y-57599122D02*
X129572419Y-57837217D01*
X129572419Y-57837217D02*
X129524800Y-57932455D01*
X129524800Y-57932455D02*
X129477180Y-57980074D01*
X129477180Y-57980074D02*
X129381942Y-58027693D01*
X129381942Y-58027693D02*
X129286704Y-58027693D01*
X129286704Y-58027693D02*
X129191466Y-57980074D01*
X129191466Y-57980074D02*
X129143847Y-57932455D01*
X129143847Y-57932455D02*
X129096228Y-57837217D01*
X129096228Y-57837217D02*
X129048609Y-57646741D01*
X129048609Y-57646741D02*
X129000990Y-57551503D01*
X129000990Y-57551503D02*
X128953371Y-57503884D01*
X128953371Y-57503884D02*
X128858133Y-57456265D01*
X128858133Y-57456265D02*
X128762895Y-57456265D01*
X128762895Y-57456265D02*
X128667657Y-57503884D01*
X128667657Y-57503884D02*
X128620038Y-57551503D01*
X128620038Y-57551503D02*
X128572419Y-57646741D01*
X128572419Y-57646741D02*
X128572419Y-57884836D01*
X128572419Y-57884836D02*
X128620038Y-58027693D01*
X128572419Y-58313408D02*
X128572419Y-58884836D01*
X129572419Y-58599122D02*
X128572419Y-58599122D01*
X146848609Y-87737217D02*
X146896228Y-87880074D01*
X146896228Y-87880074D02*
X146943847Y-87927693D01*
X146943847Y-87927693D02*
X147039085Y-87975312D01*
X147039085Y-87975312D02*
X147181942Y-87975312D01*
X147181942Y-87975312D02*
X147277180Y-87927693D01*
X147277180Y-87927693D02*
X147324800Y-87880074D01*
X147324800Y-87880074D02*
X147372419Y-87784836D01*
X147372419Y-87784836D02*
X147372419Y-87403884D01*
X147372419Y-87403884D02*
X146372419Y-87403884D01*
X146372419Y-87403884D02*
X146372419Y-87737217D01*
X146372419Y-87737217D02*
X146420038Y-87832455D01*
X146420038Y-87832455D02*
X146467657Y-87880074D01*
X146467657Y-87880074D02*
X146562895Y-87927693D01*
X146562895Y-87927693D02*
X146658133Y-87927693D01*
X146658133Y-87927693D02*
X146753371Y-87880074D01*
X146753371Y-87880074D02*
X146800990Y-87832455D01*
X146800990Y-87832455D02*
X146848609Y-87737217D01*
X146848609Y-87737217D02*
X146848609Y-87403884D01*
X146372419Y-88261027D02*
X146372419Y-88832455D01*
X147372419Y-88546741D02*
X146372419Y-88546741D01*
X147372419Y-89165789D02*
X146372419Y-89165789D01*
X146372419Y-89165789D02*
X147372419Y-89737217D01*
X147372419Y-89737217D02*
X146372419Y-89737217D01*
X147467657Y-89975313D02*
X147467657Y-90737217D01*
X147372419Y-91499122D02*
X147372419Y-90927694D01*
X147372419Y-91213408D02*
X146372419Y-91213408D01*
X146372419Y-91213408D02*
X146515276Y-91118170D01*
X146515276Y-91118170D02*
X146610514Y-91022932D01*
X146610514Y-91022932D02*
X146658133Y-90927694D01*
X144391466Y-56503884D02*
X144391466Y-57265789D01*
X144772419Y-56884836D02*
X144010514Y-56884836D01*
X143772419Y-57646741D02*
X143772419Y-58265788D01*
X143772419Y-58265788D02*
X144153371Y-57932455D01*
X144153371Y-57932455D02*
X144153371Y-58075312D01*
X144153371Y-58075312D02*
X144200990Y-58170550D01*
X144200990Y-58170550D02*
X144248609Y-58218169D01*
X144248609Y-58218169D02*
X144343847Y-58265788D01*
X144343847Y-58265788D02*
X144581942Y-58265788D01*
X144581942Y-58265788D02*
X144677180Y-58218169D01*
X144677180Y-58218169D02*
X144724800Y-58170550D01*
X144724800Y-58170550D02*
X144772419Y-58075312D01*
X144772419Y-58075312D02*
X144772419Y-57789598D01*
X144772419Y-57789598D02*
X144724800Y-57694360D01*
X144724800Y-57694360D02*
X144677180Y-57646741D01*
X144677180Y-58694360D02*
X144724800Y-58741979D01*
X144724800Y-58741979D02*
X144772419Y-58694360D01*
X144772419Y-58694360D02*
X144724800Y-58646741D01*
X144724800Y-58646741D02*
X144677180Y-58694360D01*
X144677180Y-58694360D02*
X144772419Y-58694360D01*
X143772419Y-59075312D02*
X143772419Y-59694359D01*
X143772419Y-59694359D02*
X144153371Y-59361026D01*
X144153371Y-59361026D02*
X144153371Y-59503883D01*
X144153371Y-59503883D02*
X144200990Y-59599121D01*
X144200990Y-59599121D02*
X144248609Y-59646740D01*
X144248609Y-59646740D02*
X144343847Y-59694359D01*
X144343847Y-59694359D02*
X144581942Y-59694359D01*
X144581942Y-59694359D02*
X144677180Y-59646740D01*
X144677180Y-59646740D02*
X144724800Y-59599121D01*
X144724800Y-59599121D02*
X144772419Y-59503883D01*
X144772419Y-59503883D02*
X144772419Y-59218169D01*
X144772419Y-59218169D02*
X144724800Y-59122931D01*
X144724800Y-59122931D02*
X144677180Y-59075312D01*
X143772419Y-59980074D02*
X144772419Y-60313407D01*
X144772419Y-60313407D02*
X143772419Y-60646740D01*
X120920038Y-57027693D02*
X120872419Y-56932455D01*
X120872419Y-56932455D02*
X120872419Y-56789598D01*
X120872419Y-56789598D02*
X120920038Y-56646741D01*
X120920038Y-56646741D02*
X121015276Y-56551503D01*
X121015276Y-56551503D02*
X121110514Y-56503884D01*
X121110514Y-56503884D02*
X121300990Y-56456265D01*
X121300990Y-56456265D02*
X121443847Y-56456265D01*
X121443847Y-56456265D02*
X121634323Y-56503884D01*
X121634323Y-56503884D02*
X121729561Y-56551503D01*
X121729561Y-56551503D02*
X121824800Y-56646741D01*
X121824800Y-56646741D02*
X121872419Y-56789598D01*
X121872419Y-56789598D02*
X121872419Y-56884836D01*
X121872419Y-56884836D02*
X121824800Y-57027693D01*
X121824800Y-57027693D02*
X121777180Y-57075312D01*
X121777180Y-57075312D02*
X121443847Y-57075312D01*
X121443847Y-57075312D02*
X121443847Y-56884836D01*
X121872419Y-57503884D02*
X120872419Y-57503884D01*
X120872419Y-57503884D02*
X121872419Y-58075312D01*
X121872419Y-58075312D02*
X120872419Y-58075312D01*
X121872419Y-58551503D02*
X120872419Y-58551503D01*
X120872419Y-58551503D02*
X120872419Y-58789598D01*
X120872419Y-58789598D02*
X120920038Y-58932455D01*
X120920038Y-58932455D02*
X121015276Y-59027693D01*
X121015276Y-59027693D02*
X121110514Y-59075312D01*
X121110514Y-59075312D02*
X121300990Y-59122931D01*
X121300990Y-59122931D02*
X121443847Y-59122931D01*
X121443847Y-59122931D02*
X121634323Y-59075312D01*
X121634323Y-59075312D02*
X121729561Y-59027693D01*
X121729561Y-59027693D02*
X121824800Y-58932455D01*
X121824800Y-58932455D02*
X121872419Y-58789598D01*
X121872419Y-58789598D02*
X121872419Y-58551503D01*
X137124800Y-56456265D02*
X137172419Y-56599122D01*
X137172419Y-56599122D02*
X137172419Y-56837217D01*
X137172419Y-56837217D02*
X137124800Y-56932455D01*
X137124800Y-56932455D02*
X137077180Y-56980074D01*
X137077180Y-56980074D02*
X136981942Y-57027693D01*
X136981942Y-57027693D02*
X136886704Y-57027693D01*
X136886704Y-57027693D02*
X136791466Y-56980074D01*
X136791466Y-56980074D02*
X136743847Y-56932455D01*
X136743847Y-56932455D02*
X136696228Y-56837217D01*
X136696228Y-56837217D02*
X136648609Y-56646741D01*
X136648609Y-56646741D02*
X136600990Y-56551503D01*
X136600990Y-56551503D02*
X136553371Y-56503884D01*
X136553371Y-56503884D02*
X136458133Y-56456265D01*
X136458133Y-56456265D02*
X136362895Y-56456265D01*
X136362895Y-56456265D02*
X136267657Y-56503884D01*
X136267657Y-56503884D02*
X136220038Y-56551503D01*
X136220038Y-56551503D02*
X136172419Y-56646741D01*
X136172419Y-56646741D02*
X136172419Y-56884836D01*
X136172419Y-56884836D02*
X136220038Y-57027693D01*
X137077180Y-58027693D02*
X137124800Y-57980074D01*
X137124800Y-57980074D02*
X137172419Y-57837217D01*
X137172419Y-57837217D02*
X137172419Y-57741979D01*
X137172419Y-57741979D02*
X137124800Y-57599122D01*
X137124800Y-57599122D02*
X137029561Y-57503884D01*
X137029561Y-57503884D02*
X136934323Y-57456265D01*
X136934323Y-57456265D02*
X136743847Y-57408646D01*
X136743847Y-57408646D02*
X136600990Y-57408646D01*
X136600990Y-57408646D02*
X136410514Y-57456265D01*
X136410514Y-57456265D02*
X136315276Y-57503884D01*
X136315276Y-57503884D02*
X136220038Y-57599122D01*
X136220038Y-57599122D02*
X136172419Y-57741979D01*
X136172419Y-57741979D02*
X136172419Y-57837217D01*
X136172419Y-57837217D02*
X136220038Y-57980074D01*
X136220038Y-57980074D02*
X136267657Y-58027693D01*
X137172419Y-58456265D02*
X136172419Y-58456265D01*
X137172419Y-59027693D02*
X136600990Y-58599122D01*
X136172419Y-59027693D02*
X136743847Y-58456265D01*
X126448609Y-56837217D02*
X126496228Y-56980074D01*
X126496228Y-56980074D02*
X126543847Y-57027693D01*
X126543847Y-57027693D02*
X126639085Y-57075312D01*
X126639085Y-57075312D02*
X126781942Y-57075312D01*
X126781942Y-57075312D02*
X126877180Y-57027693D01*
X126877180Y-57027693D02*
X126924800Y-56980074D01*
X126924800Y-56980074D02*
X126972419Y-56884836D01*
X126972419Y-56884836D02*
X126972419Y-56503884D01*
X126972419Y-56503884D02*
X125972419Y-56503884D01*
X125972419Y-56503884D02*
X125972419Y-56837217D01*
X125972419Y-56837217D02*
X126020038Y-56932455D01*
X126020038Y-56932455D02*
X126067657Y-56980074D01*
X126067657Y-56980074D02*
X126162895Y-57027693D01*
X126162895Y-57027693D02*
X126258133Y-57027693D01*
X126258133Y-57027693D02*
X126353371Y-56980074D01*
X126353371Y-56980074D02*
X126400990Y-56932455D01*
X126400990Y-56932455D02*
X126448609Y-56837217D01*
X126448609Y-56837217D02*
X126448609Y-56503884D01*
X126972419Y-57980074D02*
X126972419Y-57503884D01*
X126972419Y-57503884D02*
X125972419Y-57503884D01*
X136648609Y-87403884D02*
X136648609Y-87737217D01*
X137172419Y-87880074D02*
X137172419Y-87403884D01*
X137172419Y-87403884D02*
X136172419Y-87403884D01*
X136172419Y-87403884D02*
X136172419Y-87880074D01*
X137172419Y-88308646D02*
X136172419Y-88308646D01*
X136172419Y-88308646D02*
X137172419Y-88880074D01*
X137172419Y-88880074D02*
X136172419Y-88880074D01*
X137077180Y-89927693D02*
X137124800Y-89880074D01*
X137124800Y-89880074D02*
X137172419Y-89737217D01*
X137172419Y-89737217D02*
X137172419Y-89641979D01*
X137172419Y-89641979D02*
X137124800Y-89499122D01*
X137124800Y-89499122D02*
X137029561Y-89403884D01*
X137029561Y-89403884D02*
X136934323Y-89356265D01*
X136934323Y-89356265D02*
X136743847Y-89308646D01*
X136743847Y-89308646D02*
X136600990Y-89308646D01*
X136600990Y-89308646D02*
X136410514Y-89356265D01*
X136410514Y-89356265D02*
X136315276Y-89403884D01*
X136315276Y-89403884D02*
X136220038Y-89499122D01*
X136220038Y-89499122D02*
X136172419Y-89641979D01*
X136172419Y-89641979D02*
X136172419Y-89737217D01*
X136172419Y-89737217D02*
X136220038Y-89880074D01*
X136220038Y-89880074D02*
X136267657Y-89927693D01*
X137267657Y-90118170D02*
X137267657Y-90880074D01*
X137077180Y-91689598D02*
X137124800Y-91641979D01*
X137124800Y-91641979D02*
X137172419Y-91499122D01*
X137172419Y-91499122D02*
X137172419Y-91403884D01*
X137172419Y-91403884D02*
X137124800Y-91261027D01*
X137124800Y-91261027D02*
X137029561Y-91165789D01*
X137029561Y-91165789D02*
X136934323Y-91118170D01*
X136934323Y-91118170D02*
X136743847Y-91070551D01*
X136743847Y-91070551D02*
X136600990Y-91070551D01*
X136600990Y-91070551D02*
X136410514Y-91118170D01*
X136410514Y-91118170D02*
X136315276Y-91165789D01*
X136315276Y-91165789D02*
X136220038Y-91261027D01*
X136220038Y-91261027D02*
X136172419Y-91403884D01*
X136172419Y-91403884D02*
X136172419Y-91499122D01*
X136172419Y-91499122D02*
X136220038Y-91641979D01*
X136220038Y-91641979D02*
X136267657Y-91689598D01*
X137172419Y-92594360D02*
X137172419Y-92118170D01*
X137172419Y-92118170D02*
X136172419Y-92118170D01*
X137172419Y-92927694D02*
X136172419Y-92927694D01*
X137172419Y-93499122D02*
X136600990Y-93070551D01*
X136172419Y-93499122D02*
X136743847Y-92927694D01*
X123948609Y-56837217D02*
X123948609Y-56503884D01*
X124472419Y-56503884D02*
X123472419Y-56503884D01*
X123472419Y-56503884D02*
X123472419Y-56980074D01*
X124472419Y-57361027D02*
X123472419Y-57361027D01*
X123472419Y-57361027D02*
X124186704Y-57694360D01*
X124186704Y-57694360D02*
X123472419Y-58027693D01*
X123472419Y-58027693D02*
X124472419Y-58027693D01*
X124186704Y-58456265D02*
X124186704Y-58932455D01*
X124472419Y-58361027D02*
X123472419Y-58694360D01*
X123472419Y-58694360D02*
X124472419Y-59027693D01*
X124424800Y-59313408D02*
X124472419Y-59456265D01*
X124472419Y-59456265D02*
X124472419Y-59694360D01*
X124472419Y-59694360D02*
X124424800Y-59789598D01*
X124424800Y-59789598D02*
X124377180Y-59837217D01*
X124377180Y-59837217D02*
X124281942Y-59884836D01*
X124281942Y-59884836D02*
X124186704Y-59884836D01*
X124186704Y-59884836D02*
X124091466Y-59837217D01*
X124091466Y-59837217D02*
X124043847Y-59789598D01*
X124043847Y-59789598D02*
X123996228Y-59694360D01*
X123996228Y-59694360D02*
X123948609Y-59503884D01*
X123948609Y-59503884D02*
X123900990Y-59408646D01*
X123900990Y-59408646D02*
X123853371Y-59361027D01*
X123853371Y-59361027D02*
X123758133Y-59313408D01*
X123758133Y-59313408D02*
X123662895Y-59313408D01*
X123662895Y-59313408D02*
X123567657Y-59361027D01*
X123567657Y-59361027D02*
X123520038Y-59408646D01*
X123520038Y-59408646D02*
X123472419Y-59503884D01*
X123472419Y-59503884D02*
X123472419Y-59741979D01*
X123472419Y-59741979D02*
X123520038Y-59884836D01*
X124472419Y-60313408D02*
X123472419Y-60313408D01*
X124472419Y-60884836D02*
X123900990Y-60456265D01*
X123472419Y-60884836D02*
X124043847Y-60313408D01*
X142372419Y-56503884D02*
X141372419Y-56503884D01*
X141372419Y-56503884D02*
X142086704Y-56837217D01*
X142086704Y-56837217D02*
X141372419Y-57170550D01*
X141372419Y-57170550D02*
X142372419Y-57170550D01*
X142372419Y-57646741D02*
X141372419Y-57646741D01*
X142324800Y-58075312D02*
X142372419Y-58218169D01*
X142372419Y-58218169D02*
X142372419Y-58456264D01*
X142372419Y-58456264D02*
X142324800Y-58551502D01*
X142324800Y-58551502D02*
X142277180Y-58599121D01*
X142277180Y-58599121D02*
X142181942Y-58646740D01*
X142181942Y-58646740D02*
X142086704Y-58646740D01*
X142086704Y-58646740D02*
X141991466Y-58599121D01*
X141991466Y-58599121D02*
X141943847Y-58551502D01*
X141943847Y-58551502D02*
X141896228Y-58456264D01*
X141896228Y-58456264D02*
X141848609Y-58265788D01*
X141848609Y-58265788D02*
X141800990Y-58170550D01*
X141800990Y-58170550D02*
X141753371Y-58122931D01*
X141753371Y-58122931D02*
X141658133Y-58075312D01*
X141658133Y-58075312D02*
X141562895Y-58075312D01*
X141562895Y-58075312D02*
X141467657Y-58122931D01*
X141467657Y-58122931D02*
X141420038Y-58170550D01*
X141420038Y-58170550D02*
X141372419Y-58265788D01*
X141372419Y-58265788D02*
X141372419Y-58503883D01*
X141372419Y-58503883D02*
X141420038Y-58646740D01*
X141372419Y-59265788D02*
X141372419Y-59456264D01*
X141372419Y-59456264D02*
X141420038Y-59551502D01*
X141420038Y-59551502D02*
X141515276Y-59646740D01*
X141515276Y-59646740D02*
X141705752Y-59694359D01*
X141705752Y-59694359D02*
X142039085Y-59694359D01*
X142039085Y-59694359D02*
X142229561Y-59646740D01*
X142229561Y-59646740D02*
X142324800Y-59551502D01*
X142324800Y-59551502D02*
X142372419Y-59456264D01*
X142372419Y-59456264D02*
X142372419Y-59265788D01*
X142372419Y-59265788D02*
X142324800Y-59170550D01*
X142324800Y-59170550D02*
X142229561Y-59075312D01*
X142229561Y-59075312D02*
X142039085Y-59027693D01*
X142039085Y-59027693D02*
X141705752Y-59027693D01*
X141705752Y-59027693D02*
X141515276Y-59075312D01*
X141515276Y-59075312D02*
X141420038Y-59170550D01*
X141420038Y-59170550D02*
X141372419Y-59265788D01*
X139148609Y-87403884D02*
X139148609Y-87737217D01*
X139672419Y-87880074D02*
X139672419Y-87403884D01*
X139672419Y-87403884D02*
X138672419Y-87403884D01*
X138672419Y-87403884D02*
X138672419Y-87880074D01*
X139672419Y-88308646D02*
X138672419Y-88308646D01*
X138672419Y-88308646D02*
X139672419Y-88880074D01*
X139672419Y-88880074D02*
X138672419Y-88880074D01*
X139577180Y-89927693D02*
X139624800Y-89880074D01*
X139624800Y-89880074D02*
X139672419Y-89737217D01*
X139672419Y-89737217D02*
X139672419Y-89641979D01*
X139672419Y-89641979D02*
X139624800Y-89499122D01*
X139624800Y-89499122D02*
X139529561Y-89403884D01*
X139529561Y-89403884D02*
X139434323Y-89356265D01*
X139434323Y-89356265D02*
X139243847Y-89308646D01*
X139243847Y-89308646D02*
X139100990Y-89308646D01*
X139100990Y-89308646D02*
X138910514Y-89356265D01*
X138910514Y-89356265D02*
X138815276Y-89403884D01*
X138815276Y-89403884D02*
X138720038Y-89499122D01*
X138720038Y-89499122D02*
X138672419Y-89641979D01*
X138672419Y-89641979D02*
X138672419Y-89737217D01*
X138672419Y-89737217D02*
X138720038Y-89880074D01*
X138720038Y-89880074D02*
X138767657Y-89927693D01*
X139767657Y-90118170D02*
X139767657Y-90880074D01*
X139672419Y-91118170D02*
X138672419Y-91118170D01*
X138672419Y-91118170D02*
X138672419Y-91356265D01*
X138672419Y-91356265D02*
X138720038Y-91499122D01*
X138720038Y-91499122D02*
X138815276Y-91594360D01*
X138815276Y-91594360D02*
X138910514Y-91641979D01*
X138910514Y-91641979D02*
X139100990Y-91689598D01*
X139100990Y-91689598D02*
X139243847Y-91689598D01*
X139243847Y-91689598D02*
X139434323Y-91641979D01*
X139434323Y-91641979D02*
X139529561Y-91594360D01*
X139529561Y-91594360D02*
X139624800Y-91499122D01*
X139624800Y-91499122D02*
X139672419Y-91356265D01*
X139672419Y-91356265D02*
X139672419Y-91118170D01*
X138672419Y-91975313D02*
X138672419Y-92546741D01*
X139672419Y-92261027D02*
X138672419Y-92261027D01*
X132072419Y-56503884D02*
X131072419Y-56503884D01*
X131072419Y-56503884D02*
X131072419Y-56741979D01*
X131072419Y-56741979D02*
X131120038Y-56884836D01*
X131120038Y-56884836D02*
X131215276Y-56980074D01*
X131215276Y-56980074D02*
X131310514Y-57027693D01*
X131310514Y-57027693D02*
X131500990Y-57075312D01*
X131500990Y-57075312D02*
X131643847Y-57075312D01*
X131643847Y-57075312D02*
X131834323Y-57027693D01*
X131834323Y-57027693D02*
X131929561Y-56980074D01*
X131929561Y-56980074D02*
X132024800Y-56884836D01*
X132024800Y-56884836D02*
X132072419Y-56741979D01*
X132072419Y-56741979D02*
X132072419Y-56503884D01*
X131024800Y-58218169D02*
X132310514Y-57361027D01*
X131977180Y-59122931D02*
X132024800Y-59075312D01*
X132024800Y-59075312D02*
X132072419Y-58932455D01*
X132072419Y-58932455D02*
X132072419Y-58837217D01*
X132072419Y-58837217D02*
X132024800Y-58694360D01*
X132024800Y-58694360D02*
X131929561Y-58599122D01*
X131929561Y-58599122D02*
X131834323Y-58551503D01*
X131834323Y-58551503D02*
X131643847Y-58503884D01*
X131643847Y-58503884D02*
X131500990Y-58503884D01*
X131500990Y-58503884D02*
X131310514Y-58551503D01*
X131310514Y-58551503D02*
X131215276Y-58599122D01*
X131215276Y-58599122D02*
X131120038Y-58694360D01*
X131120038Y-58694360D02*
X131072419Y-58837217D01*
X131072419Y-58837217D02*
X131072419Y-58932455D01*
X131072419Y-58932455D02*
X131120038Y-59075312D01*
X131120038Y-59075312D02*
X131167657Y-59122931D01*
X141748609Y-87403884D02*
X141748609Y-87737217D01*
X142272419Y-87880074D02*
X142272419Y-87403884D01*
X142272419Y-87403884D02*
X141272419Y-87403884D01*
X141272419Y-87403884D02*
X141272419Y-87880074D01*
X142272419Y-88308646D02*
X141272419Y-88308646D01*
X141272419Y-88308646D02*
X142272419Y-88880074D01*
X142272419Y-88880074D02*
X141272419Y-88880074D01*
X142177180Y-89927693D02*
X142224800Y-89880074D01*
X142224800Y-89880074D02*
X142272419Y-89737217D01*
X142272419Y-89737217D02*
X142272419Y-89641979D01*
X142272419Y-89641979D02*
X142224800Y-89499122D01*
X142224800Y-89499122D02*
X142129561Y-89403884D01*
X142129561Y-89403884D02*
X142034323Y-89356265D01*
X142034323Y-89356265D02*
X141843847Y-89308646D01*
X141843847Y-89308646D02*
X141700990Y-89308646D01*
X141700990Y-89308646D02*
X141510514Y-89356265D01*
X141510514Y-89356265D02*
X141415276Y-89403884D01*
X141415276Y-89403884D02*
X141320038Y-89499122D01*
X141320038Y-89499122D02*
X141272419Y-89641979D01*
X141272419Y-89641979D02*
X141272419Y-89737217D01*
X141272419Y-89737217D02*
X141320038Y-89880074D01*
X141320038Y-89880074D02*
X141367657Y-89927693D01*
X142367657Y-90118170D02*
X142367657Y-90880074D01*
X142224800Y-91070551D02*
X142272419Y-91213408D01*
X142272419Y-91213408D02*
X142272419Y-91451503D01*
X142272419Y-91451503D02*
X142224800Y-91546741D01*
X142224800Y-91546741D02*
X142177180Y-91594360D01*
X142177180Y-91594360D02*
X142081942Y-91641979D01*
X142081942Y-91641979D02*
X141986704Y-91641979D01*
X141986704Y-91641979D02*
X141891466Y-91594360D01*
X141891466Y-91594360D02*
X141843847Y-91546741D01*
X141843847Y-91546741D02*
X141796228Y-91451503D01*
X141796228Y-91451503D02*
X141748609Y-91261027D01*
X141748609Y-91261027D02*
X141700990Y-91165789D01*
X141700990Y-91165789D02*
X141653371Y-91118170D01*
X141653371Y-91118170D02*
X141558133Y-91070551D01*
X141558133Y-91070551D02*
X141462895Y-91070551D01*
X141462895Y-91070551D02*
X141367657Y-91118170D01*
X141367657Y-91118170D02*
X141320038Y-91165789D01*
X141320038Y-91165789D02*
X141272419Y-91261027D01*
X141272419Y-91261027D02*
X141272419Y-91499122D01*
X141272419Y-91499122D02*
X141320038Y-91641979D01*
X141272419Y-91975313D02*
X142272419Y-92213408D01*
X142272419Y-92213408D02*
X141558133Y-92403884D01*
X141558133Y-92403884D02*
X142272419Y-92594360D01*
X142272419Y-92594360D02*
X141272419Y-92832456D01*
X149391466Y-87403884D02*
X149391466Y-88165789D01*
X149772419Y-87784836D02*
X149010514Y-87784836D01*
X148772419Y-88546741D02*
X148772419Y-89165788D01*
X148772419Y-89165788D02*
X149153371Y-88832455D01*
X149153371Y-88832455D02*
X149153371Y-88975312D01*
X149153371Y-88975312D02*
X149200990Y-89070550D01*
X149200990Y-89070550D02*
X149248609Y-89118169D01*
X149248609Y-89118169D02*
X149343847Y-89165788D01*
X149343847Y-89165788D02*
X149581942Y-89165788D01*
X149581942Y-89165788D02*
X149677180Y-89118169D01*
X149677180Y-89118169D02*
X149724800Y-89070550D01*
X149724800Y-89070550D02*
X149772419Y-88975312D01*
X149772419Y-88975312D02*
X149772419Y-88689598D01*
X149772419Y-88689598D02*
X149724800Y-88594360D01*
X149724800Y-88594360D02*
X149677180Y-88546741D01*
X149677180Y-89594360D02*
X149724800Y-89641979D01*
X149724800Y-89641979D02*
X149772419Y-89594360D01*
X149772419Y-89594360D02*
X149724800Y-89546741D01*
X149724800Y-89546741D02*
X149677180Y-89594360D01*
X149677180Y-89594360D02*
X149772419Y-89594360D01*
X148772419Y-89975312D02*
X148772419Y-90594359D01*
X148772419Y-90594359D02*
X149153371Y-90261026D01*
X149153371Y-90261026D02*
X149153371Y-90403883D01*
X149153371Y-90403883D02*
X149200990Y-90499121D01*
X149200990Y-90499121D02*
X149248609Y-90546740D01*
X149248609Y-90546740D02*
X149343847Y-90594359D01*
X149343847Y-90594359D02*
X149581942Y-90594359D01*
X149581942Y-90594359D02*
X149677180Y-90546740D01*
X149677180Y-90546740D02*
X149724800Y-90499121D01*
X149724800Y-90499121D02*
X149772419Y-90403883D01*
X149772419Y-90403883D02*
X149772419Y-90118169D01*
X149772419Y-90118169D02*
X149724800Y-90022931D01*
X149724800Y-90022931D02*
X149677180Y-89975312D01*
X148772419Y-90880074D02*
X149772419Y-91213407D01*
X149772419Y-91213407D02*
X148772419Y-91546740D01*
D11*
X114064286Y-87554819D02*
X113492858Y-87554819D01*
X113778572Y-88554819D02*
X113778572Y-87554819D01*
X112778572Y-88507200D02*
X112873810Y-88554819D01*
X112873810Y-88554819D02*
X113064286Y-88554819D01*
X113064286Y-88554819D02*
X113159524Y-88507200D01*
X113159524Y-88507200D02*
X113207143Y-88411961D01*
X113207143Y-88411961D02*
X113207143Y-88031009D01*
X113207143Y-88031009D02*
X113159524Y-87935771D01*
X113159524Y-87935771D02*
X113064286Y-87888152D01*
X113064286Y-87888152D02*
X112873810Y-87888152D01*
X112873810Y-87888152D02*
X112778572Y-87935771D01*
X112778572Y-87935771D02*
X112730953Y-88031009D01*
X112730953Y-88031009D02*
X112730953Y-88126247D01*
X112730953Y-88126247D02*
X113207143Y-88221485D01*
X112302381Y-88554819D02*
X112302381Y-87888152D01*
X112302381Y-87983390D02*
X112254762Y-87935771D01*
X112254762Y-87935771D02*
X112159524Y-87888152D01*
X112159524Y-87888152D02*
X112016667Y-87888152D01*
X112016667Y-87888152D02*
X111921429Y-87935771D01*
X111921429Y-87935771D02*
X111873810Y-88031009D01*
X111873810Y-88031009D02*
X111873810Y-88554819D01*
X111873810Y-88031009D02*
X111826191Y-87935771D01*
X111826191Y-87935771D02*
X111730953Y-87888152D01*
X111730953Y-87888152D02*
X111588096Y-87888152D01*
X111588096Y-87888152D02*
X111492857Y-87935771D01*
X111492857Y-87935771D02*
X111445238Y-88031009D01*
X111445238Y-88031009D02*
X111445238Y-88554819D01*
X110969048Y-87888152D02*
X110969048Y-88888152D01*
X110969048Y-87935771D02*
X110873810Y-87888152D01*
X110873810Y-87888152D02*
X110683334Y-87888152D01*
X110683334Y-87888152D02*
X110588096Y-87935771D01*
X110588096Y-87935771D02*
X110540477Y-87983390D01*
X110540477Y-87983390D02*
X110492858Y-88078628D01*
X110492858Y-88078628D02*
X110492858Y-88364342D01*
X110492858Y-88364342D02*
X110540477Y-88459580D01*
X110540477Y-88459580D02*
X110588096Y-88507200D01*
X110588096Y-88507200D02*
X110683334Y-88554819D01*
X110683334Y-88554819D02*
X110873810Y-88554819D01*
X110873810Y-88554819D02*
X110969048Y-88507200D01*
X110302382Y-88650057D02*
X109540477Y-88650057D01*
X109350000Y-88507200D02*
X109207143Y-88554819D01*
X109207143Y-88554819D02*
X108969048Y-88554819D01*
X108969048Y-88554819D02*
X108873810Y-88507200D01*
X108873810Y-88507200D02*
X108826191Y-88459580D01*
X108826191Y-88459580D02*
X108778572Y-88364342D01*
X108778572Y-88364342D02*
X108778572Y-88269104D01*
X108778572Y-88269104D02*
X108826191Y-88173866D01*
X108826191Y-88173866D02*
X108873810Y-88126247D01*
X108873810Y-88126247D02*
X108969048Y-88078628D01*
X108969048Y-88078628D02*
X109159524Y-88031009D01*
X109159524Y-88031009D02*
X109254762Y-87983390D01*
X109254762Y-87983390D02*
X109302381Y-87935771D01*
X109302381Y-87935771D02*
X109350000Y-87840533D01*
X109350000Y-87840533D02*
X109350000Y-87745295D01*
X109350000Y-87745295D02*
X109302381Y-87650057D01*
X109302381Y-87650057D02*
X109254762Y-87602438D01*
X109254762Y-87602438D02*
X109159524Y-87554819D01*
X109159524Y-87554819D02*
X108921429Y-87554819D01*
X108921429Y-87554819D02*
X108778572Y-87602438D01*
X107969048Y-88507200D02*
X108064286Y-88554819D01*
X108064286Y-88554819D02*
X108254762Y-88554819D01*
X108254762Y-88554819D02*
X108350000Y-88507200D01*
X108350000Y-88507200D02*
X108397619Y-88411961D01*
X108397619Y-88411961D02*
X108397619Y-88031009D01*
X108397619Y-88031009D02*
X108350000Y-87935771D01*
X108350000Y-87935771D02*
X108254762Y-87888152D01*
X108254762Y-87888152D02*
X108064286Y-87888152D01*
X108064286Y-87888152D02*
X107969048Y-87935771D01*
X107969048Y-87935771D02*
X107921429Y-88031009D01*
X107921429Y-88031009D02*
X107921429Y-88126247D01*
X107921429Y-88126247D02*
X108397619Y-88221485D01*
X107492857Y-87888152D02*
X107492857Y-88554819D01*
X107492857Y-87983390D02*
X107445238Y-87935771D01*
X107445238Y-87935771D02*
X107350000Y-87888152D01*
X107350000Y-87888152D02*
X107207143Y-87888152D01*
X107207143Y-87888152D02*
X107111905Y-87935771D01*
X107111905Y-87935771D02*
X107064286Y-88031009D01*
X107064286Y-88031009D02*
X107064286Y-88554819D01*
X106635714Y-88507200D02*
X106540476Y-88554819D01*
X106540476Y-88554819D02*
X106350000Y-88554819D01*
X106350000Y-88554819D02*
X106254762Y-88507200D01*
X106254762Y-88507200D02*
X106207143Y-88411961D01*
X106207143Y-88411961D02*
X106207143Y-88364342D01*
X106207143Y-88364342D02*
X106254762Y-88269104D01*
X106254762Y-88269104D02*
X106350000Y-88221485D01*
X106350000Y-88221485D02*
X106492857Y-88221485D01*
X106492857Y-88221485D02*
X106588095Y-88173866D01*
X106588095Y-88173866D02*
X106635714Y-88078628D01*
X106635714Y-88078628D02*
X106635714Y-88031009D01*
X106635714Y-88031009D02*
X106588095Y-87935771D01*
X106588095Y-87935771D02*
X106492857Y-87888152D01*
X106492857Y-87888152D02*
X106350000Y-87888152D01*
X106350000Y-87888152D02*
X106254762Y-87935771D01*
X106016667Y-88650057D02*
X105254762Y-88650057D01*
X104445238Y-88459580D02*
X104492857Y-88507200D01*
X104492857Y-88507200D02*
X104635714Y-88554819D01*
X104635714Y-88554819D02*
X104730952Y-88554819D01*
X104730952Y-88554819D02*
X104873809Y-88507200D01*
X104873809Y-88507200D02*
X104969047Y-88411961D01*
X104969047Y-88411961D02*
X105016666Y-88316723D01*
X105016666Y-88316723D02*
X105064285Y-88126247D01*
X105064285Y-88126247D02*
X105064285Y-87983390D01*
X105064285Y-87983390D02*
X105016666Y-87792914D01*
X105016666Y-87792914D02*
X104969047Y-87697676D01*
X104969047Y-87697676D02*
X104873809Y-87602438D01*
X104873809Y-87602438D02*
X104730952Y-87554819D01*
X104730952Y-87554819D02*
X104635714Y-87554819D01*
X104635714Y-87554819D02*
X104492857Y-87602438D01*
X104492857Y-87602438D02*
X104445238Y-87650057D01*
X103873809Y-88554819D02*
X103969047Y-88507200D01*
X103969047Y-88507200D02*
X104016666Y-88459580D01*
X104016666Y-88459580D02*
X104064285Y-88364342D01*
X104064285Y-88364342D02*
X104064285Y-88078628D01*
X104064285Y-88078628D02*
X104016666Y-87983390D01*
X104016666Y-87983390D02*
X103969047Y-87935771D01*
X103969047Y-87935771D02*
X103873809Y-87888152D01*
X103873809Y-87888152D02*
X103730952Y-87888152D01*
X103730952Y-87888152D02*
X103635714Y-87935771D01*
X103635714Y-87935771D02*
X103588095Y-87983390D01*
X103588095Y-87983390D02*
X103540476Y-88078628D01*
X103540476Y-88078628D02*
X103540476Y-88364342D01*
X103540476Y-88364342D02*
X103588095Y-88459580D01*
X103588095Y-88459580D02*
X103635714Y-88507200D01*
X103635714Y-88507200D02*
X103730952Y-88554819D01*
X103730952Y-88554819D02*
X103873809Y-88554819D01*
X103111904Y-87888152D02*
X103111904Y-88554819D01*
X103111904Y-87983390D02*
X103064285Y-87935771D01*
X103064285Y-87935771D02*
X102969047Y-87888152D01*
X102969047Y-87888152D02*
X102826190Y-87888152D01*
X102826190Y-87888152D02*
X102730952Y-87935771D01*
X102730952Y-87935771D02*
X102683333Y-88031009D01*
X102683333Y-88031009D02*
X102683333Y-88554819D01*
X102207142Y-87888152D02*
X102207142Y-88554819D01*
X102207142Y-87983390D02*
X102159523Y-87935771D01*
X102159523Y-87935771D02*
X102064285Y-87888152D01*
X102064285Y-87888152D02*
X101921428Y-87888152D01*
X101921428Y-87888152D02*
X101826190Y-87935771D01*
X101826190Y-87935771D02*
X101778571Y-88031009D01*
X101778571Y-88031009D02*
X101778571Y-88554819D01*
X169404819Y-48057142D02*
X168928628Y-47723809D01*
X169404819Y-47485714D02*
X168404819Y-47485714D01*
X168404819Y-47485714D02*
X168404819Y-47866666D01*
X168404819Y-47866666D02*
X168452438Y-47961904D01*
X168452438Y-47961904D02*
X168500057Y-48009523D01*
X168500057Y-48009523D02*
X168595295Y-48057142D01*
X168595295Y-48057142D02*
X168738152Y-48057142D01*
X168738152Y-48057142D02*
X168833390Y-48009523D01*
X168833390Y-48009523D02*
X168881009Y-47961904D01*
X168881009Y-47961904D02*
X168928628Y-47866666D01*
X168928628Y-47866666D02*
X168928628Y-47485714D01*
X169404819Y-49009523D02*
X169404819Y-48438095D01*
X169404819Y-48723809D02*
X168404819Y-48723809D01*
X168404819Y-48723809D02*
X168547676Y-48628571D01*
X168547676Y-48628571D02*
X168642914Y-48533333D01*
X168642914Y-48533333D02*
X168690533Y-48438095D01*
X168404819Y-49342857D02*
X168404819Y-49961904D01*
X168404819Y-49961904D02*
X168785771Y-49628571D01*
X168785771Y-49628571D02*
X168785771Y-49771428D01*
X168785771Y-49771428D02*
X168833390Y-49866666D01*
X168833390Y-49866666D02*
X168881009Y-49914285D01*
X168881009Y-49914285D02*
X168976247Y-49961904D01*
X168976247Y-49961904D02*
X169214342Y-49961904D01*
X169214342Y-49961904D02*
X169309580Y-49914285D01*
X169309580Y-49914285D02*
X169357200Y-49866666D01*
X169357200Y-49866666D02*
X169404819Y-49771428D01*
X169404819Y-49771428D02*
X169404819Y-49485714D01*
X169404819Y-49485714D02*
X169357200Y-49390476D01*
X169357200Y-49390476D02*
X169309580Y-49342857D01*
X170754819Y-48104761D02*
X170754819Y-47533333D01*
X170754819Y-47819047D02*
X169754819Y-47819047D01*
X169754819Y-47819047D02*
X169897676Y-47723809D01*
X169897676Y-47723809D02*
X169992914Y-47628571D01*
X169992914Y-47628571D02*
X170040533Y-47533333D01*
X169754819Y-48723809D02*
X169754819Y-48819047D01*
X169754819Y-48819047D02*
X169802438Y-48914285D01*
X169802438Y-48914285D02*
X169850057Y-48961904D01*
X169850057Y-48961904D02*
X169945295Y-49009523D01*
X169945295Y-49009523D02*
X170135771Y-49057142D01*
X170135771Y-49057142D02*
X170373866Y-49057142D01*
X170373866Y-49057142D02*
X170564342Y-49009523D01*
X170564342Y-49009523D02*
X170659580Y-48961904D01*
X170659580Y-48961904D02*
X170707200Y-48914285D01*
X170707200Y-48914285D02*
X170754819Y-48819047D01*
X170754819Y-48819047D02*
X170754819Y-48723809D01*
X170754819Y-48723809D02*
X170707200Y-48628571D01*
X170707200Y-48628571D02*
X170659580Y-48580952D01*
X170659580Y-48580952D02*
X170564342Y-48533333D01*
X170564342Y-48533333D02*
X170373866Y-48485714D01*
X170373866Y-48485714D02*
X170135771Y-48485714D01*
X170135771Y-48485714D02*
X169945295Y-48533333D01*
X169945295Y-48533333D02*
X169850057Y-48580952D01*
X169850057Y-48580952D02*
X169802438Y-48628571D01*
X169802438Y-48628571D02*
X169754819Y-48723809D01*
X170754819Y-49485714D02*
X169754819Y-49485714D01*
X170373866Y-49580952D02*
X170754819Y-49866666D01*
X170088152Y-49866666D02*
X170469104Y-49485714D01*
X145523809Y-65606819D02*
X145523809Y-64606819D01*
X145523809Y-65083009D02*
X144952381Y-65083009D01*
X144952381Y-65606819D02*
X144952381Y-64606819D01*
X144523809Y-65321104D02*
X144047619Y-65321104D01*
X144619047Y-65606819D02*
X144285714Y-64606819D01*
X144285714Y-64606819D02*
X143952381Y-65606819D01*
X143142857Y-65606819D02*
X143619047Y-65606819D01*
X143619047Y-65606819D02*
X143619047Y-64606819D01*
X142333333Y-65606819D02*
X142809523Y-65606819D01*
X142809523Y-65606819D02*
X142809523Y-64606819D01*
X160942857Y-87854819D02*
X161276190Y-87378628D01*
X161514285Y-87854819D02*
X161514285Y-86854819D01*
X161514285Y-86854819D02*
X161133333Y-86854819D01*
X161133333Y-86854819D02*
X161038095Y-86902438D01*
X161038095Y-86902438D02*
X160990476Y-86950057D01*
X160990476Y-86950057D02*
X160942857Y-87045295D01*
X160942857Y-87045295D02*
X160942857Y-87188152D01*
X160942857Y-87188152D02*
X160990476Y-87283390D01*
X160990476Y-87283390D02*
X161038095Y-87331009D01*
X161038095Y-87331009D02*
X161133333Y-87378628D01*
X161133333Y-87378628D02*
X161514285Y-87378628D01*
X160609523Y-86854819D02*
X159990476Y-86854819D01*
X159990476Y-86854819D02*
X160323809Y-87235771D01*
X160323809Y-87235771D02*
X160180952Y-87235771D01*
X160180952Y-87235771D02*
X160085714Y-87283390D01*
X160085714Y-87283390D02*
X160038095Y-87331009D01*
X160038095Y-87331009D02*
X159990476Y-87426247D01*
X159990476Y-87426247D02*
X159990476Y-87664342D01*
X159990476Y-87664342D02*
X160038095Y-87759580D01*
X160038095Y-87759580D02*
X160085714Y-87807200D01*
X160085714Y-87807200D02*
X160180952Y-87854819D01*
X160180952Y-87854819D02*
X160466666Y-87854819D01*
X160466666Y-87854819D02*
X160561904Y-87807200D01*
X160561904Y-87807200D02*
X160609523Y-87759580D01*
X159514285Y-87854819D02*
X159323809Y-87854819D01*
X159323809Y-87854819D02*
X159228571Y-87807200D01*
X159228571Y-87807200D02*
X159180952Y-87759580D01*
X159180952Y-87759580D02*
X159085714Y-87616723D01*
X159085714Y-87616723D02*
X159038095Y-87426247D01*
X159038095Y-87426247D02*
X159038095Y-87045295D01*
X159038095Y-87045295D02*
X159085714Y-86950057D01*
X159085714Y-86950057D02*
X159133333Y-86902438D01*
X159133333Y-86902438D02*
X159228571Y-86854819D01*
X159228571Y-86854819D02*
X159419047Y-86854819D01*
X159419047Y-86854819D02*
X159514285Y-86902438D01*
X159514285Y-86902438D02*
X159561904Y-86950057D01*
X159561904Y-86950057D02*
X159609523Y-87045295D01*
X159609523Y-87045295D02*
X159609523Y-87283390D01*
X159609523Y-87283390D02*
X159561904Y-87378628D01*
X159561904Y-87378628D02*
X159514285Y-87426247D01*
X159514285Y-87426247D02*
X159419047Y-87473866D01*
X159419047Y-87473866D02*
X159228571Y-87473866D01*
X159228571Y-87473866D02*
X159133333Y-87426247D01*
X159133333Y-87426247D02*
X159085714Y-87378628D01*
X159085714Y-87378628D02*
X159038095Y-87283390D01*
X160980952Y-88154819D02*
X161457142Y-88154819D01*
X161457142Y-88154819D02*
X161504761Y-88631009D01*
X161504761Y-88631009D02*
X161457142Y-88583390D01*
X161457142Y-88583390D02*
X161361904Y-88535771D01*
X161361904Y-88535771D02*
X161123809Y-88535771D01*
X161123809Y-88535771D02*
X161028571Y-88583390D01*
X161028571Y-88583390D02*
X160980952Y-88631009D01*
X160980952Y-88631009D02*
X160933333Y-88726247D01*
X160933333Y-88726247D02*
X160933333Y-88964342D01*
X160933333Y-88964342D02*
X160980952Y-89059580D01*
X160980952Y-89059580D02*
X161028571Y-89107200D01*
X161028571Y-89107200D02*
X161123809Y-89154819D01*
X161123809Y-89154819D02*
X161361904Y-89154819D01*
X161361904Y-89154819D02*
X161457142Y-89107200D01*
X161457142Y-89107200D02*
X161504761Y-89059580D01*
X160504761Y-89059580D02*
X160457142Y-89107200D01*
X160457142Y-89107200D02*
X160504761Y-89154819D01*
X160504761Y-89154819D02*
X160552380Y-89107200D01*
X160552380Y-89107200D02*
X160504761Y-89059580D01*
X160504761Y-89059580D02*
X160504761Y-89154819D01*
X159504762Y-89154819D02*
X160076190Y-89154819D01*
X159790476Y-89154819D02*
X159790476Y-88154819D01*
X159790476Y-88154819D02*
X159885714Y-88297676D01*
X159885714Y-88297676D02*
X159980952Y-88392914D01*
X159980952Y-88392914D02*
X160076190Y-88440533D01*
X159076190Y-89154819D02*
X159076190Y-88154819D01*
X158980952Y-88773866D02*
X158695238Y-89154819D01*
X158695238Y-88488152D02*
X159076190Y-88869104D01*
X114259580Y-70004761D02*
X114307200Y-69957142D01*
X114307200Y-69957142D02*
X114354819Y-69814285D01*
X114354819Y-69814285D02*
X114354819Y-69719047D01*
X114354819Y-69719047D02*
X114307200Y-69576190D01*
X114307200Y-69576190D02*
X114211961Y-69480952D01*
X114211961Y-69480952D02*
X114116723Y-69433333D01*
X114116723Y-69433333D02*
X113926247Y-69385714D01*
X113926247Y-69385714D02*
X113783390Y-69385714D01*
X113783390Y-69385714D02*
X113592914Y-69433333D01*
X113592914Y-69433333D02*
X113497676Y-69480952D01*
X113497676Y-69480952D02*
X113402438Y-69576190D01*
X113402438Y-69576190D02*
X113354819Y-69719047D01*
X113354819Y-69719047D02*
X113354819Y-69814285D01*
X113354819Y-69814285D02*
X113402438Y-69957142D01*
X113402438Y-69957142D02*
X113450057Y-70004761D01*
X114354819Y-70433333D02*
X113354819Y-70433333D01*
X113831009Y-70433333D02*
X113831009Y-71004761D01*
X114354819Y-71004761D02*
X113354819Y-71004761D01*
X114069104Y-71433333D02*
X114069104Y-71909523D01*
X114354819Y-71338095D02*
X113354819Y-71671428D01*
X113354819Y-71671428D02*
X114354819Y-72004761D01*
X114354819Y-72909523D02*
X113878628Y-72576190D01*
X114354819Y-72338095D02*
X113354819Y-72338095D01*
X113354819Y-72338095D02*
X113354819Y-72719047D01*
X113354819Y-72719047D02*
X113402438Y-72814285D01*
X113402438Y-72814285D02*
X113450057Y-72861904D01*
X113450057Y-72861904D02*
X113545295Y-72909523D01*
X113545295Y-72909523D02*
X113688152Y-72909523D01*
X113688152Y-72909523D02*
X113783390Y-72861904D01*
X113783390Y-72861904D02*
X113831009Y-72814285D01*
X113831009Y-72814285D02*
X113878628Y-72719047D01*
X113878628Y-72719047D02*
X113878628Y-72338095D01*
X113402438Y-73861904D02*
X113354819Y-73766666D01*
X113354819Y-73766666D02*
X113354819Y-73623809D01*
X113354819Y-73623809D02*
X113402438Y-73480952D01*
X113402438Y-73480952D02*
X113497676Y-73385714D01*
X113497676Y-73385714D02*
X113592914Y-73338095D01*
X113592914Y-73338095D02*
X113783390Y-73290476D01*
X113783390Y-73290476D02*
X113926247Y-73290476D01*
X113926247Y-73290476D02*
X114116723Y-73338095D01*
X114116723Y-73338095D02*
X114211961Y-73385714D01*
X114211961Y-73385714D02*
X114307200Y-73480952D01*
X114307200Y-73480952D02*
X114354819Y-73623809D01*
X114354819Y-73623809D02*
X114354819Y-73719047D01*
X114354819Y-73719047D02*
X114307200Y-73861904D01*
X114307200Y-73861904D02*
X114259580Y-73909523D01*
X114259580Y-73909523D02*
X113926247Y-73909523D01*
X113926247Y-73909523D02*
X113926247Y-73719047D01*
X113831009Y-74338095D02*
X113831009Y-74671428D01*
X114354819Y-74814285D02*
X114354819Y-74338095D01*
X114354819Y-74338095D02*
X113354819Y-74338095D01*
X113354819Y-74338095D02*
X113354819Y-74814285D01*
X114354819Y-75814285D02*
X113878628Y-75480952D01*
X114354819Y-75242857D02*
X113354819Y-75242857D01*
X113354819Y-75242857D02*
X113354819Y-75623809D01*
X113354819Y-75623809D02*
X113402438Y-75719047D01*
X113402438Y-75719047D02*
X113450057Y-75766666D01*
X113450057Y-75766666D02*
X113545295Y-75814285D01*
X113545295Y-75814285D02*
X113688152Y-75814285D01*
X113688152Y-75814285D02*
X113783390Y-75766666D01*
X113783390Y-75766666D02*
X113831009Y-75719047D01*
X113831009Y-75719047D02*
X113878628Y-75623809D01*
X113878628Y-75623809D02*
X113878628Y-75242857D01*
X114450057Y-76004762D02*
X114450057Y-76766666D01*
X114307200Y-76957143D02*
X114354819Y-77100000D01*
X114354819Y-77100000D02*
X114354819Y-77338095D01*
X114354819Y-77338095D02*
X114307200Y-77433333D01*
X114307200Y-77433333D02*
X114259580Y-77480952D01*
X114259580Y-77480952D02*
X114164342Y-77528571D01*
X114164342Y-77528571D02*
X114069104Y-77528571D01*
X114069104Y-77528571D02*
X113973866Y-77480952D01*
X113973866Y-77480952D02*
X113926247Y-77433333D01*
X113926247Y-77433333D02*
X113878628Y-77338095D01*
X113878628Y-77338095D02*
X113831009Y-77147619D01*
X113831009Y-77147619D02*
X113783390Y-77052381D01*
X113783390Y-77052381D02*
X113735771Y-77004762D01*
X113735771Y-77004762D02*
X113640533Y-76957143D01*
X113640533Y-76957143D02*
X113545295Y-76957143D01*
X113545295Y-76957143D02*
X113450057Y-77004762D01*
X113450057Y-77004762D02*
X113402438Y-77052381D01*
X113402438Y-77052381D02*
X113354819Y-77147619D01*
X113354819Y-77147619D02*
X113354819Y-77385714D01*
X113354819Y-77385714D02*
X113402438Y-77528571D01*
X113831009Y-77957143D02*
X113831009Y-78290476D01*
X114354819Y-78433333D02*
X114354819Y-77957143D01*
X114354819Y-77957143D02*
X113354819Y-77957143D01*
X113354819Y-77957143D02*
X113354819Y-78433333D01*
X113354819Y-78719048D02*
X113354819Y-79290476D01*
X114354819Y-79004762D02*
X113354819Y-79004762D01*
X114450057Y-79385715D02*
X114450057Y-80147619D01*
X113354819Y-80242858D02*
X114354819Y-80576191D01*
X114354819Y-80576191D02*
X113354819Y-80909524D01*
X172704819Y-91857142D02*
X172228628Y-91523809D01*
X172704819Y-91285714D02*
X171704819Y-91285714D01*
X171704819Y-91285714D02*
X171704819Y-91666666D01*
X171704819Y-91666666D02*
X171752438Y-91761904D01*
X171752438Y-91761904D02*
X171800057Y-91809523D01*
X171800057Y-91809523D02*
X171895295Y-91857142D01*
X171895295Y-91857142D02*
X172038152Y-91857142D01*
X172038152Y-91857142D02*
X172133390Y-91809523D01*
X172133390Y-91809523D02*
X172181009Y-91761904D01*
X172181009Y-91761904D02*
X172228628Y-91666666D01*
X172228628Y-91666666D02*
X172228628Y-91285714D01*
X172038152Y-92714285D02*
X172704819Y-92714285D01*
X171657200Y-92476190D02*
X172371485Y-92238095D01*
X172371485Y-92238095D02*
X172371485Y-92857142D01*
X171800057Y-93190476D02*
X171752438Y-93238095D01*
X171752438Y-93238095D02*
X171704819Y-93333333D01*
X171704819Y-93333333D02*
X171704819Y-93571428D01*
X171704819Y-93571428D02*
X171752438Y-93666666D01*
X171752438Y-93666666D02*
X171800057Y-93714285D01*
X171800057Y-93714285D02*
X171895295Y-93761904D01*
X171895295Y-93761904D02*
X171990533Y-93761904D01*
X171990533Y-93761904D02*
X172133390Y-93714285D01*
X172133390Y-93714285D02*
X172704819Y-93142857D01*
X172704819Y-93142857D02*
X172704819Y-93761904D01*
X174154819Y-91833333D02*
X174154819Y-91261905D01*
X174154819Y-91547619D02*
X173154819Y-91547619D01*
X173154819Y-91547619D02*
X173297676Y-91452381D01*
X173297676Y-91452381D02*
X173392914Y-91357143D01*
X173392914Y-91357143D02*
X173440533Y-91261905D01*
X173154819Y-92452381D02*
X173154819Y-92547619D01*
X173154819Y-92547619D02*
X173202438Y-92642857D01*
X173202438Y-92642857D02*
X173250057Y-92690476D01*
X173250057Y-92690476D02*
X173345295Y-92738095D01*
X173345295Y-92738095D02*
X173535771Y-92785714D01*
X173535771Y-92785714D02*
X173773866Y-92785714D01*
X173773866Y-92785714D02*
X173964342Y-92738095D01*
X173964342Y-92738095D02*
X174059580Y-92690476D01*
X174059580Y-92690476D02*
X174107200Y-92642857D01*
X174107200Y-92642857D02*
X174154819Y-92547619D01*
X174154819Y-92547619D02*
X174154819Y-92452381D01*
X174154819Y-92452381D02*
X174107200Y-92357143D01*
X174107200Y-92357143D02*
X174059580Y-92309524D01*
X174059580Y-92309524D02*
X173964342Y-92261905D01*
X173964342Y-92261905D02*
X173773866Y-92214286D01*
X173773866Y-92214286D02*
X173535771Y-92214286D01*
X173535771Y-92214286D02*
X173345295Y-92261905D01*
X173345295Y-92261905D02*
X173250057Y-92309524D01*
X173250057Y-92309524D02*
X173202438Y-92357143D01*
X173202438Y-92357143D02*
X173154819Y-92452381D01*
X173154819Y-93404762D02*
X173154819Y-93500000D01*
X173154819Y-93500000D02*
X173202438Y-93595238D01*
X173202438Y-93595238D02*
X173250057Y-93642857D01*
X173250057Y-93642857D02*
X173345295Y-93690476D01*
X173345295Y-93690476D02*
X173535771Y-93738095D01*
X173535771Y-93738095D02*
X173773866Y-93738095D01*
X173773866Y-93738095D02*
X173964342Y-93690476D01*
X173964342Y-93690476D02*
X174059580Y-93642857D01*
X174059580Y-93642857D02*
X174107200Y-93595238D01*
X174107200Y-93595238D02*
X174154819Y-93500000D01*
X174154819Y-93500000D02*
X174154819Y-93404762D01*
X174154819Y-93404762D02*
X174107200Y-93309524D01*
X174107200Y-93309524D02*
X174059580Y-93261905D01*
X174059580Y-93261905D02*
X173964342Y-93214286D01*
X173964342Y-93214286D02*
X173773866Y-93166667D01*
X173773866Y-93166667D02*
X173535771Y-93166667D01*
X173535771Y-93166667D02*
X173345295Y-93214286D01*
X173345295Y-93214286D02*
X173250057Y-93261905D01*
X173250057Y-93261905D02*
X173202438Y-93309524D01*
X173202438Y-93309524D02*
X173154819Y-93404762D01*
X152409523Y-65754819D02*
X152076190Y-66754819D01*
X152076190Y-66754819D02*
X151742857Y-65754819D01*
X151076190Y-66231009D02*
X150933333Y-66278628D01*
X150933333Y-66278628D02*
X150885714Y-66326247D01*
X150885714Y-66326247D02*
X150838095Y-66421485D01*
X150838095Y-66421485D02*
X150838095Y-66564342D01*
X150838095Y-66564342D02*
X150885714Y-66659580D01*
X150885714Y-66659580D02*
X150933333Y-66707200D01*
X150933333Y-66707200D02*
X151028571Y-66754819D01*
X151028571Y-66754819D02*
X151409523Y-66754819D01*
X151409523Y-66754819D02*
X151409523Y-65754819D01*
X151409523Y-65754819D02*
X151076190Y-65754819D01*
X151076190Y-65754819D02*
X150980952Y-65802438D01*
X150980952Y-65802438D02*
X150933333Y-65850057D01*
X150933333Y-65850057D02*
X150885714Y-65945295D01*
X150885714Y-65945295D02*
X150885714Y-66040533D01*
X150885714Y-66040533D02*
X150933333Y-66135771D01*
X150933333Y-66135771D02*
X150980952Y-66183390D01*
X150980952Y-66183390D02*
X151076190Y-66231009D01*
X151076190Y-66231009D02*
X151409523Y-66231009D01*
X149885714Y-66754819D02*
X150457142Y-66754819D01*
X150171428Y-66754819D02*
X150171428Y-65754819D01*
X150171428Y-65754819D02*
X150266666Y-65897676D01*
X150266666Y-65897676D02*
X150361904Y-65992914D01*
X150361904Y-65992914D02*
X150457142Y-66040533D01*
X179223809Y-99306819D02*
X179223809Y-98306819D01*
X179223809Y-98783009D02*
X178652381Y-98783009D01*
X178652381Y-99306819D02*
X178652381Y-98306819D01*
X178223809Y-99021104D02*
X177747619Y-99021104D01*
X178319047Y-99306819D02*
X177985714Y-98306819D01*
X177985714Y-98306819D02*
X177652381Y-99306819D01*
X176842857Y-99306819D02*
X177319047Y-99306819D01*
X177319047Y-99306819D02*
X177319047Y-98306819D01*
X176033333Y-99306819D02*
X176509523Y-99306819D01*
X176509523Y-99306819D02*
X176509523Y-98306819D01*
X152409523Y-61054819D02*
X152076190Y-62054819D01*
X152076190Y-62054819D02*
X151742857Y-61054819D01*
X151076190Y-61531009D02*
X150933333Y-61578628D01*
X150933333Y-61578628D02*
X150885714Y-61626247D01*
X150885714Y-61626247D02*
X150838095Y-61721485D01*
X150838095Y-61721485D02*
X150838095Y-61864342D01*
X150838095Y-61864342D02*
X150885714Y-61959580D01*
X150885714Y-61959580D02*
X150933333Y-62007200D01*
X150933333Y-62007200D02*
X151028571Y-62054819D01*
X151028571Y-62054819D02*
X151409523Y-62054819D01*
X151409523Y-62054819D02*
X151409523Y-61054819D01*
X151409523Y-61054819D02*
X151076190Y-61054819D01*
X151076190Y-61054819D02*
X150980952Y-61102438D01*
X150980952Y-61102438D02*
X150933333Y-61150057D01*
X150933333Y-61150057D02*
X150885714Y-61245295D01*
X150885714Y-61245295D02*
X150885714Y-61340533D01*
X150885714Y-61340533D02*
X150933333Y-61435771D01*
X150933333Y-61435771D02*
X150980952Y-61483390D01*
X150980952Y-61483390D02*
X151076190Y-61531009D01*
X151076190Y-61531009D02*
X151409523Y-61531009D01*
X149933333Y-61054819D02*
X150409523Y-61054819D01*
X150409523Y-61054819D02*
X150457142Y-61531009D01*
X150457142Y-61531009D02*
X150409523Y-61483390D01*
X150409523Y-61483390D02*
X150314285Y-61435771D01*
X150314285Y-61435771D02*
X150076190Y-61435771D01*
X150076190Y-61435771D02*
X149980952Y-61483390D01*
X149980952Y-61483390D02*
X149933333Y-61531009D01*
X149933333Y-61531009D02*
X149885714Y-61626247D01*
X149885714Y-61626247D02*
X149885714Y-61864342D01*
X149885714Y-61864342D02*
X149933333Y-61959580D01*
X149933333Y-61959580D02*
X149980952Y-62007200D01*
X149980952Y-62007200D02*
X150076190Y-62054819D01*
X150076190Y-62054819D02*
X150314285Y-62054819D01*
X150314285Y-62054819D02*
X150409523Y-62007200D01*
X150409523Y-62007200D02*
X150457142Y-61959580D01*
X160942857Y-79654819D02*
X161276190Y-79178628D01*
X161514285Y-79654819D02*
X161514285Y-78654819D01*
X161514285Y-78654819D02*
X161133333Y-78654819D01*
X161133333Y-78654819D02*
X161038095Y-78702438D01*
X161038095Y-78702438D02*
X160990476Y-78750057D01*
X160990476Y-78750057D02*
X160942857Y-78845295D01*
X160942857Y-78845295D02*
X160942857Y-78988152D01*
X160942857Y-78988152D02*
X160990476Y-79083390D01*
X160990476Y-79083390D02*
X161038095Y-79131009D01*
X161038095Y-79131009D02*
X161133333Y-79178628D01*
X161133333Y-79178628D02*
X161514285Y-79178628D01*
X160609523Y-78654819D02*
X159990476Y-78654819D01*
X159990476Y-78654819D02*
X160323809Y-79035771D01*
X160323809Y-79035771D02*
X160180952Y-79035771D01*
X160180952Y-79035771D02*
X160085714Y-79083390D01*
X160085714Y-79083390D02*
X160038095Y-79131009D01*
X160038095Y-79131009D02*
X159990476Y-79226247D01*
X159990476Y-79226247D02*
X159990476Y-79464342D01*
X159990476Y-79464342D02*
X160038095Y-79559580D01*
X160038095Y-79559580D02*
X160085714Y-79607200D01*
X160085714Y-79607200D02*
X160180952Y-79654819D01*
X160180952Y-79654819D02*
X160466666Y-79654819D01*
X160466666Y-79654819D02*
X160561904Y-79607200D01*
X160561904Y-79607200D02*
X160609523Y-79559580D01*
X159419047Y-79083390D02*
X159514285Y-79035771D01*
X159514285Y-79035771D02*
X159561904Y-78988152D01*
X159561904Y-78988152D02*
X159609523Y-78892914D01*
X159609523Y-78892914D02*
X159609523Y-78845295D01*
X159609523Y-78845295D02*
X159561904Y-78750057D01*
X159561904Y-78750057D02*
X159514285Y-78702438D01*
X159514285Y-78702438D02*
X159419047Y-78654819D01*
X159419047Y-78654819D02*
X159228571Y-78654819D01*
X159228571Y-78654819D02*
X159133333Y-78702438D01*
X159133333Y-78702438D02*
X159085714Y-78750057D01*
X159085714Y-78750057D02*
X159038095Y-78845295D01*
X159038095Y-78845295D02*
X159038095Y-78892914D01*
X159038095Y-78892914D02*
X159085714Y-78988152D01*
X159085714Y-78988152D02*
X159133333Y-79035771D01*
X159133333Y-79035771D02*
X159228571Y-79083390D01*
X159228571Y-79083390D02*
X159419047Y-79083390D01*
X159419047Y-79083390D02*
X159514285Y-79131009D01*
X159514285Y-79131009D02*
X159561904Y-79178628D01*
X159561904Y-79178628D02*
X159609523Y-79273866D01*
X159609523Y-79273866D02*
X159609523Y-79464342D01*
X159609523Y-79464342D02*
X159561904Y-79559580D01*
X159561904Y-79559580D02*
X159514285Y-79607200D01*
X159514285Y-79607200D02*
X159419047Y-79654819D01*
X159419047Y-79654819D02*
X159228571Y-79654819D01*
X159228571Y-79654819D02*
X159133333Y-79607200D01*
X159133333Y-79607200D02*
X159085714Y-79559580D01*
X159085714Y-79559580D02*
X159038095Y-79464342D01*
X159038095Y-79464342D02*
X159038095Y-79273866D01*
X159038095Y-79273866D02*
X159085714Y-79178628D01*
X159085714Y-79178628D02*
X159133333Y-79131009D01*
X159133333Y-79131009D02*
X159228571Y-79083390D01*
X160980952Y-80054819D02*
X161457142Y-80054819D01*
X161457142Y-80054819D02*
X161504761Y-80531009D01*
X161504761Y-80531009D02*
X161457142Y-80483390D01*
X161457142Y-80483390D02*
X161361904Y-80435771D01*
X161361904Y-80435771D02*
X161123809Y-80435771D01*
X161123809Y-80435771D02*
X161028571Y-80483390D01*
X161028571Y-80483390D02*
X160980952Y-80531009D01*
X160980952Y-80531009D02*
X160933333Y-80626247D01*
X160933333Y-80626247D02*
X160933333Y-80864342D01*
X160933333Y-80864342D02*
X160980952Y-80959580D01*
X160980952Y-80959580D02*
X161028571Y-81007200D01*
X161028571Y-81007200D02*
X161123809Y-81054819D01*
X161123809Y-81054819D02*
X161361904Y-81054819D01*
X161361904Y-81054819D02*
X161457142Y-81007200D01*
X161457142Y-81007200D02*
X161504761Y-80959580D01*
X160504761Y-80959580D02*
X160457142Y-81007200D01*
X160457142Y-81007200D02*
X160504761Y-81054819D01*
X160504761Y-81054819D02*
X160552380Y-81007200D01*
X160552380Y-81007200D02*
X160504761Y-80959580D01*
X160504761Y-80959580D02*
X160504761Y-81054819D01*
X159504762Y-81054819D02*
X160076190Y-81054819D01*
X159790476Y-81054819D02*
X159790476Y-80054819D01*
X159790476Y-80054819D02*
X159885714Y-80197676D01*
X159885714Y-80197676D02*
X159980952Y-80292914D01*
X159980952Y-80292914D02*
X160076190Y-80340533D01*
X159076190Y-81054819D02*
X159076190Y-80054819D01*
X158980952Y-80673866D02*
X158695238Y-81054819D01*
X158695238Y-80388152D02*
X159076190Y-80769104D01*
X160942857Y-55454819D02*
X161276190Y-54978628D01*
X161514285Y-55454819D02*
X161514285Y-54454819D01*
X161514285Y-54454819D02*
X161133333Y-54454819D01*
X161133333Y-54454819D02*
X161038095Y-54502438D01*
X161038095Y-54502438D02*
X160990476Y-54550057D01*
X160990476Y-54550057D02*
X160942857Y-54645295D01*
X160942857Y-54645295D02*
X160942857Y-54788152D01*
X160942857Y-54788152D02*
X160990476Y-54883390D01*
X160990476Y-54883390D02*
X161038095Y-54931009D01*
X161038095Y-54931009D02*
X161133333Y-54978628D01*
X161133333Y-54978628D02*
X161514285Y-54978628D01*
X159990476Y-55454819D02*
X160561904Y-55454819D01*
X160276190Y-55454819D02*
X160276190Y-54454819D01*
X160276190Y-54454819D02*
X160371428Y-54597676D01*
X160371428Y-54597676D02*
X160466666Y-54692914D01*
X160466666Y-54692914D02*
X160561904Y-54740533D01*
X159657142Y-54454819D02*
X158990476Y-54454819D01*
X158990476Y-54454819D02*
X159419047Y-55454819D01*
X160980952Y-55754819D02*
X161457142Y-55754819D01*
X161457142Y-55754819D02*
X161504761Y-56231009D01*
X161504761Y-56231009D02*
X161457142Y-56183390D01*
X161457142Y-56183390D02*
X161361904Y-56135771D01*
X161361904Y-56135771D02*
X161123809Y-56135771D01*
X161123809Y-56135771D02*
X161028571Y-56183390D01*
X161028571Y-56183390D02*
X160980952Y-56231009D01*
X160980952Y-56231009D02*
X160933333Y-56326247D01*
X160933333Y-56326247D02*
X160933333Y-56564342D01*
X160933333Y-56564342D02*
X160980952Y-56659580D01*
X160980952Y-56659580D02*
X161028571Y-56707200D01*
X161028571Y-56707200D02*
X161123809Y-56754819D01*
X161123809Y-56754819D02*
X161361904Y-56754819D01*
X161361904Y-56754819D02*
X161457142Y-56707200D01*
X161457142Y-56707200D02*
X161504761Y-56659580D01*
X160504761Y-56659580D02*
X160457142Y-56707200D01*
X160457142Y-56707200D02*
X160504761Y-56754819D01*
X160504761Y-56754819D02*
X160552380Y-56707200D01*
X160552380Y-56707200D02*
X160504761Y-56659580D01*
X160504761Y-56659580D02*
X160504761Y-56754819D01*
X159504762Y-56754819D02*
X160076190Y-56754819D01*
X159790476Y-56754819D02*
X159790476Y-55754819D01*
X159790476Y-55754819D02*
X159885714Y-55897676D01*
X159885714Y-55897676D02*
X159980952Y-55992914D01*
X159980952Y-55992914D02*
X160076190Y-56040533D01*
X159076190Y-56754819D02*
X159076190Y-55754819D01*
X158980952Y-56373866D02*
X158695238Y-56754819D01*
X158695238Y-56088152D02*
X159076190Y-56469104D01*
X136892857Y-65979819D02*
X137226190Y-65503628D01*
X137464285Y-65979819D02*
X137464285Y-64979819D01*
X137464285Y-64979819D02*
X137083333Y-64979819D01*
X137083333Y-64979819D02*
X136988095Y-65027438D01*
X136988095Y-65027438D02*
X136940476Y-65075057D01*
X136940476Y-65075057D02*
X136892857Y-65170295D01*
X136892857Y-65170295D02*
X136892857Y-65313152D01*
X136892857Y-65313152D02*
X136940476Y-65408390D01*
X136940476Y-65408390D02*
X136988095Y-65456009D01*
X136988095Y-65456009D02*
X137083333Y-65503628D01*
X137083333Y-65503628D02*
X137464285Y-65503628D01*
X136559523Y-64979819D02*
X135892857Y-64979819D01*
X135892857Y-64979819D02*
X136321428Y-65979819D01*
X135083333Y-65313152D02*
X135083333Y-65979819D01*
X135321428Y-64932200D02*
X135559523Y-65646485D01*
X135559523Y-65646485D02*
X134940476Y-65646485D01*
X136440476Y-67279819D02*
X137011904Y-67279819D01*
X136726190Y-67279819D02*
X136726190Y-66279819D01*
X136726190Y-66279819D02*
X136821428Y-66422676D01*
X136821428Y-66422676D02*
X136916666Y-66517914D01*
X136916666Y-66517914D02*
X137011904Y-66565533D01*
X135821428Y-66279819D02*
X135726190Y-66279819D01*
X135726190Y-66279819D02*
X135630952Y-66327438D01*
X135630952Y-66327438D02*
X135583333Y-66375057D01*
X135583333Y-66375057D02*
X135535714Y-66470295D01*
X135535714Y-66470295D02*
X135488095Y-66660771D01*
X135488095Y-66660771D02*
X135488095Y-66898866D01*
X135488095Y-66898866D02*
X135535714Y-67089342D01*
X135535714Y-67089342D02*
X135583333Y-67184580D01*
X135583333Y-67184580D02*
X135630952Y-67232200D01*
X135630952Y-67232200D02*
X135726190Y-67279819D01*
X135726190Y-67279819D02*
X135821428Y-67279819D01*
X135821428Y-67279819D02*
X135916666Y-67232200D01*
X135916666Y-67232200D02*
X135964285Y-67184580D01*
X135964285Y-67184580D02*
X136011904Y-67089342D01*
X136011904Y-67089342D02*
X136059523Y-66898866D01*
X136059523Y-66898866D02*
X136059523Y-66660771D01*
X136059523Y-66660771D02*
X136011904Y-66470295D01*
X136011904Y-66470295D02*
X135964285Y-66375057D01*
X135964285Y-66375057D02*
X135916666Y-66327438D01*
X135916666Y-66327438D02*
X135821428Y-66279819D01*
X169204819Y-80357142D02*
X168728628Y-80023809D01*
X169204819Y-79785714D02*
X168204819Y-79785714D01*
X168204819Y-79785714D02*
X168204819Y-80166666D01*
X168204819Y-80166666D02*
X168252438Y-80261904D01*
X168252438Y-80261904D02*
X168300057Y-80309523D01*
X168300057Y-80309523D02*
X168395295Y-80357142D01*
X168395295Y-80357142D02*
X168538152Y-80357142D01*
X168538152Y-80357142D02*
X168633390Y-80309523D01*
X168633390Y-80309523D02*
X168681009Y-80261904D01*
X168681009Y-80261904D02*
X168728628Y-80166666D01*
X168728628Y-80166666D02*
X168728628Y-79785714D01*
X168204819Y-80690476D02*
X168204819Y-81309523D01*
X168204819Y-81309523D02*
X168585771Y-80976190D01*
X168585771Y-80976190D02*
X168585771Y-81119047D01*
X168585771Y-81119047D02*
X168633390Y-81214285D01*
X168633390Y-81214285D02*
X168681009Y-81261904D01*
X168681009Y-81261904D02*
X168776247Y-81309523D01*
X168776247Y-81309523D02*
X169014342Y-81309523D01*
X169014342Y-81309523D02*
X169109580Y-81261904D01*
X169109580Y-81261904D02*
X169157200Y-81214285D01*
X169157200Y-81214285D02*
X169204819Y-81119047D01*
X169204819Y-81119047D02*
X169204819Y-80833333D01*
X169204819Y-80833333D02*
X169157200Y-80738095D01*
X169157200Y-80738095D02*
X169109580Y-80690476D01*
X168204819Y-82214285D02*
X168204819Y-81738095D01*
X168204819Y-81738095D02*
X168681009Y-81690476D01*
X168681009Y-81690476D02*
X168633390Y-81738095D01*
X168633390Y-81738095D02*
X168585771Y-81833333D01*
X168585771Y-81833333D02*
X168585771Y-82071428D01*
X168585771Y-82071428D02*
X168633390Y-82166666D01*
X168633390Y-82166666D02*
X168681009Y-82214285D01*
X168681009Y-82214285D02*
X168776247Y-82261904D01*
X168776247Y-82261904D02*
X169014342Y-82261904D01*
X169014342Y-82261904D02*
X169109580Y-82214285D01*
X169109580Y-82214285D02*
X169157200Y-82166666D01*
X169157200Y-82166666D02*
X169204819Y-82071428D01*
X169204819Y-82071428D02*
X169204819Y-81833333D01*
X169204819Y-81833333D02*
X169157200Y-81738095D01*
X169157200Y-81738095D02*
X169109580Y-81690476D01*
X170654819Y-80404761D02*
X170654819Y-79833333D01*
X170654819Y-80119047D02*
X169654819Y-80119047D01*
X169654819Y-80119047D02*
X169797676Y-80023809D01*
X169797676Y-80023809D02*
X169892914Y-79928571D01*
X169892914Y-79928571D02*
X169940533Y-79833333D01*
X169654819Y-81023809D02*
X169654819Y-81119047D01*
X169654819Y-81119047D02*
X169702438Y-81214285D01*
X169702438Y-81214285D02*
X169750057Y-81261904D01*
X169750057Y-81261904D02*
X169845295Y-81309523D01*
X169845295Y-81309523D02*
X170035771Y-81357142D01*
X170035771Y-81357142D02*
X170273866Y-81357142D01*
X170273866Y-81357142D02*
X170464342Y-81309523D01*
X170464342Y-81309523D02*
X170559580Y-81261904D01*
X170559580Y-81261904D02*
X170607200Y-81214285D01*
X170607200Y-81214285D02*
X170654819Y-81119047D01*
X170654819Y-81119047D02*
X170654819Y-81023809D01*
X170654819Y-81023809D02*
X170607200Y-80928571D01*
X170607200Y-80928571D02*
X170559580Y-80880952D01*
X170559580Y-80880952D02*
X170464342Y-80833333D01*
X170464342Y-80833333D02*
X170273866Y-80785714D01*
X170273866Y-80785714D02*
X170035771Y-80785714D01*
X170035771Y-80785714D02*
X169845295Y-80833333D01*
X169845295Y-80833333D02*
X169750057Y-80880952D01*
X169750057Y-80880952D02*
X169702438Y-80928571D01*
X169702438Y-80928571D02*
X169654819Y-81023809D01*
X170654819Y-81785714D02*
X169654819Y-81785714D01*
X170273866Y-81880952D02*
X170654819Y-82166666D01*
X169988152Y-82166666D02*
X170369104Y-81785714D01*
X169204819Y-72257142D02*
X168728628Y-71923809D01*
X169204819Y-71685714D02*
X168204819Y-71685714D01*
X168204819Y-71685714D02*
X168204819Y-72066666D01*
X168204819Y-72066666D02*
X168252438Y-72161904D01*
X168252438Y-72161904D02*
X168300057Y-72209523D01*
X168300057Y-72209523D02*
X168395295Y-72257142D01*
X168395295Y-72257142D02*
X168538152Y-72257142D01*
X168538152Y-72257142D02*
X168633390Y-72209523D01*
X168633390Y-72209523D02*
X168681009Y-72161904D01*
X168681009Y-72161904D02*
X168728628Y-72066666D01*
X168728628Y-72066666D02*
X168728628Y-71685714D01*
X168204819Y-72590476D02*
X168204819Y-73209523D01*
X168204819Y-73209523D02*
X168585771Y-72876190D01*
X168585771Y-72876190D02*
X168585771Y-73019047D01*
X168585771Y-73019047D02*
X168633390Y-73114285D01*
X168633390Y-73114285D02*
X168681009Y-73161904D01*
X168681009Y-73161904D02*
X168776247Y-73209523D01*
X168776247Y-73209523D02*
X169014342Y-73209523D01*
X169014342Y-73209523D02*
X169109580Y-73161904D01*
X169109580Y-73161904D02*
X169157200Y-73114285D01*
X169157200Y-73114285D02*
X169204819Y-73019047D01*
X169204819Y-73019047D02*
X169204819Y-72733333D01*
X169204819Y-72733333D02*
X169157200Y-72638095D01*
X169157200Y-72638095D02*
X169109580Y-72590476D01*
X168538152Y-74066666D02*
X169204819Y-74066666D01*
X168157200Y-73828571D02*
X168871485Y-73590476D01*
X168871485Y-73590476D02*
X168871485Y-74209523D01*
X170654819Y-72304761D02*
X170654819Y-71733333D01*
X170654819Y-72019047D02*
X169654819Y-72019047D01*
X169654819Y-72019047D02*
X169797676Y-71923809D01*
X169797676Y-71923809D02*
X169892914Y-71828571D01*
X169892914Y-71828571D02*
X169940533Y-71733333D01*
X169654819Y-72923809D02*
X169654819Y-73019047D01*
X169654819Y-73019047D02*
X169702438Y-73114285D01*
X169702438Y-73114285D02*
X169750057Y-73161904D01*
X169750057Y-73161904D02*
X169845295Y-73209523D01*
X169845295Y-73209523D02*
X170035771Y-73257142D01*
X170035771Y-73257142D02*
X170273866Y-73257142D01*
X170273866Y-73257142D02*
X170464342Y-73209523D01*
X170464342Y-73209523D02*
X170559580Y-73161904D01*
X170559580Y-73161904D02*
X170607200Y-73114285D01*
X170607200Y-73114285D02*
X170654819Y-73019047D01*
X170654819Y-73019047D02*
X170654819Y-72923809D01*
X170654819Y-72923809D02*
X170607200Y-72828571D01*
X170607200Y-72828571D02*
X170559580Y-72780952D01*
X170559580Y-72780952D02*
X170464342Y-72733333D01*
X170464342Y-72733333D02*
X170273866Y-72685714D01*
X170273866Y-72685714D02*
X170035771Y-72685714D01*
X170035771Y-72685714D02*
X169845295Y-72733333D01*
X169845295Y-72733333D02*
X169750057Y-72780952D01*
X169750057Y-72780952D02*
X169702438Y-72828571D01*
X169702438Y-72828571D02*
X169654819Y-72923809D01*
X170654819Y-73685714D02*
X169654819Y-73685714D01*
X170273866Y-73780952D02*
X170654819Y-74066666D01*
X169988152Y-74066666D02*
X170369104Y-73685714D01*
X172604819Y-59857142D02*
X172128628Y-59523809D01*
X172604819Y-59285714D02*
X171604819Y-59285714D01*
X171604819Y-59285714D02*
X171604819Y-59666666D01*
X171604819Y-59666666D02*
X171652438Y-59761904D01*
X171652438Y-59761904D02*
X171700057Y-59809523D01*
X171700057Y-59809523D02*
X171795295Y-59857142D01*
X171795295Y-59857142D02*
X171938152Y-59857142D01*
X171938152Y-59857142D02*
X172033390Y-59809523D01*
X172033390Y-59809523D02*
X172081009Y-59761904D01*
X172081009Y-59761904D02*
X172128628Y-59666666D01*
X172128628Y-59666666D02*
X172128628Y-59285714D01*
X171700057Y-60238095D02*
X171652438Y-60285714D01*
X171652438Y-60285714D02*
X171604819Y-60380952D01*
X171604819Y-60380952D02*
X171604819Y-60619047D01*
X171604819Y-60619047D02*
X171652438Y-60714285D01*
X171652438Y-60714285D02*
X171700057Y-60761904D01*
X171700057Y-60761904D02*
X171795295Y-60809523D01*
X171795295Y-60809523D02*
X171890533Y-60809523D01*
X171890533Y-60809523D02*
X172033390Y-60761904D01*
X172033390Y-60761904D02*
X172604819Y-60190476D01*
X172604819Y-60190476D02*
X172604819Y-60809523D01*
X171604819Y-61428571D02*
X171604819Y-61523809D01*
X171604819Y-61523809D02*
X171652438Y-61619047D01*
X171652438Y-61619047D02*
X171700057Y-61666666D01*
X171700057Y-61666666D02*
X171795295Y-61714285D01*
X171795295Y-61714285D02*
X171985771Y-61761904D01*
X171985771Y-61761904D02*
X172223866Y-61761904D01*
X172223866Y-61761904D02*
X172414342Y-61714285D01*
X172414342Y-61714285D02*
X172509580Y-61666666D01*
X172509580Y-61666666D02*
X172557200Y-61619047D01*
X172557200Y-61619047D02*
X172604819Y-61523809D01*
X172604819Y-61523809D02*
X172604819Y-61428571D01*
X172604819Y-61428571D02*
X172557200Y-61333333D01*
X172557200Y-61333333D02*
X172509580Y-61285714D01*
X172509580Y-61285714D02*
X172414342Y-61238095D01*
X172414342Y-61238095D02*
X172223866Y-61190476D01*
X172223866Y-61190476D02*
X171985771Y-61190476D01*
X171985771Y-61190476D02*
X171795295Y-61238095D01*
X171795295Y-61238095D02*
X171700057Y-61285714D01*
X171700057Y-61285714D02*
X171652438Y-61333333D01*
X171652438Y-61333333D02*
X171604819Y-61428571D01*
X172954819Y-59785714D02*
X172954819Y-59309524D01*
X172954819Y-59309524D02*
X173431009Y-59261905D01*
X173431009Y-59261905D02*
X173383390Y-59309524D01*
X173383390Y-59309524D02*
X173335771Y-59404762D01*
X173335771Y-59404762D02*
X173335771Y-59642857D01*
X173335771Y-59642857D02*
X173383390Y-59738095D01*
X173383390Y-59738095D02*
X173431009Y-59785714D01*
X173431009Y-59785714D02*
X173526247Y-59833333D01*
X173526247Y-59833333D02*
X173764342Y-59833333D01*
X173764342Y-59833333D02*
X173859580Y-59785714D01*
X173859580Y-59785714D02*
X173907200Y-59738095D01*
X173907200Y-59738095D02*
X173954819Y-59642857D01*
X173954819Y-59642857D02*
X173954819Y-59404762D01*
X173954819Y-59404762D02*
X173907200Y-59309524D01*
X173907200Y-59309524D02*
X173859580Y-59261905D01*
X173954819Y-60785714D02*
X173954819Y-60214286D01*
X173954819Y-60500000D02*
X172954819Y-60500000D01*
X172954819Y-60500000D02*
X173097676Y-60404762D01*
X173097676Y-60404762D02*
X173192914Y-60309524D01*
X173192914Y-60309524D02*
X173240533Y-60214286D01*
X172954819Y-61404762D02*
X172954819Y-61500000D01*
X172954819Y-61500000D02*
X173002438Y-61595238D01*
X173002438Y-61595238D02*
X173050057Y-61642857D01*
X173050057Y-61642857D02*
X173145295Y-61690476D01*
X173145295Y-61690476D02*
X173335771Y-61738095D01*
X173335771Y-61738095D02*
X173573866Y-61738095D01*
X173573866Y-61738095D02*
X173764342Y-61690476D01*
X173764342Y-61690476D02*
X173859580Y-61642857D01*
X173859580Y-61642857D02*
X173907200Y-61595238D01*
X173907200Y-61595238D02*
X173954819Y-61500000D01*
X173954819Y-61500000D02*
X173954819Y-61404762D01*
X173954819Y-61404762D02*
X173907200Y-61309524D01*
X173907200Y-61309524D02*
X173859580Y-61261905D01*
X173859580Y-61261905D02*
X173764342Y-61214286D01*
X173764342Y-61214286D02*
X173573866Y-61166667D01*
X173573866Y-61166667D02*
X173335771Y-61166667D01*
X173335771Y-61166667D02*
X173145295Y-61214286D01*
X173145295Y-61214286D02*
X173050057Y-61261905D01*
X173050057Y-61261905D02*
X173002438Y-61309524D01*
X173002438Y-61309524D02*
X172954819Y-61404762D01*
X169204819Y-64257142D02*
X168728628Y-63923809D01*
X169204819Y-63685714D02*
X168204819Y-63685714D01*
X168204819Y-63685714D02*
X168204819Y-64066666D01*
X168204819Y-64066666D02*
X168252438Y-64161904D01*
X168252438Y-64161904D02*
X168300057Y-64209523D01*
X168300057Y-64209523D02*
X168395295Y-64257142D01*
X168395295Y-64257142D02*
X168538152Y-64257142D01*
X168538152Y-64257142D02*
X168633390Y-64209523D01*
X168633390Y-64209523D02*
X168681009Y-64161904D01*
X168681009Y-64161904D02*
X168728628Y-64066666D01*
X168728628Y-64066666D02*
X168728628Y-63685714D01*
X169204819Y-65209523D02*
X169204819Y-64638095D01*
X169204819Y-64923809D02*
X168204819Y-64923809D01*
X168204819Y-64923809D02*
X168347676Y-64828571D01*
X168347676Y-64828571D02*
X168442914Y-64733333D01*
X168442914Y-64733333D02*
X168490533Y-64638095D01*
X168204819Y-66114285D02*
X168204819Y-65638095D01*
X168204819Y-65638095D02*
X168681009Y-65590476D01*
X168681009Y-65590476D02*
X168633390Y-65638095D01*
X168633390Y-65638095D02*
X168585771Y-65733333D01*
X168585771Y-65733333D02*
X168585771Y-65971428D01*
X168585771Y-65971428D02*
X168633390Y-66066666D01*
X168633390Y-66066666D02*
X168681009Y-66114285D01*
X168681009Y-66114285D02*
X168776247Y-66161904D01*
X168776247Y-66161904D02*
X169014342Y-66161904D01*
X169014342Y-66161904D02*
X169109580Y-66114285D01*
X169109580Y-66114285D02*
X169157200Y-66066666D01*
X169157200Y-66066666D02*
X169204819Y-65971428D01*
X169204819Y-65971428D02*
X169204819Y-65733333D01*
X169204819Y-65733333D02*
X169157200Y-65638095D01*
X169157200Y-65638095D02*
X169109580Y-65590476D01*
X170654819Y-64304761D02*
X170654819Y-63733333D01*
X170654819Y-64019047D02*
X169654819Y-64019047D01*
X169654819Y-64019047D02*
X169797676Y-63923809D01*
X169797676Y-63923809D02*
X169892914Y-63828571D01*
X169892914Y-63828571D02*
X169940533Y-63733333D01*
X169654819Y-64923809D02*
X169654819Y-65019047D01*
X169654819Y-65019047D02*
X169702438Y-65114285D01*
X169702438Y-65114285D02*
X169750057Y-65161904D01*
X169750057Y-65161904D02*
X169845295Y-65209523D01*
X169845295Y-65209523D02*
X170035771Y-65257142D01*
X170035771Y-65257142D02*
X170273866Y-65257142D01*
X170273866Y-65257142D02*
X170464342Y-65209523D01*
X170464342Y-65209523D02*
X170559580Y-65161904D01*
X170559580Y-65161904D02*
X170607200Y-65114285D01*
X170607200Y-65114285D02*
X170654819Y-65019047D01*
X170654819Y-65019047D02*
X170654819Y-64923809D01*
X170654819Y-64923809D02*
X170607200Y-64828571D01*
X170607200Y-64828571D02*
X170559580Y-64780952D01*
X170559580Y-64780952D02*
X170464342Y-64733333D01*
X170464342Y-64733333D02*
X170273866Y-64685714D01*
X170273866Y-64685714D02*
X170035771Y-64685714D01*
X170035771Y-64685714D02*
X169845295Y-64733333D01*
X169845295Y-64733333D02*
X169750057Y-64780952D01*
X169750057Y-64780952D02*
X169702438Y-64828571D01*
X169702438Y-64828571D02*
X169654819Y-64923809D01*
X170654819Y-65685714D02*
X169654819Y-65685714D01*
X170273866Y-65780952D02*
X170654819Y-66066666D01*
X169988152Y-66066666D02*
X170369104Y-65685714D01*
X169204819Y-88457142D02*
X168728628Y-88123809D01*
X169204819Y-87885714D02*
X168204819Y-87885714D01*
X168204819Y-87885714D02*
X168204819Y-88266666D01*
X168204819Y-88266666D02*
X168252438Y-88361904D01*
X168252438Y-88361904D02*
X168300057Y-88409523D01*
X168300057Y-88409523D02*
X168395295Y-88457142D01*
X168395295Y-88457142D02*
X168538152Y-88457142D01*
X168538152Y-88457142D02*
X168633390Y-88409523D01*
X168633390Y-88409523D02*
X168681009Y-88361904D01*
X168681009Y-88361904D02*
X168728628Y-88266666D01*
X168728628Y-88266666D02*
X168728628Y-87885714D01*
X168204819Y-88790476D02*
X168204819Y-89409523D01*
X168204819Y-89409523D02*
X168585771Y-89076190D01*
X168585771Y-89076190D02*
X168585771Y-89219047D01*
X168585771Y-89219047D02*
X168633390Y-89314285D01*
X168633390Y-89314285D02*
X168681009Y-89361904D01*
X168681009Y-89361904D02*
X168776247Y-89409523D01*
X168776247Y-89409523D02*
X169014342Y-89409523D01*
X169014342Y-89409523D02*
X169109580Y-89361904D01*
X169109580Y-89361904D02*
X169157200Y-89314285D01*
X169157200Y-89314285D02*
X169204819Y-89219047D01*
X169204819Y-89219047D02*
X169204819Y-88933333D01*
X169204819Y-88933333D02*
X169157200Y-88838095D01*
X169157200Y-88838095D02*
X169109580Y-88790476D01*
X168204819Y-90266666D02*
X168204819Y-90076190D01*
X168204819Y-90076190D02*
X168252438Y-89980952D01*
X168252438Y-89980952D02*
X168300057Y-89933333D01*
X168300057Y-89933333D02*
X168442914Y-89838095D01*
X168442914Y-89838095D02*
X168633390Y-89790476D01*
X168633390Y-89790476D02*
X169014342Y-89790476D01*
X169014342Y-89790476D02*
X169109580Y-89838095D01*
X169109580Y-89838095D02*
X169157200Y-89885714D01*
X169157200Y-89885714D02*
X169204819Y-89980952D01*
X169204819Y-89980952D02*
X169204819Y-90171428D01*
X169204819Y-90171428D02*
X169157200Y-90266666D01*
X169157200Y-90266666D02*
X169109580Y-90314285D01*
X169109580Y-90314285D02*
X169014342Y-90361904D01*
X169014342Y-90361904D02*
X168776247Y-90361904D01*
X168776247Y-90361904D02*
X168681009Y-90314285D01*
X168681009Y-90314285D02*
X168633390Y-90266666D01*
X168633390Y-90266666D02*
X168585771Y-90171428D01*
X168585771Y-90171428D02*
X168585771Y-89980952D01*
X168585771Y-89980952D02*
X168633390Y-89885714D01*
X168633390Y-89885714D02*
X168681009Y-89838095D01*
X168681009Y-89838095D02*
X168776247Y-89790476D01*
X170554819Y-88504761D02*
X170554819Y-87933333D01*
X170554819Y-88219047D02*
X169554819Y-88219047D01*
X169554819Y-88219047D02*
X169697676Y-88123809D01*
X169697676Y-88123809D02*
X169792914Y-88028571D01*
X169792914Y-88028571D02*
X169840533Y-87933333D01*
X169554819Y-89123809D02*
X169554819Y-89219047D01*
X169554819Y-89219047D02*
X169602438Y-89314285D01*
X169602438Y-89314285D02*
X169650057Y-89361904D01*
X169650057Y-89361904D02*
X169745295Y-89409523D01*
X169745295Y-89409523D02*
X169935771Y-89457142D01*
X169935771Y-89457142D02*
X170173866Y-89457142D01*
X170173866Y-89457142D02*
X170364342Y-89409523D01*
X170364342Y-89409523D02*
X170459580Y-89361904D01*
X170459580Y-89361904D02*
X170507200Y-89314285D01*
X170507200Y-89314285D02*
X170554819Y-89219047D01*
X170554819Y-89219047D02*
X170554819Y-89123809D01*
X170554819Y-89123809D02*
X170507200Y-89028571D01*
X170507200Y-89028571D02*
X170459580Y-88980952D01*
X170459580Y-88980952D02*
X170364342Y-88933333D01*
X170364342Y-88933333D02*
X170173866Y-88885714D01*
X170173866Y-88885714D02*
X169935771Y-88885714D01*
X169935771Y-88885714D02*
X169745295Y-88933333D01*
X169745295Y-88933333D02*
X169650057Y-88980952D01*
X169650057Y-88980952D02*
X169602438Y-89028571D01*
X169602438Y-89028571D02*
X169554819Y-89123809D01*
X170554819Y-89885714D02*
X169554819Y-89885714D01*
X170173866Y-89980952D02*
X170554819Y-90266666D01*
X169888152Y-90266666D02*
X170269104Y-89885714D01*
X170242857Y-56054819D02*
X170576190Y-55578628D01*
X170814285Y-56054819D02*
X170814285Y-55054819D01*
X170814285Y-55054819D02*
X170433333Y-55054819D01*
X170433333Y-55054819D02*
X170338095Y-55102438D01*
X170338095Y-55102438D02*
X170290476Y-55150057D01*
X170290476Y-55150057D02*
X170242857Y-55245295D01*
X170242857Y-55245295D02*
X170242857Y-55388152D01*
X170242857Y-55388152D02*
X170290476Y-55483390D01*
X170290476Y-55483390D02*
X170338095Y-55531009D01*
X170338095Y-55531009D02*
X170433333Y-55578628D01*
X170433333Y-55578628D02*
X170814285Y-55578628D01*
X169290476Y-56054819D02*
X169861904Y-56054819D01*
X169576190Y-56054819D02*
X169576190Y-55054819D01*
X169576190Y-55054819D02*
X169671428Y-55197676D01*
X169671428Y-55197676D02*
X169766666Y-55292914D01*
X169766666Y-55292914D02*
X169861904Y-55340533D01*
X168433333Y-55388152D02*
X168433333Y-56054819D01*
X168671428Y-55007200D02*
X168909523Y-55721485D01*
X168909523Y-55721485D02*
X168290476Y-55721485D01*
X170195238Y-57454819D02*
X170766666Y-57454819D01*
X170480952Y-57454819D02*
X170480952Y-56454819D01*
X170480952Y-56454819D02*
X170576190Y-56597676D01*
X170576190Y-56597676D02*
X170671428Y-56692914D01*
X170671428Y-56692914D02*
X170766666Y-56740533D01*
X169576190Y-56454819D02*
X169480952Y-56454819D01*
X169480952Y-56454819D02*
X169385714Y-56502438D01*
X169385714Y-56502438D02*
X169338095Y-56550057D01*
X169338095Y-56550057D02*
X169290476Y-56645295D01*
X169290476Y-56645295D02*
X169242857Y-56835771D01*
X169242857Y-56835771D02*
X169242857Y-57073866D01*
X169242857Y-57073866D02*
X169290476Y-57264342D01*
X169290476Y-57264342D02*
X169338095Y-57359580D01*
X169338095Y-57359580D02*
X169385714Y-57407200D01*
X169385714Y-57407200D02*
X169480952Y-57454819D01*
X169480952Y-57454819D02*
X169576190Y-57454819D01*
X169576190Y-57454819D02*
X169671428Y-57407200D01*
X169671428Y-57407200D02*
X169719047Y-57359580D01*
X169719047Y-57359580D02*
X169766666Y-57264342D01*
X169766666Y-57264342D02*
X169814285Y-57073866D01*
X169814285Y-57073866D02*
X169814285Y-56835771D01*
X169814285Y-56835771D02*
X169766666Y-56645295D01*
X169766666Y-56645295D02*
X169719047Y-56550057D01*
X169719047Y-56550057D02*
X169671428Y-56502438D01*
X169671428Y-56502438D02*
X169576190Y-56454819D01*
X168814285Y-57454819D02*
X168814285Y-56454819D01*
X168719047Y-57073866D02*
X168433333Y-57454819D01*
X168433333Y-56788152D02*
X168814285Y-57169104D01*
X172704819Y-75857142D02*
X172228628Y-75523809D01*
X172704819Y-75285714D02*
X171704819Y-75285714D01*
X171704819Y-75285714D02*
X171704819Y-75666666D01*
X171704819Y-75666666D02*
X171752438Y-75761904D01*
X171752438Y-75761904D02*
X171800057Y-75809523D01*
X171800057Y-75809523D02*
X171895295Y-75857142D01*
X171895295Y-75857142D02*
X172038152Y-75857142D01*
X172038152Y-75857142D02*
X172133390Y-75809523D01*
X172133390Y-75809523D02*
X172181009Y-75761904D01*
X172181009Y-75761904D02*
X172228628Y-75666666D01*
X172228628Y-75666666D02*
X172228628Y-75285714D01*
X172038152Y-76714285D02*
X172704819Y-76714285D01*
X171657200Y-76476190D02*
X172371485Y-76238095D01*
X172371485Y-76238095D02*
X172371485Y-76857142D01*
X171704819Y-77428571D02*
X171704819Y-77523809D01*
X171704819Y-77523809D02*
X171752438Y-77619047D01*
X171752438Y-77619047D02*
X171800057Y-77666666D01*
X171800057Y-77666666D02*
X171895295Y-77714285D01*
X171895295Y-77714285D02*
X172085771Y-77761904D01*
X172085771Y-77761904D02*
X172323866Y-77761904D01*
X172323866Y-77761904D02*
X172514342Y-77714285D01*
X172514342Y-77714285D02*
X172609580Y-77666666D01*
X172609580Y-77666666D02*
X172657200Y-77619047D01*
X172657200Y-77619047D02*
X172704819Y-77523809D01*
X172704819Y-77523809D02*
X172704819Y-77428571D01*
X172704819Y-77428571D02*
X172657200Y-77333333D01*
X172657200Y-77333333D02*
X172609580Y-77285714D01*
X172609580Y-77285714D02*
X172514342Y-77238095D01*
X172514342Y-77238095D02*
X172323866Y-77190476D01*
X172323866Y-77190476D02*
X172085771Y-77190476D01*
X172085771Y-77190476D02*
X171895295Y-77238095D01*
X171895295Y-77238095D02*
X171800057Y-77285714D01*
X171800057Y-77285714D02*
X171752438Y-77333333D01*
X171752438Y-77333333D02*
X171704819Y-77428571D01*
X173054819Y-75785714D02*
X173054819Y-75309524D01*
X173054819Y-75309524D02*
X173531009Y-75261905D01*
X173531009Y-75261905D02*
X173483390Y-75309524D01*
X173483390Y-75309524D02*
X173435771Y-75404762D01*
X173435771Y-75404762D02*
X173435771Y-75642857D01*
X173435771Y-75642857D02*
X173483390Y-75738095D01*
X173483390Y-75738095D02*
X173531009Y-75785714D01*
X173531009Y-75785714D02*
X173626247Y-75833333D01*
X173626247Y-75833333D02*
X173864342Y-75833333D01*
X173864342Y-75833333D02*
X173959580Y-75785714D01*
X173959580Y-75785714D02*
X174007200Y-75738095D01*
X174007200Y-75738095D02*
X174054819Y-75642857D01*
X174054819Y-75642857D02*
X174054819Y-75404762D01*
X174054819Y-75404762D02*
X174007200Y-75309524D01*
X174007200Y-75309524D02*
X173959580Y-75261905D01*
X174054819Y-76785714D02*
X174054819Y-76214286D01*
X174054819Y-76500000D02*
X173054819Y-76500000D01*
X173054819Y-76500000D02*
X173197676Y-76404762D01*
X173197676Y-76404762D02*
X173292914Y-76309524D01*
X173292914Y-76309524D02*
X173340533Y-76214286D01*
X173054819Y-77404762D02*
X173054819Y-77500000D01*
X173054819Y-77500000D02*
X173102438Y-77595238D01*
X173102438Y-77595238D02*
X173150057Y-77642857D01*
X173150057Y-77642857D02*
X173245295Y-77690476D01*
X173245295Y-77690476D02*
X173435771Y-77738095D01*
X173435771Y-77738095D02*
X173673866Y-77738095D01*
X173673866Y-77738095D02*
X173864342Y-77690476D01*
X173864342Y-77690476D02*
X173959580Y-77642857D01*
X173959580Y-77642857D02*
X174007200Y-77595238D01*
X174007200Y-77595238D02*
X174054819Y-77500000D01*
X174054819Y-77500000D02*
X174054819Y-77404762D01*
X174054819Y-77404762D02*
X174007200Y-77309524D01*
X174007200Y-77309524D02*
X173959580Y-77261905D01*
X173959580Y-77261905D02*
X173864342Y-77214286D01*
X173864342Y-77214286D02*
X173673866Y-77166667D01*
X173673866Y-77166667D02*
X173435771Y-77166667D01*
X173435771Y-77166667D02*
X173245295Y-77214286D01*
X173245295Y-77214286D02*
X173150057Y-77261905D01*
X173150057Y-77261905D02*
X173102438Y-77309524D01*
X173102438Y-77309524D02*
X173054819Y-77404762D01*
X161166666Y-50954819D02*
X161499999Y-50478628D01*
X161738094Y-50954819D02*
X161738094Y-49954819D01*
X161738094Y-49954819D02*
X161357142Y-49954819D01*
X161357142Y-49954819D02*
X161261904Y-50002438D01*
X161261904Y-50002438D02*
X161214285Y-50050057D01*
X161214285Y-50050057D02*
X161166666Y-50145295D01*
X161166666Y-50145295D02*
X161166666Y-50288152D01*
X161166666Y-50288152D02*
X161214285Y-50383390D01*
X161214285Y-50383390D02*
X161261904Y-50431009D01*
X161261904Y-50431009D02*
X161357142Y-50478628D01*
X161357142Y-50478628D02*
X161738094Y-50478628D01*
X160833332Y-49954819D02*
X160166666Y-49954819D01*
X160166666Y-49954819D02*
X160595237Y-50954819D01*
X161233333Y-52254819D02*
X161804761Y-52254819D01*
X161519047Y-52254819D02*
X161519047Y-51254819D01*
X161519047Y-51254819D02*
X161614285Y-51397676D01*
X161614285Y-51397676D02*
X161709523Y-51492914D01*
X161709523Y-51492914D02*
X161804761Y-51540533D01*
X160804761Y-52159580D02*
X160757142Y-52207200D01*
X160757142Y-52207200D02*
X160804761Y-52254819D01*
X160804761Y-52254819D02*
X160852380Y-52207200D01*
X160852380Y-52207200D02*
X160804761Y-52159580D01*
X160804761Y-52159580D02*
X160804761Y-52254819D01*
X160376190Y-51350057D02*
X160328571Y-51302438D01*
X160328571Y-51302438D02*
X160233333Y-51254819D01*
X160233333Y-51254819D02*
X159995238Y-51254819D01*
X159995238Y-51254819D02*
X159900000Y-51302438D01*
X159900000Y-51302438D02*
X159852381Y-51350057D01*
X159852381Y-51350057D02*
X159804762Y-51445295D01*
X159804762Y-51445295D02*
X159804762Y-51540533D01*
X159804762Y-51540533D02*
X159852381Y-51683390D01*
X159852381Y-51683390D02*
X160423809Y-52254819D01*
X160423809Y-52254819D02*
X159804762Y-52254819D01*
X159376190Y-52254819D02*
X159376190Y-51254819D01*
X159280952Y-51873866D02*
X158995238Y-52254819D01*
X158995238Y-51588152D02*
X159376190Y-51969104D01*
X160866666Y-59254819D02*
X161199999Y-58778628D01*
X161438094Y-59254819D02*
X161438094Y-58254819D01*
X161438094Y-58254819D02*
X161057142Y-58254819D01*
X161057142Y-58254819D02*
X160961904Y-58302438D01*
X160961904Y-58302438D02*
X160914285Y-58350057D01*
X160914285Y-58350057D02*
X160866666Y-58445295D01*
X160866666Y-58445295D02*
X160866666Y-58588152D01*
X160866666Y-58588152D02*
X160914285Y-58683390D01*
X160914285Y-58683390D02*
X160961904Y-58731009D01*
X160961904Y-58731009D02*
X161057142Y-58778628D01*
X161057142Y-58778628D02*
X161438094Y-58778628D01*
X160295237Y-58683390D02*
X160390475Y-58635771D01*
X160390475Y-58635771D02*
X160438094Y-58588152D01*
X160438094Y-58588152D02*
X160485713Y-58492914D01*
X160485713Y-58492914D02*
X160485713Y-58445295D01*
X160485713Y-58445295D02*
X160438094Y-58350057D01*
X160438094Y-58350057D02*
X160390475Y-58302438D01*
X160390475Y-58302438D02*
X160295237Y-58254819D01*
X160295237Y-58254819D02*
X160104761Y-58254819D01*
X160104761Y-58254819D02*
X160009523Y-58302438D01*
X160009523Y-58302438D02*
X159961904Y-58350057D01*
X159961904Y-58350057D02*
X159914285Y-58445295D01*
X159914285Y-58445295D02*
X159914285Y-58492914D01*
X159914285Y-58492914D02*
X159961904Y-58588152D01*
X159961904Y-58588152D02*
X160009523Y-58635771D01*
X160009523Y-58635771D02*
X160104761Y-58683390D01*
X160104761Y-58683390D02*
X160295237Y-58683390D01*
X160295237Y-58683390D02*
X160390475Y-58731009D01*
X160390475Y-58731009D02*
X160438094Y-58778628D01*
X160438094Y-58778628D02*
X160485713Y-58873866D01*
X160485713Y-58873866D02*
X160485713Y-59064342D01*
X160485713Y-59064342D02*
X160438094Y-59159580D01*
X160438094Y-59159580D02*
X160390475Y-59207200D01*
X160390475Y-59207200D02*
X160295237Y-59254819D01*
X160295237Y-59254819D02*
X160104761Y-59254819D01*
X160104761Y-59254819D02*
X160009523Y-59207200D01*
X160009523Y-59207200D02*
X159961904Y-59159580D01*
X159961904Y-59159580D02*
X159914285Y-59064342D01*
X159914285Y-59064342D02*
X159914285Y-58873866D01*
X159914285Y-58873866D02*
X159961904Y-58778628D01*
X159961904Y-58778628D02*
X160009523Y-58731009D01*
X160009523Y-58731009D02*
X160104761Y-58683390D01*
X160933333Y-60554819D02*
X161504761Y-60554819D01*
X161219047Y-60554819D02*
X161219047Y-59554819D01*
X161219047Y-59554819D02*
X161314285Y-59697676D01*
X161314285Y-59697676D02*
X161409523Y-59792914D01*
X161409523Y-59792914D02*
X161504761Y-59840533D01*
X160504761Y-60459580D02*
X160457142Y-60507200D01*
X160457142Y-60507200D02*
X160504761Y-60554819D01*
X160504761Y-60554819D02*
X160552380Y-60507200D01*
X160552380Y-60507200D02*
X160504761Y-60459580D01*
X160504761Y-60459580D02*
X160504761Y-60554819D01*
X160076190Y-59650057D02*
X160028571Y-59602438D01*
X160028571Y-59602438D02*
X159933333Y-59554819D01*
X159933333Y-59554819D02*
X159695238Y-59554819D01*
X159695238Y-59554819D02*
X159600000Y-59602438D01*
X159600000Y-59602438D02*
X159552381Y-59650057D01*
X159552381Y-59650057D02*
X159504762Y-59745295D01*
X159504762Y-59745295D02*
X159504762Y-59840533D01*
X159504762Y-59840533D02*
X159552381Y-59983390D01*
X159552381Y-59983390D02*
X160123809Y-60554819D01*
X160123809Y-60554819D02*
X159504762Y-60554819D01*
X159076190Y-60554819D02*
X159076190Y-59554819D01*
X158980952Y-60173866D02*
X158695238Y-60554819D01*
X158695238Y-59888152D02*
X159076190Y-60269104D01*
X160966666Y-67354819D02*
X161299999Y-66878628D01*
X161538094Y-67354819D02*
X161538094Y-66354819D01*
X161538094Y-66354819D02*
X161157142Y-66354819D01*
X161157142Y-66354819D02*
X161061904Y-66402438D01*
X161061904Y-66402438D02*
X161014285Y-66450057D01*
X161014285Y-66450057D02*
X160966666Y-66545295D01*
X160966666Y-66545295D02*
X160966666Y-66688152D01*
X160966666Y-66688152D02*
X161014285Y-66783390D01*
X161014285Y-66783390D02*
X161061904Y-66831009D01*
X161061904Y-66831009D02*
X161157142Y-66878628D01*
X161157142Y-66878628D02*
X161538094Y-66878628D01*
X160490475Y-67354819D02*
X160299999Y-67354819D01*
X160299999Y-67354819D02*
X160204761Y-67307200D01*
X160204761Y-67307200D02*
X160157142Y-67259580D01*
X160157142Y-67259580D02*
X160061904Y-67116723D01*
X160061904Y-67116723D02*
X160014285Y-66926247D01*
X160014285Y-66926247D02*
X160014285Y-66545295D01*
X160014285Y-66545295D02*
X160061904Y-66450057D01*
X160061904Y-66450057D02*
X160109523Y-66402438D01*
X160109523Y-66402438D02*
X160204761Y-66354819D01*
X160204761Y-66354819D02*
X160395237Y-66354819D01*
X160395237Y-66354819D02*
X160490475Y-66402438D01*
X160490475Y-66402438D02*
X160538094Y-66450057D01*
X160538094Y-66450057D02*
X160585713Y-66545295D01*
X160585713Y-66545295D02*
X160585713Y-66783390D01*
X160585713Y-66783390D02*
X160538094Y-66878628D01*
X160538094Y-66878628D02*
X160490475Y-66926247D01*
X160490475Y-66926247D02*
X160395237Y-66973866D01*
X160395237Y-66973866D02*
X160204761Y-66973866D01*
X160204761Y-66973866D02*
X160109523Y-66926247D01*
X160109523Y-66926247D02*
X160061904Y-66878628D01*
X160061904Y-66878628D02*
X160014285Y-66783390D01*
X160933333Y-68654819D02*
X161504761Y-68654819D01*
X161219047Y-68654819D02*
X161219047Y-67654819D01*
X161219047Y-67654819D02*
X161314285Y-67797676D01*
X161314285Y-67797676D02*
X161409523Y-67892914D01*
X161409523Y-67892914D02*
X161504761Y-67940533D01*
X160504761Y-68559580D02*
X160457142Y-68607200D01*
X160457142Y-68607200D02*
X160504761Y-68654819D01*
X160504761Y-68654819D02*
X160552380Y-68607200D01*
X160552380Y-68607200D02*
X160504761Y-68559580D01*
X160504761Y-68559580D02*
X160504761Y-68654819D01*
X160076190Y-67750057D02*
X160028571Y-67702438D01*
X160028571Y-67702438D02*
X159933333Y-67654819D01*
X159933333Y-67654819D02*
X159695238Y-67654819D01*
X159695238Y-67654819D02*
X159600000Y-67702438D01*
X159600000Y-67702438D02*
X159552381Y-67750057D01*
X159552381Y-67750057D02*
X159504762Y-67845295D01*
X159504762Y-67845295D02*
X159504762Y-67940533D01*
X159504762Y-67940533D02*
X159552381Y-68083390D01*
X159552381Y-68083390D02*
X160123809Y-68654819D01*
X160123809Y-68654819D02*
X159504762Y-68654819D01*
X159076190Y-68654819D02*
X159076190Y-67654819D01*
X158980952Y-68273866D02*
X158695238Y-68654819D01*
X158695238Y-67988152D02*
X159076190Y-68369104D01*
X117359580Y-70595237D02*
X117407200Y-70547618D01*
X117407200Y-70547618D02*
X117454819Y-70404761D01*
X117454819Y-70404761D02*
X117454819Y-70309523D01*
X117454819Y-70309523D02*
X117407200Y-70166666D01*
X117407200Y-70166666D02*
X117311961Y-70071428D01*
X117311961Y-70071428D02*
X117216723Y-70023809D01*
X117216723Y-70023809D02*
X117026247Y-69976190D01*
X117026247Y-69976190D02*
X116883390Y-69976190D01*
X116883390Y-69976190D02*
X116692914Y-70023809D01*
X116692914Y-70023809D02*
X116597676Y-70071428D01*
X116597676Y-70071428D02*
X116502438Y-70166666D01*
X116502438Y-70166666D02*
X116454819Y-70309523D01*
X116454819Y-70309523D02*
X116454819Y-70404761D01*
X116454819Y-70404761D02*
X116502438Y-70547618D01*
X116502438Y-70547618D02*
X116550057Y-70595237D01*
X117454819Y-71023809D02*
X116454819Y-71023809D01*
X116931009Y-71023809D02*
X116931009Y-71595237D01*
X117454819Y-71595237D02*
X116454819Y-71595237D01*
X117169104Y-72023809D02*
X117169104Y-72499999D01*
X117454819Y-71928571D02*
X116454819Y-72261904D01*
X116454819Y-72261904D02*
X117454819Y-72595237D01*
X117454819Y-73499999D02*
X116978628Y-73166666D01*
X117454819Y-72928571D02*
X116454819Y-72928571D01*
X116454819Y-72928571D02*
X116454819Y-73309523D01*
X116454819Y-73309523D02*
X116502438Y-73404761D01*
X116502438Y-73404761D02*
X116550057Y-73452380D01*
X116550057Y-73452380D02*
X116645295Y-73499999D01*
X116645295Y-73499999D02*
X116788152Y-73499999D01*
X116788152Y-73499999D02*
X116883390Y-73452380D01*
X116883390Y-73452380D02*
X116931009Y-73404761D01*
X116931009Y-73404761D02*
X116978628Y-73309523D01*
X116978628Y-73309523D02*
X116978628Y-72928571D01*
X116502438Y-74452380D02*
X116454819Y-74357142D01*
X116454819Y-74357142D02*
X116454819Y-74214285D01*
X116454819Y-74214285D02*
X116502438Y-74071428D01*
X116502438Y-74071428D02*
X116597676Y-73976190D01*
X116597676Y-73976190D02*
X116692914Y-73928571D01*
X116692914Y-73928571D02*
X116883390Y-73880952D01*
X116883390Y-73880952D02*
X117026247Y-73880952D01*
X117026247Y-73880952D02*
X117216723Y-73928571D01*
X117216723Y-73928571D02*
X117311961Y-73976190D01*
X117311961Y-73976190D02*
X117407200Y-74071428D01*
X117407200Y-74071428D02*
X117454819Y-74214285D01*
X117454819Y-74214285D02*
X117454819Y-74309523D01*
X117454819Y-74309523D02*
X117407200Y-74452380D01*
X117407200Y-74452380D02*
X117359580Y-74499999D01*
X117359580Y-74499999D02*
X117026247Y-74499999D01*
X117026247Y-74499999D02*
X117026247Y-74309523D01*
X116931009Y-74928571D02*
X116931009Y-75261904D01*
X117454819Y-75404761D02*
X117454819Y-74928571D01*
X117454819Y-74928571D02*
X116454819Y-74928571D01*
X116454819Y-74928571D02*
X116454819Y-75404761D01*
X117454819Y-76404761D02*
X116978628Y-76071428D01*
X117454819Y-75833333D02*
X116454819Y-75833333D01*
X116454819Y-75833333D02*
X116454819Y-76214285D01*
X116454819Y-76214285D02*
X116502438Y-76309523D01*
X116502438Y-76309523D02*
X116550057Y-76357142D01*
X116550057Y-76357142D02*
X116645295Y-76404761D01*
X116645295Y-76404761D02*
X116788152Y-76404761D01*
X116788152Y-76404761D02*
X116883390Y-76357142D01*
X116883390Y-76357142D02*
X116931009Y-76309523D01*
X116931009Y-76309523D02*
X116978628Y-76214285D01*
X116978628Y-76214285D02*
X116978628Y-75833333D01*
X117550057Y-76595238D02*
X117550057Y-77357142D01*
X117407200Y-77547619D02*
X117454819Y-77690476D01*
X117454819Y-77690476D02*
X117454819Y-77928571D01*
X117454819Y-77928571D02*
X117407200Y-78023809D01*
X117407200Y-78023809D02*
X117359580Y-78071428D01*
X117359580Y-78071428D02*
X117264342Y-78119047D01*
X117264342Y-78119047D02*
X117169104Y-78119047D01*
X117169104Y-78119047D02*
X117073866Y-78071428D01*
X117073866Y-78071428D02*
X117026247Y-78023809D01*
X117026247Y-78023809D02*
X116978628Y-77928571D01*
X116978628Y-77928571D02*
X116931009Y-77738095D01*
X116931009Y-77738095D02*
X116883390Y-77642857D01*
X116883390Y-77642857D02*
X116835771Y-77595238D01*
X116835771Y-77595238D02*
X116740533Y-77547619D01*
X116740533Y-77547619D02*
X116645295Y-77547619D01*
X116645295Y-77547619D02*
X116550057Y-77595238D01*
X116550057Y-77595238D02*
X116502438Y-77642857D01*
X116502438Y-77642857D02*
X116454819Y-77738095D01*
X116454819Y-77738095D02*
X116454819Y-77976190D01*
X116454819Y-77976190D02*
X116502438Y-78119047D01*
X116931009Y-78547619D02*
X116931009Y-78880952D01*
X117454819Y-79023809D02*
X117454819Y-78547619D01*
X117454819Y-78547619D02*
X116454819Y-78547619D01*
X116454819Y-78547619D02*
X116454819Y-79023809D01*
X116454819Y-79309524D02*
X116454819Y-79880952D01*
X117454819Y-79595238D02*
X116454819Y-79595238D01*
X117550057Y-79976191D02*
X117550057Y-80738095D01*
X117454819Y-80976191D02*
X116454819Y-80976191D01*
X149109523Y-61054819D02*
X148776190Y-62054819D01*
X148776190Y-62054819D02*
X148442857Y-61054819D01*
X147776190Y-61531009D02*
X147633333Y-61578628D01*
X147633333Y-61578628D02*
X147585714Y-61626247D01*
X147585714Y-61626247D02*
X147538095Y-61721485D01*
X147538095Y-61721485D02*
X147538095Y-61864342D01*
X147538095Y-61864342D02*
X147585714Y-61959580D01*
X147585714Y-61959580D02*
X147633333Y-62007200D01*
X147633333Y-62007200D02*
X147728571Y-62054819D01*
X147728571Y-62054819D02*
X148109523Y-62054819D01*
X148109523Y-62054819D02*
X148109523Y-61054819D01*
X148109523Y-61054819D02*
X147776190Y-61054819D01*
X147776190Y-61054819D02*
X147680952Y-61102438D01*
X147680952Y-61102438D02*
X147633333Y-61150057D01*
X147633333Y-61150057D02*
X147585714Y-61245295D01*
X147585714Y-61245295D02*
X147585714Y-61340533D01*
X147585714Y-61340533D02*
X147633333Y-61435771D01*
X147633333Y-61435771D02*
X147680952Y-61483390D01*
X147680952Y-61483390D02*
X147776190Y-61531009D01*
X147776190Y-61531009D02*
X148109523Y-61531009D01*
X146680952Y-61054819D02*
X146871428Y-61054819D01*
X146871428Y-61054819D02*
X146966666Y-61102438D01*
X146966666Y-61102438D02*
X147014285Y-61150057D01*
X147014285Y-61150057D02*
X147109523Y-61292914D01*
X147109523Y-61292914D02*
X147157142Y-61483390D01*
X147157142Y-61483390D02*
X147157142Y-61864342D01*
X147157142Y-61864342D02*
X147109523Y-61959580D01*
X147109523Y-61959580D02*
X147061904Y-62007200D01*
X147061904Y-62007200D02*
X146966666Y-62054819D01*
X146966666Y-62054819D02*
X146776190Y-62054819D01*
X146776190Y-62054819D02*
X146680952Y-62007200D01*
X146680952Y-62007200D02*
X146633333Y-61959580D01*
X146633333Y-61959580D02*
X146585714Y-61864342D01*
X146585714Y-61864342D02*
X146585714Y-61626247D01*
X146585714Y-61626247D02*
X146633333Y-61531009D01*
X146633333Y-61531009D02*
X146680952Y-61483390D01*
X146680952Y-61483390D02*
X146776190Y-61435771D01*
X146776190Y-61435771D02*
X146966666Y-61435771D01*
X146966666Y-61435771D02*
X147061904Y-61483390D01*
X147061904Y-61483390D02*
X147109523Y-61531009D01*
X147109523Y-61531009D02*
X147157142Y-61626247D01*
X128331009Y-72842856D02*
X128378628Y-72985713D01*
X128378628Y-72985713D02*
X128426247Y-73033332D01*
X128426247Y-73033332D02*
X128521485Y-73080951D01*
X128521485Y-73080951D02*
X128664342Y-73080951D01*
X128664342Y-73080951D02*
X128759580Y-73033332D01*
X128759580Y-73033332D02*
X128807200Y-72985713D01*
X128807200Y-72985713D02*
X128854819Y-72890475D01*
X128854819Y-72890475D02*
X128854819Y-72509523D01*
X128854819Y-72509523D02*
X127854819Y-72509523D01*
X127854819Y-72509523D02*
X127854819Y-72842856D01*
X127854819Y-72842856D02*
X127902438Y-72938094D01*
X127902438Y-72938094D02*
X127950057Y-72985713D01*
X127950057Y-72985713D02*
X128045295Y-73033332D01*
X128045295Y-73033332D02*
X128140533Y-73033332D01*
X128140533Y-73033332D02*
X128235771Y-72985713D01*
X128235771Y-72985713D02*
X128283390Y-72938094D01*
X128283390Y-72938094D02*
X128331009Y-72842856D01*
X128331009Y-72842856D02*
X128331009Y-72509523D01*
X128569104Y-73461904D02*
X128569104Y-73938094D01*
X128854819Y-73366666D02*
X127854819Y-73699999D01*
X127854819Y-73699999D02*
X128854819Y-74033332D01*
X127854819Y-74223809D02*
X127854819Y-74795237D01*
X128854819Y-74509523D02*
X127854819Y-74509523D01*
X127854819Y-74985714D02*
X127854819Y-75557142D01*
X128854819Y-75271428D02*
X127854819Y-75271428D01*
X128331009Y-75890476D02*
X128331009Y-76223809D01*
X128854819Y-76366666D02*
X128854819Y-75890476D01*
X128854819Y-75890476D02*
X127854819Y-75890476D01*
X127854819Y-75890476D02*
X127854819Y-76366666D01*
X128854819Y-77366666D02*
X128378628Y-77033333D01*
X128854819Y-76795238D02*
X127854819Y-76795238D01*
X127854819Y-76795238D02*
X127854819Y-77176190D01*
X127854819Y-77176190D02*
X127902438Y-77271428D01*
X127902438Y-77271428D02*
X127950057Y-77319047D01*
X127950057Y-77319047D02*
X128045295Y-77366666D01*
X128045295Y-77366666D02*
X128188152Y-77366666D01*
X128188152Y-77366666D02*
X128283390Y-77319047D01*
X128283390Y-77319047D02*
X128331009Y-77271428D01*
X128331009Y-77271428D02*
X128378628Y-77176190D01*
X128378628Y-77176190D02*
X128378628Y-76795238D01*
X128378628Y-77985714D02*
X128854819Y-77985714D01*
X127854819Y-77652381D02*
X128378628Y-77985714D01*
X128378628Y-77985714D02*
X127854819Y-78319047D01*
X128950057Y-78414286D02*
X128950057Y-79176190D01*
X128331009Y-79414286D02*
X128331009Y-79747619D01*
X128854819Y-79890476D02*
X128854819Y-79414286D01*
X128854819Y-79414286D02*
X127854819Y-79414286D01*
X127854819Y-79414286D02*
X127854819Y-79890476D01*
X128854819Y-80319048D02*
X127854819Y-80319048D01*
X127854819Y-80319048D02*
X128854819Y-80890476D01*
X128854819Y-80890476D02*
X127854819Y-80890476D01*
X172704819Y-67857142D02*
X172228628Y-67523809D01*
X172704819Y-67285714D02*
X171704819Y-67285714D01*
X171704819Y-67285714D02*
X171704819Y-67666666D01*
X171704819Y-67666666D02*
X171752438Y-67761904D01*
X171752438Y-67761904D02*
X171800057Y-67809523D01*
X171800057Y-67809523D02*
X171895295Y-67857142D01*
X171895295Y-67857142D02*
X172038152Y-67857142D01*
X172038152Y-67857142D02*
X172133390Y-67809523D01*
X172133390Y-67809523D02*
X172181009Y-67761904D01*
X172181009Y-67761904D02*
X172228628Y-67666666D01*
X172228628Y-67666666D02*
X172228628Y-67285714D01*
X171800057Y-68238095D02*
X171752438Y-68285714D01*
X171752438Y-68285714D02*
X171704819Y-68380952D01*
X171704819Y-68380952D02*
X171704819Y-68619047D01*
X171704819Y-68619047D02*
X171752438Y-68714285D01*
X171752438Y-68714285D02*
X171800057Y-68761904D01*
X171800057Y-68761904D02*
X171895295Y-68809523D01*
X171895295Y-68809523D02*
X171990533Y-68809523D01*
X171990533Y-68809523D02*
X172133390Y-68761904D01*
X172133390Y-68761904D02*
X172704819Y-68190476D01*
X172704819Y-68190476D02*
X172704819Y-68809523D01*
X172704819Y-69761904D02*
X172704819Y-69190476D01*
X172704819Y-69476190D02*
X171704819Y-69476190D01*
X171704819Y-69476190D02*
X171847676Y-69380952D01*
X171847676Y-69380952D02*
X171942914Y-69285714D01*
X171942914Y-69285714D02*
X171990533Y-69190476D01*
X173054819Y-67785714D02*
X173054819Y-67309524D01*
X173054819Y-67309524D02*
X173531009Y-67261905D01*
X173531009Y-67261905D02*
X173483390Y-67309524D01*
X173483390Y-67309524D02*
X173435771Y-67404762D01*
X173435771Y-67404762D02*
X173435771Y-67642857D01*
X173435771Y-67642857D02*
X173483390Y-67738095D01*
X173483390Y-67738095D02*
X173531009Y-67785714D01*
X173531009Y-67785714D02*
X173626247Y-67833333D01*
X173626247Y-67833333D02*
X173864342Y-67833333D01*
X173864342Y-67833333D02*
X173959580Y-67785714D01*
X173959580Y-67785714D02*
X174007200Y-67738095D01*
X174007200Y-67738095D02*
X174054819Y-67642857D01*
X174054819Y-67642857D02*
X174054819Y-67404762D01*
X174054819Y-67404762D02*
X174007200Y-67309524D01*
X174007200Y-67309524D02*
X173959580Y-67261905D01*
X174054819Y-68785714D02*
X174054819Y-68214286D01*
X174054819Y-68500000D02*
X173054819Y-68500000D01*
X173054819Y-68500000D02*
X173197676Y-68404762D01*
X173197676Y-68404762D02*
X173292914Y-68309524D01*
X173292914Y-68309524D02*
X173340533Y-68214286D01*
X173054819Y-69404762D02*
X173054819Y-69500000D01*
X173054819Y-69500000D02*
X173102438Y-69595238D01*
X173102438Y-69595238D02*
X173150057Y-69642857D01*
X173150057Y-69642857D02*
X173245295Y-69690476D01*
X173245295Y-69690476D02*
X173435771Y-69738095D01*
X173435771Y-69738095D02*
X173673866Y-69738095D01*
X173673866Y-69738095D02*
X173864342Y-69690476D01*
X173864342Y-69690476D02*
X173959580Y-69642857D01*
X173959580Y-69642857D02*
X174007200Y-69595238D01*
X174007200Y-69595238D02*
X174054819Y-69500000D01*
X174054819Y-69500000D02*
X174054819Y-69404762D01*
X174054819Y-69404762D02*
X174007200Y-69309524D01*
X174007200Y-69309524D02*
X173959580Y-69261905D01*
X173959580Y-69261905D02*
X173864342Y-69214286D01*
X173864342Y-69214286D02*
X173673866Y-69166667D01*
X173673866Y-69166667D02*
X173435771Y-69166667D01*
X173435771Y-69166667D02*
X173245295Y-69214286D01*
X173245295Y-69214286D02*
X173150057Y-69261905D01*
X173150057Y-69261905D02*
X173102438Y-69309524D01*
X173102438Y-69309524D02*
X173054819Y-69404762D01*
X152161904Y-68954819D02*
X151828571Y-69954819D01*
X151828571Y-69954819D02*
X151495238Y-68954819D01*
X150971428Y-68954819D02*
X150780952Y-68954819D01*
X150780952Y-68954819D02*
X150685714Y-69002438D01*
X150685714Y-69002438D02*
X150590476Y-69097676D01*
X150590476Y-69097676D02*
X150542857Y-69288152D01*
X150542857Y-69288152D02*
X150542857Y-69621485D01*
X150542857Y-69621485D02*
X150590476Y-69811961D01*
X150590476Y-69811961D02*
X150685714Y-69907200D01*
X150685714Y-69907200D02*
X150780952Y-69954819D01*
X150780952Y-69954819D02*
X150971428Y-69954819D01*
X150971428Y-69954819D02*
X151066666Y-69907200D01*
X151066666Y-69907200D02*
X151161904Y-69811961D01*
X151161904Y-69811961D02*
X151209523Y-69621485D01*
X151209523Y-69621485D02*
X151209523Y-69288152D01*
X151209523Y-69288152D02*
X151161904Y-69097676D01*
X151161904Y-69097676D02*
X151066666Y-69002438D01*
X151066666Y-69002438D02*
X150971428Y-68954819D01*
X150114285Y-68954819D02*
X150114285Y-69764342D01*
X150114285Y-69764342D02*
X150066666Y-69859580D01*
X150066666Y-69859580D02*
X150019047Y-69907200D01*
X150019047Y-69907200D02*
X149923809Y-69954819D01*
X149923809Y-69954819D02*
X149733333Y-69954819D01*
X149733333Y-69954819D02*
X149638095Y-69907200D01*
X149638095Y-69907200D02*
X149590476Y-69859580D01*
X149590476Y-69859580D02*
X149542857Y-69764342D01*
X149542857Y-69764342D02*
X149542857Y-68954819D01*
X149209523Y-68954819D02*
X148638095Y-68954819D01*
X148923809Y-69954819D02*
X148923809Y-68954819D01*
X119731009Y-73133332D02*
X119778628Y-73276189D01*
X119778628Y-73276189D02*
X119826247Y-73323808D01*
X119826247Y-73323808D02*
X119921485Y-73371427D01*
X119921485Y-73371427D02*
X120064342Y-73371427D01*
X120064342Y-73371427D02*
X120159580Y-73323808D01*
X120159580Y-73323808D02*
X120207200Y-73276189D01*
X120207200Y-73276189D02*
X120254819Y-73180951D01*
X120254819Y-73180951D02*
X120254819Y-72799999D01*
X120254819Y-72799999D02*
X119254819Y-72799999D01*
X119254819Y-72799999D02*
X119254819Y-73133332D01*
X119254819Y-73133332D02*
X119302438Y-73228570D01*
X119302438Y-73228570D02*
X119350057Y-73276189D01*
X119350057Y-73276189D02*
X119445295Y-73323808D01*
X119445295Y-73323808D02*
X119540533Y-73323808D01*
X119540533Y-73323808D02*
X119635771Y-73276189D01*
X119635771Y-73276189D02*
X119683390Y-73228570D01*
X119683390Y-73228570D02*
X119731009Y-73133332D01*
X119731009Y-73133332D02*
X119731009Y-72799999D01*
X119969104Y-73752380D02*
X119969104Y-74228570D01*
X120254819Y-73657142D02*
X119254819Y-73990475D01*
X119254819Y-73990475D02*
X120254819Y-74323808D01*
X120254819Y-75133332D02*
X120254819Y-74657142D01*
X120254819Y-74657142D02*
X119254819Y-74657142D01*
X120254819Y-75942856D02*
X120254819Y-75466666D01*
X120254819Y-75466666D02*
X119254819Y-75466666D01*
X120350057Y-76038095D02*
X120350057Y-76799999D01*
X120207200Y-76990476D02*
X120254819Y-77133333D01*
X120254819Y-77133333D02*
X120254819Y-77371428D01*
X120254819Y-77371428D02*
X120207200Y-77466666D01*
X120207200Y-77466666D02*
X120159580Y-77514285D01*
X120159580Y-77514285D02*
X120064342Y-77561904D01*
X120064342Y-77561904D02*
X119969104Y-77561904D01*
X119969104Y-77561904D02*
X119873866Y-77514285D01*
X119873866Y-77514285D02*
X119826247Y-77466666D01*
X119826247Y-77466666D02*
X119778628Y-77371428D01*
X119778628Y-77371428D02*
X119731009Y-77180952D01*
X119731009Y-77180952D02*
X119683390Y-77085714D01*
X119683390Y-77085714D02*
X119635771Y-77038095D01*
X119635771Y-77038095D02*
X119540533Y-76990476D01*
X119540533Y-76990476D02*
X119445295Y-76990476D01*
X119445295Y-76990476D02*
X119350057Y-77038095D01*
X119350057Y-77038095D02*
X119302438Y-77085714D01*
X119302438Y-77085714D02*
X119254819Y-77180952D01*
X119254819Y-77180952D02*
X119254819Y-77419047D01*
X119254819Y-77419047D02*
X119302438Y-77561904D01*
X119731009Y-77990476D02*
X119731009Y-78323809D01*
X120254819Y-78466666D02*
X120254819Y-77990476D01*
X120254819Y-77990476D02*
X119254819Y-77990476D01*
X119254819Y-77990476D02*
X119254819Y-78466666D01*
X119254819Y-78752381D02*
X119254819Y-79323809D01*
X120254819Y-79038095D02*
X119254819Y-79038095D01*
X120350057Y-79419048D02*
X120350057Y-80180952D01*
X119254819Y-80276191D02*
X120254819Y-80609524D01*
X120254819Y-80609524D02*
X119254819Y-80942857D01*
X185461904Y-103104819D02*
X185461904Y-103914342D01*
X185461904Y-103914342D02*
X185414285Y-104009580D01*
X185414285Y-104009580D02*
X185366666Y-104057200D01*
X185366666Y-104057200D02*
X185271428Y-104104819D01*
X185271428Y-104104819D02*
X185080952Y-104104819D01*
X185080952Y-104104819D02*
X184985714Y-104057200D01*
X184985714Y-104057200D02*
X184938095Y-104009580D01*
X184938095Y-104009580D02*
X184890476Y-103914342D01*
X184890476Y-103914342D02*
X184890476Y-103104819D01*
X184509523Y-103104819D02*
X183842857Y-103104819D01*
X183842857Y-103104819D02*
X184271428Y-104104819D01*
X160942857Y-75354819D02*
X161276190Y-74878628D01*
X161514285Y-75354819D02*
X161514285Y-74354819D01*
X161514285Y-74354819D02*
X161133333Y-74354819D01*
X161133333Y-74354819D02*
X161038095Y-74402438D01*
X161038095Y-74402438D02*
X160990476Y-74450057D01*
X160990476Y-74450057D02*
X160942857Y-74545295D01*
X160942857Y-74545295D02*
X160942857Y-74688152D01*
X160942857Y-74688152D02*
X160990476Y-74783390D01*
X160990476Y-74783390D02*
X161038095Y-74831009D01*
X161038095Y-74831009D02*
X161133333Y-74878628D01*
X161133333Y-74878628D02*
X161514285Y-74878628D01*
X160561904Y-74450057D02*
X160514285Y-74402438D01*
X160514285Y-74402438D02*
X160419047Y-74354819D01*
X160419047Y-74354819D02*
X160180952Y-74354819D01*
X160180952Y-74354819D02*
X160085714Y-74402438D01*
X160085714Y-74402438D02*
X160038095Y-74450057D01*
X160038095Y-74450057D02*
X159990476Y-74545295D01*
X159990476Y-74545295D02*
X159990476Y-74640533D01*
X159990476Y-74640533D02*
X160038095Y-74783390D01*
X160038095Y-74783390D02*
X160609523Y-75354819D01*
X160609523Y-75354819D02*
X159990476Y-75354819D01*
X159419047Y-74783390D02*
X159514285Y-74735771D01*
X159514285Y-74735771D02*
X159561904Y-74688152D01*
X159561904Y-74688152D02*
X159609523Y-74592914D01*
X159609523Y-74592914D02*
X159609523Y-74545295D01*
X159609523Y-74545295D02*
X159561904Y-74450057D01*
X159561904Y-74450057D02*
X159514285Y-74402438D01*
X159514285Y-74402438D02*
X159419047Y-74354819D01*
X159419047Y-74354819D02*
X159228571Y-74354819D01*
X159228571Y-74354819D02*
X159133333Y-74402438D01*
X159133333Y-74402438D02*
X159085714Y-74450057D01*
X159085714Y-74450057D02*
X159038095Y-74545295D01*
X159038095Y-74545295D02*
X159038095Y-74592914D01*
X159038095Y-74592914D02*
X159085714Y-74688152D01*
X159085714Y-74688152D02*
X159133333Y-74735771D01*
X159133333Y-74735771D02*
X159228571Y-74783390D01*
X159228571Y-74783390D02*
X159419047Y-74783390D01*
X159419047Y-74783390D02*
X159514285Y-74831009D01*
X159514285Y-74831009D02*
X159561904Y-74878628D01*
X159561904Y-74878628D02*
X159609523Y-74973866D01*
X159609523Y-74973866D02*
X159609523Y-75164342D01*
X159609523Y-75164342D02*
X159561904Y-75259580D01*
X159561904Y-75259580D02*
X159514285Y-75307200D01*
X159514285Y-75307200D02*
X159419047Y-75354819D01*
X159419047Y-75354819D02*
X159228571Y-75354819D01*
X159228571Y-75354819D02*
X159133333Y-75307200D01*
X159133333Y-75307200D02*
X159085714Y-75259580D01*
X159085714Y-75259580D02*
X159038095Y-75164342D01*
X159038095Y-75164342D02*
X159038095Y-74973866D01*
X159038095Y-74973866D02*
X159085714Y-74878628D01*
X159085714Y-74878628D02*
X159133333Y-74831009D01*
X159133333Y-74831009D02*
X159228571Y-74783390D01*
X160933333Y-76654819D02*
X161504761Y-76654819D01*
X161219047Y-76654819D02*
X161219047Y-75654819D01*
X161219047Y-75654819D02*
X161314285Y-75797676D01*
X161314285Y-75797676D02*
X161409523Y-75892914D01*
X161409523Y-75892914D02*
X161504761Y-75940533D01*
X160504761Y-76559580D02*
X160457142Y-76607200D01*
X160457142Y-76607200D02*
X160504761Y-76654819D01*
X160504761Y-76654819D02*
X160552380Y-76607200D01*
X160552380Y-76607200D02*
X160504761Y-76559580D01*
X160504761Y-76559580D02*
X160504761Y-76654819D01*
X160076190Y-75750057D02*
X160028571Y-75702438D01*
X160028571Y-75702438D02*
X159933333Y-75654819D01*
X159933333Y-75654819D02*
X159695238Y-75654819D01*
X159695238Y-75654819D02*
X159600000Y-75702438D01*
X159600000Y-75702438D02*
X159552381Y-75750057D01*
X159552381Y-75750057D02*
X159504762Y-75845295D01*
X159504762Y-75845295D02*
X159504762Y-75940533D01*
X159504762Y-75940533D02*
X159552381Y-76083390D01*
X159552381Y-76083390D02*
X160123809Y-76654819D01*
X160123809Y-76654819D02*
X159504762Y-76654819D01*
X159076190Y-76654819D02*
X159076190Y-75654819D01*
X158980952Y-76273866D02*
X158695238Y-76654819D01*
X158695238Y-75988152D02*
X159076190Y-76369104D01*
X110054819Y-71238095D02*
X110292914Y-71238095D01*
X110197676Y-71000000D02*
X110292914Y-71238095D01*
X110292914Y-71238095D02*
X110197676Y-71476190D01*
X110483390Y-71095238D02*
X110292914Y-71238095D01*
X110292914Y-71238095D02*
X110483390Y-71380952D01*
X110959580Y-72428571D02*
X111007200Y-72380952D01*
X111007200Y-72380952D02*
X111054819Y-72238095D01*
X111054819Y-72238095D02*
X111054819Y-72142857D01*
X111054819Y-72142857D02*
X111007200Y-72000000D01*
X111007200Y-72000000D02*
X110911961Y-71904762D01*
X110911961Y-71904762D02*
X110816723Y-71857143D01*
X110816723Y-71857143D02*
X110626247Y-71809524D01*
X110626247Y-71809524D02*
X110483390Y-71809524D01*
X110483390Y-71809524D02*
X110292914Y-71857143D01*
X110292914Y-71857143D02*
X110197676Y-71904762D01*
X110197676Y-71904762D02*
X110102438Y-72000000D01*
X110102438Y-72000000D02*
X110054819Y-72142857D01*
X110054819Y-72142857D02*
X110054819Y-72238095D01*
X110054819Y-72238095D02*
X110102438Y-72380952D01*
X110102438Y-72380952D02*
X110150057Y-72428571D01*
X111054819Y-72857143D02*
X110054819Y-72857143D01*
X110531009Y-72857143D02*
X110531009Y-73428571D01*
X111054819Y-73428571D02*
X110054819Y-73428571D01*
X110769104Y-73857143D02*
X110769104Y-74333333D01*
X111054819Y-73761905D02*
X110054819Y-74095238D01*
X110054819Y-74095238D02*
X111054819Y-74428571D01*
X111054819Y-75333333D02*
X110578628Y-75000000D01*
X111054819Y-74761905D02*
X110054819Y-74761905D01*
X110054819Y-74761905D02*
X110054819Y-75142857D01*
X110054819Y-75142857D02*
X110102438Y-75238095D01*
X110102438Y-75238095D02*
X110150057Y-75285714D01*
X110150057Y-75285714D02*
X110245295Y-75333333D01*
X110245295Y-75333333D02*
X110388152Y-75333333D01*
X110388152Y-75333333D02*
X110483390Y-75285714D01*
X110483390Y-75285714D02*
X110531009Y-75238095D01*
X110531009Y-75238095D02*
X110578628Y-75142857D01*
X110578628Y-75142857D02*
X110578628Y-74761905D01*
X110102438Y-76285714D02*
X110054819Y-76190476D01*
X110054819Y-76190476D02*
X110054819Y-76047619D01*
X110054819Y-76047619D02*
X110102438Y-75904762D01*
X110102438Y-75904762D02*
X110197676Y-75809524D01*
X110197676Y-75809524D02*
X110292914Y-75761905D01*
X110292914Y-75761905D02*
X110483390Y-75714286D01*
X110483390Y-75714286D02*
X110626247Y-75714286D01*
X110626247Y-75714286D02*
X110816723Y-75761905D01*
X110816723Y-75761905D02*
X110911961Y-75809524D01*
X110911961Y-75809524D02*
X111007200Y-75904762D01*
X111007200Y-75904762D02*
X111054819Y-76047619D01*
X111054819Y-76047619D02*
X111054819Y-76142857D01*
X111054819Y-76142857D02*
X111007200Y-76285714D01*
X111007200Y-76285714D02*
X110959580Y-76333333D01*
X110959580Y-76333333D02*
X110626247Y-76333333D01*
X110626247Y-76333333D02*
X110626247Y-76142857D01*
X110531009Y-76761905D02*
X110531009Y-77095238D01*
X111054819Y-77238095D02*
X111054819Y-76761905D01*
X111054819Y-76761905D02*
X110054819Y-76761905D01*
X110054819Y-76761905D02*
X110054819Y-77238095D01*
X111054819Y-78238095D02*
X110578628Y-77904762D01*
X111054819Y-77666667D02*
X110054819Y-77666667D01*
X110054819Y-77666667D02*
X110054819Y-78047619D01*
X110054819Y-78047619D02*
X110102438Y-78142857D01*
X110102438Y-78142857D02*
X110150057Y-78190476D01*
X110150057Y-78190476D02*
X110245295Y-78238095D01*
X110245295Y-78238095D02*
X110388152Y-78238095D01*
X110388152Y-78238095D02*
X110483390Y-78190476D01*
X110483390Y-78190476D02*
X110531009Y-78142857D01*
X110531009Y-78142857D02*
X110578628Y-78047619D01*
X110578628Y-78047619D02*
X110578628Y-77666667D01*
X111150057Y-78428572D02*
X111150057Y-79190476D01*
X110531009Y-79428572D02*
X110531009Y-79761905D01*
X111054819Y-79904762D02*
X111054819Y-79428572D01*
X111054819Y-79428572D02*
X110054819Y-79428572D01*
X110054819Y-79428572D02*
X110054819Y-79904762D01*
X111054819Y-80333334D02*
X110054819Y-80333334D01*
X110054819Y-80333334D02*
X111054819Y-80904762D01*
X111054819Y-80904762D02*
X110054819Y-80904762D01*
X149109523Y-65754819D02*
X148776190Y-66754819D01*
X148776190Y-66754819D02*
X148442857Y-65754819D01*
X147776190Y-66231009D02*
X147633333Y-66278628D01*
X147633333Y-66278628D02*
X147585714Y-66326247D01*
X147585714Y-66326247D02*
X147538095Y-66421485D01*
X147538095Y-66421485D02*
X147538095Y-66564342D01*
X147538095Y-66564342D02*
X147585714Y-66659580D01*
X147585714Y-66659580D02*
X147633333Y-66707200D01*
X147633333Y-66707200D02*
X147728571Y-66754819D01*
X147728571Y-66754819D02*
X148109523Y-66754819D01*
X148109523Y-66754819D02*
X148109523Y-65754819D01*
X148109523Y-65754819D02*
X147776190Y-65754819D01*
X147776190Y-65754819D02*
X147680952Y-65802438D01*
X147680952Y-65802438D02*
X147633333Y-65850057D01*
X147633333Y-65850057D02*
X147585714Y-65945295D01*
X147585714Y-65945295D02*
X147585714Y-66040533D01*
X147585714Y-66040533D02*
X147633333Y-66135771D01*
X147633333Y-66135771D02*
X147680952Y-66183390D01*
X147680952Y-66183390D02*
X147776190Y-66231009D01*
X147776190Y-66231009D02*
X148109523Y-66231009D01*
X147157142Y-65850057D02*
X147109523Y-65802438D01*
X147109523Y-65802438D02*
X147014285Y-65754819D01*
X147014285Y-65754819D02*
X146776190Y-65754819D01*
X146776190Y-65754819D02*
X146680952Y-65802438D01*
X146680952Y-65802438D02*
X146633333Y-65850057D01*
X146633333Y-65850057D02*
X146585714Y-65945295D01*
X146585714Y-65945295D02*
X146585714Y-66040533D01*
X146585714Y-66040533D02*
X146633333Y-66183390D01*
X146633333Y-66183390D02*
X147204761Y-66754819D01*
X147204761Y-66754819D02*
X146585714Y-66754819D01*
X161142857Y-47454819D02*
X161476190Y-46978628D01*
X161714285Y-47454819D02*
X161714285Y-46454819D01*
X161714285Y-46454819D02*
X161333333Y-46454819D01*
X161333333Y-46454819D02*
X161238095Y-46502438D01*
X161238095Y-46502438D02*
X161190476Y-46550057D01*
X161190476Y-46550057D02*
X161142857Y-46645295D01*
X161142857Y-46645295D02*
X161142857Y-46788152D01*
X161142857Y-46788152D02*
X161190476Y-46883390D01*
X161190476Y-46883390D02*
X161238095Y-46931009D01*
X161238095Y-46931009D02*
X161333333Y-46978628D01*
X161333333Y-46978628D02*
X161714285Y-46978628D01*
X160190476Y-47454819D02*
X160761904Y-47454819D01*
X160476190Y-47454819D02*
X160476190Y-46454819D01*
X160476190Y-46454819D02*
X160571428Y-46597676D01*
X160571428Y-46597676D02*
X160666666Y-46692914D01*
X160666666Y-46692914D02*
X160761904Y-46740533D01*
X159333333Y-46454819D02*
X159523809Y-46454819D01*
X159523809Y-46454819D02*
X159619047Y-46502438D01*
X159619047Y-46502438D02*
X159666666Y-46550057D01*
X159666666Y-46550057D02*
X159761904Y-46692914D01*
X159761904Y-46692914D02*
X159809523Y-46883390D01*
X159809523Y-46883390D02*
X159809523Y-47264342D01*
X159809523Y-47264342D02*
X159761904Y-47359580D01*
X159761904Y-47359580D02*
X159714285Y-47407200D01*
X159714285Y-47407200D02*
X159619047Y-47454819D01*
X159619047Y-47454819D02*
X159428571Y-47454819D01*
X159428571Y-47454819D02*
X159333333Y-47407200D01*
X159333333Y-47407200D02*
X159285714Y-47359580D01*
X159285714Y-47359580D02*
X159238095Y-47264342D01*
X159238095Y-47264342D02*
X159238095Y-47026247D01*
X159238095Y-47026247D02*
X159285714Y-46931009D01*
X159285714Y-46931009D02*
X159333333Y-46883390D01*
X159333333Y-46883390D02*
X159428571Y-46835771D01*
X159428571Y-46835771D02*
X159619047Y-46835771D01*
X159619047Y-46835771D02*
X159714285Y-46883390D01*
X159714285Y-46883390D02*
X159761904Y-46931009D01*
X159761904Y-46931009D02*
X159809523Y-47026247D01*
X161180952Y-47754819D02*
X161657142Y-47754819D01*
X161657142Y-47754819D02*
X161704761Y-48231009D01*
X161704761Y-48231009D02*
X161657142Y-48183390D01*
X161657142Y-48183390D02*
X161561904Y-48135771D01*
X161561904Y-48135771D02*
X161323809Y-48135771D01*
X161323809Y-48135771D02*
X161228571Y-48183390D01*
X161228571Y-48183390D02*
X161180952Y-48231009D01*
X161180952Y-48231009D02*
X161133333Y-48326247D01*
X161133333Y-48326247D02*
X161133333Y-48564342D01*
X161133333Y-48564342D02*
X161180952Y-48659580D01*
X161180952Y-48659580D02*
X161228571Y-48707200D01*
X161228571Y-48707200D02*
X161323809Y-48754819D01*
X161323809Y-48754819D02*
X161561904Y-48754819D01*
X161561904Y-48754819D02*
X161657142Y-48707200D01*
X161657142Y-48707200D02*
X161704761Y-48659580D01*
X160704761Y-48659580D02*
X160657142Y-48707200D01*
X160657142Y-48707200D02*
X160704761Y-48754819D01*
X160704761Y-48754819D02*
X160752380Y-48707200D01*
X160752380Y-48707200D02*
X160704761Y-48659580D01*
X160704761Y-48659580D02*
X160704761Y-48754819D01*
X159704762Y-48754819D02*
X160276190Y-48754819D01*
X159990476Y-48754819D02*
X159990476Y-47754819D01*
X159990476Y-47754819D02*
X160085714Y-47897676D01*
X160085714Y-47897676D02*
X160180952Y-47992914D01*
X160180952Y-47992914D02*
X160276190Y-48040533D01*
X159276190Y-48754819D02*
X159276190Y-47754819D01*
X159180952Y-48373866D02*
X158895238Y-48754819D01*
X158895238Y-48088152D02*
X159276190Y-48469104D01*
X160942857Y-71554819D02*
X161276190Y-71078628D01*
X161514285Y-71554819D02*
X161514285Y-70554819D01*
X161514285Y-70554819D02*
X161133333Y-70554819D01*
X161133333Y-70554819D02*
X161038095Y-70602438D01*
X161038095Y-70602438D02*
X160990476Y-70650057D01*
X160990476Y-70650057D02*
X160942857Y-70745295D01*
X160942857Y-70745295D02*
X160942857Y-70888152D01*
X160942857Y-70888152D02*
X160990476Y-70983390D01*
X160990476Y-70983390D02*
X161038095Y-71031009D01*
X161038095Y-71031009D02*
X161133333Y-71078628D01*
X161133333Y-71078628D02*
X161514285Y-71078628D01*
X160609523Y-70554819D02*
X159990476Y-70554819D01*
X159990476Y-70554819D02*
X160323809Y-70935771D01*
X160323809Y-70935771D02*
X160180952Y-70935771D01*
X160180952Y-70935771D02*
X160085714Y-70983390D01*
X160085714Y-70983390D02*
X160038095Y-71031009D01*
X160038095Y-71031009D02*
X159990476Y-71126247D01*
X159990476Y-71126247D02*
X159990476Y-71364342D01*
X159990476Y-71364342D02*
X160038095Y-71459580D01*
X160038095Y-71459580D02*
X160085714Y-71507200D01*
X160085714Y-71507200D02*
X160180952Y-71554819D01*
X160180952Y-71554819D02*
X160466666Y-71554819D01*
X160466666Y-71554819D02*
X160561904Y-71507200D01*
X160561904Y-71507200D02*
X160609523Y-71459580D01*
X159657142Y-70554819D02*
X158990476Y-70554819D01*
X158990476Y-70554819D02*
X159419047Y-71554819D01*
X160980952Y-71854819D02*
X161457142Y-71854819D01*
X161457142Y-71854819D02*
X161504761Y-72331009D01*
X161504761Y-72331009D02*
X161457142Y-72283390D01*
X161457142Y-72283390D02*
X161361904Y-72235771D01*
X161361904Y-72235771D02*
X161123809Y-72235771D01*
X161123809Y-72235771D02*
X161028571Y-72283390D01*
X161028571Y-72283390D02*
X160980952Y-72331009D01*
X160980952Y-72331009D02*
X160933333Y-72426247D01*
X160933333Y-72426247D02*
X160933333Y-72664342D01*
X160933333Y-72664342D02*
X160980952Y-72759580D01*
X160980952Y-72759580D02*
X161028571Y-72807200D01*
X161028571Y-72807200D02*
X161123809Y-72854819D01*
X161123809Y-72854819D02*
X161361904Y-72854819D01*
X161361904Y-72854819D02*
X161457142Y-72807200D01*
X161457142Y-72807200D02*
X161504761Y-72759580D01*
X160504761Y-72759580D02*
X160457142Y-72807200D01*
X160457142Y-72807200D02*
X160504761Y-72854819D01*
X160504761Y-72854819D02*
X160552380Y-72807200D01*
X160552380Y-72807200D02*
X160504761Y-72759580D01*
X160504761Y-72759580D02*
X160504761Y-72854819D01*
X159504762Y-72854819D02*
X160076190Y-72854819D01*
X159790476Y-72854819D02*
X159790476Y-71854819D01*
X159790476Y-71854819D02*
X159885714Y-71997676D01*
X159885714Y-71997676D02*
X159980952Y-72092914D01*
X159980952Y-72092914D02*
X160076190Y-72140533D01*
X159076190Y-72854819D02*
X159076190Y-71854819D01*
X158980952Y-72473866D02*
X158695238Y-72854819D01*
X158695238Y-72188152D02*
X159076190Y-72569104D01*
X152409523Y-63154819D02*
X152076190Y-64154819D01*
X152076190Y-64154819D02*
X151742857Y-63154819D01*
X151076190Y-63631009D02*
X150933333Y-63678628D01*
X150933333Y-63678628D02*
X150885714Y-63726247D01*
X150885714Y-63726247D02*
X150838095Y-63821485D01*
X150838095Y-63821485D02*
X150838095Y-63964342D01*
X150838095Y-63964342D02*
X150885714Y-64059580D01*
X150885714Y-64059580D02*
X150933333Y-64107200D01*
X150933333Y-64107200D02*
X151028571Y-64154819D01*
X151028571Y-64154819D02*
X151409523Y-64154819D01*
X151409523Y-64154819D02*
X151409523Y-63154819D01*
X151409523Y-63154819D02*
X151076190Y-63154819D01*
X151076190Y-63154819D02*
X150980952Y-63202438D01*
X150980952Y-63202438D02*
X150933333Y-63250057D01*
X150933333Y-63250057D02*
X150885714Y-63345295D01*
X150885714Y-63345295D02*
X150885714Y-63440533D01*
X150885714Y-63440533D02*
X150933333Y-63535771D01*
X150933333Y-63535771D02*
X150980952Y-63583390D01*
X150980952Y-63583390D02*
X151076190Y-63631009D01*
X151076190Y-63631009D02*
X151409523Y-63631009D01*
X150504761Y-63154819D02*
X149885714Y-63154819D01*
X149885714Y-63154819D02*
X150219047Y-63535771D01*
X150219047Y-63535771D02*
X150076190Y-63535771D01*
X150076190Y-63535771D02*
X149980952Y-63583390D01*
X149980952Y-63583390D02*
X149933333Y-63631009D01*
X149933333Y-63631009D02*
X149885714Y-63726247D01*
X149885714Y-63726247D02*
X149885714Y-63964342D01*
X149885714Y-63964342D02*
X149933333Y-64059580D01*
X149933333Y-64059580D02*
X149980952Y-64107200D01*
X149980952Y-64107200D02*
X150076190Y-64154819D01*
X150076190Y-64154819D02*
X150361904Y-64154819D01*
X150361904Y-64154819D02*
X150457142Y-64107200D01*
X150457142Y-64107200D02*
X150504761Y-64059580D01*
X117038094Y-59869104D02*
X116561904Y-59869104D01*
X117133332Y-60154819D02*
X116799999Y-59154819D01*
X116799999Y-59154819D02*
X116466666Y-60154819D01*
X116133332Y-60154819D02*
X116133332Y-59154819D01*
X116133332Y-59154819D02*
X115895237Y-59154819D01*
X115895237Y-59154819D02*
X115752380Y-59202438D01*
X115752380Y-59202438D02*
X115657142Y-59297676D01*
X115657142Y-59297676D02*
X115609523Y-59392914D01*
X115609523Y-59392914D02*
X115561904Y-59583390D01*
X115561904Y-59583390D02*
X115561904Y-59726247D01*
X115561904Y-59726247D02*
X115609523Y-59916723D01*
X115609523Y-59916723D02*
X115657142Y-60011961D01*
X115657142Y-60011961D02*
X115752380Y-60107200D01*
X115752380Y-60107200D02*
X115895237Y-60154819D01*
X115895237Y-60154819D02*
X116133332Y-60154819D01*
X114561904Y-60059580D02*
X114609523Y-60107200D01*
X114609523Y-60107200D02*
X114752380Y-60154819D01*
X114752380Y-60154819D02*
X114847618Y-60154819D01*
X114847618Y-60154819D02*
X114990475Y-60107200D01*
X114990475Y-60107200D02*
X115085713Y-60011961D01*
X115085713Y-60011961D02*
X115133332Y-59916723D01*
X115133332Y-59916723D02*
X115180951Y-59726247D01*
X115180951Y-59726247D02*
X115180951Y-59583390D01*
X115180951Y-59583390D02*
X115133332Y-59392914D01*
X115133332Y-59392914D02*
X115085713Y-59297676D01*
X115085713Y-59297676D02*
X114990475Y-59202438D01*
X114990475Y-59202438D02*
X114847618Y-59154819D01*
X114847618Y-59154819D02*
X114752380Y-59154819D01*
X114752380Y-59154819D02*
X114609523Y-59202438D01*
X114609523Y-59202438D02*
X114561904Y-59250057D01*
X172704819Y-83857142D02*
X172228628Y-83523809D01*
X172704819Y-83285714D02*
X171704819Y-83285714D01*
X171704819Y-83285714D02*
X171704819Y-83666666D01*
X171704819Y-83666666D02*
X171752438Y-83761904D01*
X171752438Y-83761904D02*
X171800057Y-83809523D01*
X171800057Y-83809523D02*
X171895295Y-83857142D01*
X171895295Y-83857142D02*
X172038152Y-83857142D01*
X172038152Y-83857142D02*
X172133390Y-83809523D01*
X172133390Y-83809523D02*
X172181009Y-83761904D01*
X172181009Y-83761904D02*
X172228628Y-83666666D01*
X172228628Y-83666666D02*
X172228628Y-83285714D01*
X172038152Y-84714285D02*
X172704819Y-84714285D01*
X171657200Y-84476190D02*
X172371485Y-84238095D01*
X172371485Y-84238095D02*
X172371485Y-84857142D01*
X172704819Y-85761904D02*
X172704819Y-85190476D01*
X172704819Y-85476190D02*
X171704819Y-85476190D01*
X171704819Y-85476190D02*
X171847676Y-85380952D01*
X171847676Y-85380952D02*
X171942914Y-85285714D01*
X171942914Y-85285714D02*
X171990533Y-85190476D01*
X173154819Y-83214286D02*
X173154819Y-83833333D01*
X173154819Y-83833333D02*
X173535771Y-83500000D01*
X173535771Y-83500000D02*
X173535771Y-83642857D01*
X173535771Y-83642857D02*
X173583390Y-83738095D01*
X173583390Y-83738095D02*
X173631009Y-83785714D01*
X173631009Y-83785714D02*
X173726247Y-83833333D01*
X173726247Y-83833333D02*
X173964342Y-83833333D01*
X173964342Y-83833333D02*
X174059580Y-83785714D01*
X174059580Y-83785714D02*
X174107200Y-83738095D01*
X174107200Y-83738095D02*
X174154819Y-83642857D01*
X174154819Y-83642857D02*
X174154819Y-83357143D01*
X174154819Y-83357143D02*
X174107200Y-83261905D01*
X174107200Y-83261905D02*
X174059580Y-83214286D01*
X174154819Y-84309524D02*
X174154819Y-84500000D01*
X174154819Y-84500000D02*
X174107200Y-84595238D01*
X174107200Y-84595238D02*
X174059580Y-84642857D01*
X174059580Y-84642857D02*
X173916723Y-84738095D01*
X173916723Y-84738095D02*
X173726247Y-84785714D01*
X173726247Y-84785714D02*
X173345295Y-84785714D01*
X173345295Y-84785714D02*
X173250057Y-84738095D01*
X173250057Y-84738095D02*
X173202438Y-84690476D01*
X173202438Y-84690476D02*
X173154819Y-84595238D01*
X173154819Y-84595238D02*
X173154819Y-84404762D01*
X173154819Y-84404762D02*
X173202438Y-84309524D01*
X173202438Y-84309524D02*
X173250057Y-84261905D01*
X173250057Y-84261905D02*
X173345295Y-84214286D01*
X173345295Y-84214286D02*
X173583390Y-84214286D01*
X173583390Y-84214286D02*
X173678628Y-84261905D01*
X173678628Y-84261905D02*
X173726247Y-84309524D01*
X173726247Y-84309524D02*
X173773866Y-84404762D01*
X173773866Y-84404762D02*
X173773866Y-84595238D01*
X173773866Y-84595238D02*
X173726247Y-84690476D01*
X173726247Y-84690476D02*
X173678628Y-84738095D01*
X173678628Y-84738095D02*
X173583390Y-84785714D01*
X173154819Y-85404762D02*
X173154819Y-85500000D01*
X173154819Y-85500000D02*
X173202438Y-85595238D01*
X173202438Y-85595238D02*
X173250057Y-85642857D01*
X173250057Y-85642857D02*
X173345295Y-85690476D01*
X173345295Y-85690476D02*
X173535771Y-85738095D01*
X173535771Y-85738095D02*
X173773866Y-85738095D01*
X173773866Y-85738095D02*
X173964342Y-85690476D01*
X173964342Y-85690476D02*
X174059580Y-85642857D01*
X174059580Y-85642857D02*
X174107200Y-85595238D01*
X174107200Y-85595238D02*
X174154819Y-85500000D01*
X174154819Y-85500000D02*
X174154819Y-85404762D01*
X174154819Y-85404762D02*
X174107200Y-85309524D01*
X174107200Y-85309524D02*
X174059580Y-85261905D01*
X174059580Y-85261905D02*
X173964342Y-85214286D01*
X173964342Y-85214286D02*
X173773866Y-85166667D01*
X173773866Y-85166667D02*
X173535771Y-85166667D01*
X173535771Y-85166667D02*
X173345295Y-85214286D01*
X173345295Y-85214286D02*
X173250057Y-85261905D01*
X173250057Y-85261905D02*
X173202438Y-85309524D01*
X173202438Y-85309524D02*
X173154819Y-85404762D01*
X152561904Y-116506819D02*
X152228571Y-117506819D01*
X152228571Y-117506819D02*
X151895238Y-116506819D01*
X151371428Y-116506819D02*
X151180952Y-116506819D01*
X151180952Y-116506819D02*
X151085714Y-116554438D01*
X151085714Y-116554438D02*
X150990476Y-116649676D01*
X150990476Y-116649676D02*
X150942857Y-116840152D01*
X150942857Y-116840152D02*
X150942857Y-117173485D01*
X150942857Y-117173485D02*
X150990476Y-117363961D01*
X150990476Y-117363961D02*
X151085714Y-117459200D01*
X151085714Y-117459200D02*
X151180952Y-117506819D01*
X151180952Y-117506819D02*
X151371428Y-117506819D01*
X151371428Y-117506819D02*
X151466666Y-117459200D01*
X151466666Y-117459200D02*
X151561904Y-117363961D01*
X151561904Y-117363961D02*
X151609523Y-117173485D01*
X151609523Y-117173485D02*
X151609523Y-116840152D01*
X151609523Y-116840152D02*
X151561904Y-116649676D01*
X151561904Y-116649676D02*
X151466666Y-116554438D01*
X151466666Y-116554438D02*
X151371428Y-116506819D01*
X150514285Y-116506819D02*
X150514285Y-117316342D01*
X150514285Y-117316342D02*
X150466666Y-117411580D01*
X150466666Y-117411580D02*
X150419047Y-117459200D01*
X150419047Y-117459200D02*
X150323809Y-117506819D01*
X150323809Y-117506819D02*
X150133333Y-117506819D01*
X150133333Y-117506819D02*
X150038095Y-117459200D01*
X150038095Y-117459200D02*
X149990476Y-117411580D01*
X149990476Y-117411580D02*
X149942857Y-117316342D01*
X149942857Y-117316342D02*
X149942857Y-116506819D01*
X149609523Y-116506819D02*
X149038095Y-116506819D01*
X149323809Y-117506819D02*
X149323809Y-116506819D01*
X160842857Y-83354819D02*
X161176190Y-82878628D01*
X161414285Y-83354819D02*
X161414285Y-82354819D01*
X161414285Y-82354819D02*
X161033333Y-82354819D01*
X161033333Y-82354819D02*
X160938095Y-82402438D01*
X160938095Y-82402438D02*
X160890476Y-82450057D01*
X160890476Y-82450057D02*
X160842857Y-82545295D01*
X160842857Y-82545295D02*
X160842857Y-82688152D01*
X160842857Y-82688152D02*
X160890476Y-82783390D01*
X160890476Y-82783390D02*
X160938095Y-82831009D01*
X160938095Y-82831009D02*
X161033333Y-82878628D01*
X161033333Y-82878628D02*
X161414285Y-82878628D01*
X160461904Y-82450057D02*
X160414285Y-82402438D01*
X160414285Y-82402438D02*
X160319047Y-82354819D01*
X160319047Y-82354819D02*
X160080952Y-82354819D01*
X160080952Y-82354819D02*
X159985714Y-82402438D01*
X159985714Y-82402438D02*
X159938095Y-82450057D01*
X159938095Y-82450057D02*
X159890476Y-82545295D01*
X159890476Y-82545295D02*
X159890476Y-82640533D01*
X159890476Y-82640533D02*
X159938095Y-82783390D01*
X159938095Y-82783390D02*
X160509523Y-83354819D01*
X160509523Y-83354819D02*
X159890476Y-83354819D01*
X159414285Y-83354819D02*
X159223809Y-83354819D01*
X159223809Y-83354819D02*
X159128571Y-83307200D01*
X159128571Y-83307200D02*
X159080952Y-83259580D01*
X159080952Y-83259580D02*
X158985714Y-83116723D01*
X158985714Y-83116723D02*
X158938095Y-82926247D01*
X158938095Y-82926247D02*
X158938095Y-82545295D01*
X158938095Y-82545295D02*
X158985714Y-82450057D01*
X158985714Y-82450057D02*
X159033333Y-82402438D01*
X159033333Y-82402438D02*
X159128571Y-82354819D01*
X159128571Y-82354819D02*
X159319047Y-82354819D01*
X159319047Y-82354819D02*
X159414285Y-82402438D01*
X159414285Y-82402438D02*
X159461904Y-82450057D01*
X159461904Y-82450057D02*
X159509523Y-82545295D01*
X159509523Y-82545295D02*
X159509523Y-82783390D01*
X159509523Y-82783390D02*
X159461904Y-82878628D01*
X159461904Y-82878628D02*
X159414285Y-82926247D01*
X159414285Y-82926247D02*
X159319047Y-82973866D01*
X159319047Y-82973866D02*
X159128571Y-82973866D01*
X159128571Y-82973866D02*
X159033333Y-82926247D01*
X159033333Y-82926247D02*
X158985714Y-82878628D01*
X158985714Y-82878628D02*
X158938095Y-82783390D01*
X160933333Y-84754819D02*
X161504761Y-84754819D01*
X161219047Y-84754819D02*
X161219047Y-83754819D01*
X161219047Y-83754819D02*
X161314285Y-83897676D01*
X161314285Y-83897676D02*
X161409523Y-83992914D01*
X161409523Y-83992914D02*
X161504761Y-84040533D01*
X160504761Y-84659580D02*
X160457142Y-84707200D01*
X160457142Y-84707200D02*
X160504761Y-84754819D01*
X160504761Y-84754819D02*
X160552380Y-84707200D01*
X160552380Y-84707200D02*
X160504761Y-84659580D01*
X160504761Y-84659580D02*
X160504761Y-84754819D01*
X160076190Y-83850057D02*
X160028571Y-83802438D01*
X160028571Y-83802438D02*
X159933333Y-83754819D01*
X159933333Y-83754819D02*
X159695238Y-83754819D01*
X159695238Y-83754819D02*
X159600000Y-83802438D01*
X159600000Y-83802438D02*
X159552381Y-83850057D01*
X159552381Y-83850057D02*
X159504762Y-83945295D01*
X159504762Y-83945295D02*
X159504762Y-84040533D01*
X159504762Y-84040533D02*
X159552381Y-84183390D01*
X159552381Y-84183390D02*
X160123809Y-84754819D01*
X160123809Y-84754819D02*
X159504762Y-84754819D01*
X159076190Y-84754819D02*
X159076190Y-83754819D01*
X158980952Y-84373866D02*
X158695238Y-84754819D01*
X158695238Y-84088152D02*
X159076190Y-84469104D01*
X149109523Y-63154819D02*
X148776190Y-64154819D01*
X148776190Y-64154819D02*
X148442857Y-63154819D01*
X147776190Y-63631009D02*
X147633333Y-63678628D01*
X147633333Y-63678628D02*
X147585714Y-63726247D01*
X147585714Y-63726247D02*
X147538095Y-63821485D01*
X147538095Y-63821485D02*
X147538095Y-63964342D01*
X147538095Y-63964342D02*
X147585714Y-64059580D01*
X147585714Y-64059580D02*
X147633333Y-64107200D01*
X147633333Y-64107200D02*
X147728571Y-64154819D01*
X147728571Y-64154819D02*
X148109523Y-64154819D01*
X148109523Y-64154819D02*
X148109523Y-63154819D01*
X148109523Y-63154819D02*
X147776190Y-63154819D01*
X147776190Y-63154819D02*
X147680952Y-63202438D01*
X147680952Y-63202438D02*
X147633333Y-63250057D01*
X147633333Y-63250057D02*
X147585714Y-63345295D01*
X147585714Y-63345295D02*
X147585714Y-63440533D01*
X147585714Y-63440533D02*
X147633333Y-63535771D01*
X147633333Y-63535771D02*
X147680952Y-63583390D01*
X147680952Y-63583390D02*
X147776190Y-63631009D01*
X147776190Y-63631009D02*
X148109523Y-63631009D01*
X146680952Y-63488152D02*
X146680952Y-64154819D01*
X146919047Y-63107200D02*
X147157142Y-63821485D01*
X147157142Y-63821485D02*
X146538095Y-63821485D01*
X172804819Y-51657142D02*
X172328628Y-51323809D01*
X172804819Y-51085714D02*
X171804819Y-51085714D01*
X171804819Y-51085714D02*
X171804819Y-51466666D01*
X171804819Y-51466666D02*
X171852438Y-51561904D01*
X171852438Y-51561904D02*
X171900057Y-51609523D01*
X171900057Y-51609523D02*
X171995295Y-51657142D01*
X171995295Y-51657142D02*
X172138152Y-51657142D01*
X172138152Y-51657142D02*
X172233390Y-51609523D01*
X172233390Y-51609523D02*
X172281009Y-51561904D01*
X172281009Y-51561904D02*
X172328628Y-51466666D01*
X172328628Y-51466666D02*
X172328628Y-51085714D01*
X172804819Y-52609523D02*
X172804819Y-52038095D01*
X172804819Y-52323809D02*
X171804819Y-52323809D01*
X171804819Y-52323809D02*
X171947676Y-52228571D01*
X171947676Y-52228571D02*
X172042914Y-52133333D01*
X172042914Y-52133333D02*
X172090533Y-52038095D01*
X172804819Y-53085714D02*
X172804819Y-53276190D01*
X172804819Y-53276190D02*
X172757200Y-53371428D01*
X172757200Y-53371428D02*
X172709580Y-53419047D01*
X172709580Y-53419047D02*
X172566723Y-53514285D01*
X172566723Y-53514285D02*
X172376247Y-53561904D01*
X172376247Y-53561904D02*
X171995295Y-53561904D01*
X171995295Y-53561904D02*
X171900057Y-53514285D01*
X171900057Y-53514285D02*
X171852438Y-53466666D01*
X171852438Y-53466666D02*
X171804819Y-53371428D01*
X171804819Y-53371428D02*
X171804819Y-53180952D01*
X171804819Y-53180952D02*
X171852438Y-53085714D01*
X171852438Y-53085714D02*
X171900057Y-53038095D01*
X171900057Y-53038095D02*
X171995295Y-52990476D01*
X171995295Y-52990476D02*
X172233390Y-52990476D01*
X172233390Y-52990476D02*
X172328628Y-53038095D01*
X172328628Y-53038095D02*
X172376247Y-53085714D01*
X172376247Y-53085714D02*
X172423866Y-53180952D01*
X172423866Y-53180952D02*
X172423866Y-53371428D01*
X172423866Y-53371428D02*
X172376247Y-53466666D01*
X172376247Y-53466666D02*
X172328628Y-53514285D01*
X172328628Y-53514285D02*
X172233390Y-53561904D01*
X173154819Y-51585714D02*
X173154819Y-51109524D01*
X173154819Y-51109524D02*
X173631009Y-51061905D01*
X173631009Y-51061905D02*
X173583390Y-51109524D01*
X173583390Y-51109524D02*
X173535771Y-51204762D01*
X173535771Y-51204762D02*
X173535771Y-51442857D01*
X173535771Y-51442857D02*
X173583390Y-51538095D01*
X173583390Y-51538095D02*
X173631009Y-51585714D01*
X173631009Y-51585714D02*
X173726247Y-51633333D01*
X173726247Y-51633333D02*
X173964342Y-51633333D01*
X173964342Y-51633333D02*
X174059580Y-51585714D01*
X174059580Y-51585714D02*
X174107200Y-51538095D01*
X174107200Y-51538095D02*
X174154819Y-51442857D01*
X174154819Y-51442857D02*
X174154819Y-51204762D01*
X174154819Y-51204762D02*
X174107200Y-51109524D01*
X174107200Y-51109524D02*
X174059580Y-51061905D01*
X174154819Y-52585714D02*
X174154819Y-52014286D01*
X174154819Y-52300000D02*
X173154819Y-52300000D01*
X173154819Y-52300000D02*
X173297676Y-52204762D01*
X173297676Y-52204762D02*
X173392914Y-52109524D01*
X173392914Y-52109524D02*
X173440533Y-52014286D01*
X173154819Y-53204762D02*
X173154819Y-53300000D01*
X173154819Y-53300000D02*
X173202438Y-53395238D01*
X173202438Y-53395238D02*
X173250057Y-53442857D01*
X173250057Y-53442857D02*
X173345295Y-53490476D01*
X173345295Y-53490476D02*
X173535771Y-53538095D01*
X173535771Y-53538095D02*
X173773866Y-53538095D01*
X173773866Y-53538095D02*
X173964342Y-53490476D01*
X173964342Y-53490476D02*
X174059580Y-53442857D01*
X174059580Y-53442857D02*
X174107200Y-53395238D01*
X174107200Y-53395238D02*
X174154819Y-53300000D01*
X174154819Y-53300000D02*
X174154819Y-53204762D01*
X174154819Y-53204762D02*
X174107200Y-53109524D01*
X174107200Y-53109524D02*
X174059580Y-53061905D01*
X174059580Y-53061905D02*
X173964342Y-53014286D01*
X173964342Y-53014286D02*
X173773866Y-52966667D01*
X173773866Y-52966667D02*
X173535771Y-52966667D01*
X173535771Y-52966667D02*
X173345295Y-53014286D01*
X173345295Y-53014286D02*
X173250057Y-53061905D01*
X173250057Y-53061905D02*
X173202438Y-53109524D01*
X173202438Y-53109524D02*
X173154819Y-53204762D01*
X123154819Y-73547618D02*
X123154819Y-73071428D01*
X123154819Y-73071428D02*
X122154819Y-73071428D01*
X122154819Y-74071428D02*
X122154819Y-74261904D01*
X122154819Y-74261904D02*
X122202438Y-74357142D01*
X122202438Y-74357142D02*
X122297676Y-74452380D01*
X122297676Y-74452380D02*
X122488152Y-74499999D01*
X122488152Y-74499999D02*
X122821485Y-74499999D01*
X122821485Y-74499999D02*
X123011961Y-74452380D01*
X123011961Y-74452380D02*
X123107200Y-74357142D01*
X123107200Y-74357142D02*
X123154819Y-74261904D01*
X123154819Y-74261904D02*
X123154819Y-74071428D01*
X123154819Y-74071428D02*
X123107200Y-73976190D01*
X123107200Y-73976190D02*
X123011961Y-73880952D01*
X123011961Y-73880952D02*
X122821485Y-73833333D01*
X122821485Y-73833333D02*
X122488152Y-73833333D01*
X122488152Y-73833333D02*
X122297676Y-73880952D01*
X122297676Y-73880952D02*
X122202438Y-73976190D01*
X122202438Y-73976190D02*
X122154819Y-74071428D01*
X122869104Y-74880952D02*
X122869104Y-75357142D01*
X123154819Y-74785714D02*
X122154819Y-75119047D01*
X122154819Y-75119047D02*
X123154819Y-75452380D01*
X123154819Y-75785714D02*
X122154819Y-75785714D01*
X122154819Y-75785714D02*
X122154819Y-76023809D01*
X122154819Y-76023809D02*
X122202438Y-76166666D01*
X122202438Y-76166666D02*
X122297676Y-76261904D01*
X122297676Y-76261904D02*
X122392914Y-76309523D01*
X122392914Y-76309523D02*
X122583390Y-76357142D01*
X122583390Y-76357142D02*
X122726247Y-76357142D01*
X122726247Y-76357142D02*
X122916723Y-76309523D01*
X122916723Y-76309523D02*
X123011961Y-76261904D01*
X123011961Y-76261904D02*
X123107200Y-76166666D01*
X123107200Y-76166666D02*
X123154819Y-76023809D01*
X123154819Y-76023809D02*
X123154819Y-75785714D01*
X123250057Y-76547619D02*
X123250057Y-77309523D01*
X123107200Y-77500000D02*
X123154819Y-77642857D01*
X123154819Y-77642857D02*
X123154819Y-77880952D01*
X123154819Y-77880952D02*
X123107200Y-77976190D01*
X123107200Y-77976190D02*
X123059580Y-78023809D01*
X123059580Y-78023809D02*
X122964342Y-78071428D01*
X122964342Y-78071428D02*
X122869104Y-78071428D01*
X122869104Y-78071428D02*
X122773866Y-78023809D01*
X122773866Y-78023809D02*
X122726247Y-77976190D01*
X122726247Y-77976190D02*
X122678628Y-77880952D01*
X122678628Y-77880952D02*
X122631009Y-77690476D01*
X122631009Y-77690476D02*
X122583390Y-77595238D01*
X122583390Y-77595238D02*
X122535771Y-77547619D01*
X122535771Y-77547619D02*
X122440533Y-77500000D01*
X122440533Y-77500000D02*
X122345295Y-77500000D01*
X122345295Y-77500000D02*
X122250057Y-77547619D01*
X122250057Y-77547619D02*
X122202438Y-77595238D01*
X122202438Y-77595238D02*
X122154819Y-77690476D01*
X122154819Y-77690476D02*
X122154819Y-77928571D01*
X122154819Y-77928571D02*
X122202438Y-78071428D01*
X122631009Y-78500000D02*
X122631009Y-78833333D01*
X123154819Y-78976190D02*
X123154819Y-78500000D01*
X123154819Y-78500000D02*
X122154819Y-78500000D01*
X122154819Y-78500000D02*
X122154819Y-78976190D01*
X122154819Y-79261905D02*
X122154819Y-79833333D01*
X123154819Y-79547619D02*
X122154819Y-79547619D01*
X123250057Y-79928572D02*
X123250057Y-80690476D01*
X123154819Y-80928572D02*
X122154819Y-80928572D01*
X126054819Y-75399999D02*
X126054819Y-74923809D01*
X126054819Y-74923809D02*
X125054819Y-74923809D01*
X125054819Y-75923809D02*
X125054819Y-76114285D01*
X125054819Y-76114285D02*
X125102438Y-76209523D01*
X125102438Y-76209523D02*
X125197676Y-76304761D01*
X125197676Y-76304761D02*
X125388152Y-76352380D01*
X125388152Y-76352380D02*
X125721485Y-76352380D01*
X125721485Y-76352380D02*
X125911961Y-76304761D01*
X125911961Y-76304761D02*
X126007200Y-76209523D01*
X126007200Y-76209523D02*
X126054819Y-76114285D01*
X126054819Y-76114285D02*
X126054819Y-75923809D01*
X126054819Y-75923809D02*
X126007200Y-75828571D01*
X126007200Y-75828571D02*
X125911961Y-75733333D01*
X125911961Y-75733333D02*
X125721485Y-75685714D01*
X125721485Y-75685714D02*
X125388152Y-75685714D01*
X125388152Y-75685714D02*
X125197676Y-75733333D01*
X125197676Y-75733333D02*
X125102438Y-75828571D01*
X125102438Y-75828571D02*
X125054819Y-75923809D01*
X125769104Y-76733333D02*
X125769104Y-77209523D01*
X126054819Y-76638095D02*
X125054819Y-76971428D01*
X125054819Y-76971428D02*
X126054819Y-77304761D01*
X126054819Y-77638095D02*
X125054819Y-77638095D01*
X125054819Y-77638095D02*
X125054819Y-77876190D01*
X125054819Y-77876190D02*
X125102438Y-78019047D01*
X125102438Y-78019047D02*
X125197676Y-78114285D01*
X125197676Y-78114285D02*
X125292914Y-78161904D01*
X125292914Y-78161904D02*
X125483390Y-78209523D01*
X125483390Y-78209523D02*
X125626247Y-78209523D01*
X125626247Y-78209523D02*
X125816723Y-78161904D01*
X125816723Y-78161904D02*
X125911961Y-78114285D01*
X125911961Y-78114285D02*
X126007200Y-78019047D01*
X126007200Y-78019047D02*
X126054819Y-77876190D01*
X126054819Y-77876190D02*
X126054819Y-77638095D01*
X126150057Y-78400000D02*
X126150057Y-79161904D01*
X125531009Y-79400000D02*
X125531009Y-79733333D01*
X126054819Y-79876190D02*
X126054819Y-79400000D01*
X126054819Y-79400000D02*
X125054819Y-79400000D01*
X125054819Y-79400000D02*
X125054819Y-79876190D01*
X126054819Y-80304762D02*
X125054819Y-80304762D01*
X125054819Y-80304762D02*
X126054819Y-80876190D01*
X126054819Y-80876190D02*
X125054819Y-80876190D01*
X160942857Y-63254819D02*
X161276190Y-62778628D01*
X161514285Y-63254819D02*
X161514285Y-62254819D01*
X161514285Y-62254819D02*
X161133333Y-62254819D01*
X161133333Y-62254819D02*
X161038095Y-62302438D01*
X161038095Y-62302438D02*
X160990476Y-62350057D01*
X160990476Y-62350057D02*
X160942857Y-62445295D01*
X160942857Y-62445295D02*
X160942857Y-62588152D01*
X160942857Y-62588152D02*
X160990476Y-62683390D01*
X160990476Y-62683390D02*
X161038095Y-62731009D01*
X161038095Y-62731009D02*
X161133333Y-62778628D01*
X161133333Y-62778628D02*
X161514285Y-62778628D01*
X159990476Y-63254819D02*
X160561904Y-63254819D01*
X160276190Y-63254819D02*
X160276190Y-62254819D01*
X160276190Y-62254819D02*
X160371428Y-62397676D01*
X160371428Y-62397676D02*
X160466666Y-62492914D01*
X160466666Y-62492914D02*
X160561904Y-62540533D01*
X159419047Y-62683390D02*
X159514285Y-62635771D01*
X159514285Y-62635771D02*
X159561904Y-62588152D01*
X159561904Y-62588152D02*
X159609523Y-62492914D01*
X159609523Y-62492914D02*
X159609523Y-62445295D01*
X159609523Y-62445295D02*
X159561904Y-62350057D01*
X159561904Y-62350057D02*
X159514285Y-62302438D01*
X159514285Y-62302438D02*
X159419047Y-62254819D01*
X159419047Y-62254819D02*
X159228571Y-62254819D01*
X159228571Y-62254819D02*
X159133333Y-62302438D01*
X159133333Y-62302438D02*
X159085714Y-62350057D01*
X159085714Y-62350057D02*
X159038095Y-62445295D01*
X159038095Y-62445295D02*
X159038095Y-62492914D01*
X159038095Y-62492914D02*
X159085714Y-62588152D01*
X159085714Y-62588152D02*
X159133333Y-62635771D01*
X159133333Y-62635771D02*
X159228571Y-62683390D01*
X159228571Y-62683390D02*
X159419047Y-62683390D01*
X159419047Y-62683390D02*
X159514285Y-62731009D01*
X159514285Y-62731009D02*
X159561904Y-62778628D01*
X159561904Y-62778628D02*
X159609523Y-62873866D01*
X159609523Y-62873866D02*
X159609523Y-63064342D01*
X159609523Y-63064342D02*
X159561904Y-63159580D01*
X159561904Y-63159580D02*
X159514285Y-63207200D01*
X159514285Y-63207200D02*
X159419047Y-63254819D01*
X159419047Y-63254819D02*
X159228571Y-63254819D01*
X159228571Y-63254819D02*
X159133333Y-63207200D01*
X159133333Y-63207200D02*
X159085714Y-63159580D01*
X159085714Y-63159580D02*
X159038095Y-63064342D01*
X159038095Y-63064342D02*
X159038095Y-62873866D01*
X159038095Y-62873866D02*
X159085714Y-62778628D01*
X159085714Y-62778628D02*
X159133333Y-62731009D01*
X159133333Y-62731009D02*
X159228571Y-62683390D01*
X160980952Y-63654819D02*
X161457142Y-63654819D01*
X161457142Y-63654819D02*
X161504761Y-64131009D01*
X161504761Y-64131009D02*
X161457142Y-64083390D01*
X161457142Y-64083390D02*
X161361904Y-64035771D01*
X161361904Y-64035771D02*
X161123809Y-64035771D01*
X161123809Y-64035771D02*
X161028571Y-64083390D01*
X161028571Y-64083390D02*
X160980952Y-64131009D01*
X160980952Y-64131009D02*
X160933333Y-64226247D01*
X160933333Y-64226247D02*
X160933333Y-64464342D01*
X160933333Y-64464342D02*
X160980952Y-64559580D01*
X160980952Y-64559580D02*
X161028571Y-64607200D01*
X161028571Y-64607200D02*
X161123809Y-64654819D01*
X161123809Y-64654819D02*
X161361904Y-64654819D01*
X161361904Y-64654819D02*
X161457142Y-64607200D01*
X161457142Y-64607200D02*
X161504761Y-64559580D01*
X160504761Y-64559580D02*
X160457142Y-64607200D01*
X160457142Y-64607200D02*
X160504761Y-64654819D01*
X160504761Y-64654819D02*
X160552380Y-64607200D01*
X160552380Y-64607200D02*
X160504761Y-64559580D01*
X160504761Y-64559580D02*
X160504761Y-64654819D01*
X159504762Y-64654819D02*
X160076190Y-64654819D01*
X159790476Y-64654819D02*
X159790476Y-63654819D01*
X159790476Y-63654819D02*
X159885714Y-63797676D01*
X159885714Y-63797676D02*
X159980952Y-63892914D01*
X159980952Y-63892914D02*
X160076190Y-63940533D01*
X159076190Y-64654819D02*
X159076190Y-63654819D01*
X158980952Y-64273866D02*
X158695238Y-64654819D01*
X158695238Y-63988152D02*
X159076190Y-64369104D01*
X160942857Y-91554819D02*
X161276190Y-91078628D01*
X161514285Y-91554819D02*
X161514285Y-90554819D01*
X161514285Y-90554819D02*
X161133333Y-90554819D01*
X161133333Y-90554819D02*
X161038095Y-90602438D01*
X161038095Y-90602438D02*
X160990476Y-90650057D01*
X160990476Y-90650057D02*
X160942857Y-90745295D01*
X160942857Y-90745295D02*
X160942857Y-90888152D01*
X160942857Y-90888152D02*
X160990476Y-90983390D01*
X160990476Y-90983390D02*
X161038095Y-91031009D01*
X161038095Y-91031009D02*
X161133333Y-91078628D01*
X161133333Y-91078628D02*
X161514285Y-91078628D01*
X160609523Y-90554819D02*
X159990476Y-90554819D01*
X159990476Y-90554819D02*
X160323809Y-90935771D01*
X160323809Y-90935771D02*
X160180952Y-90935771D01*
X160180952Y-90935771D02*
X160085714Y-90983390D01*
X160085714Y-90983390D02*
X160038095Y-91031009D01*
X160038095Y-91031009D02*
X159990476Y-91126247D01*
X159990476Y-91126247D02*
X159990476Y-91364342D01*
X159990476Y-91364342D02*
X160038095Y-91459580D01*
X160038095Y-91459580D02*
X160085714Y-91507200D01*
X160085714Y-91507200D02*
X160180952Y-91554819D01*
X160180952Y-91554819D02*
X160466666Y-91554819D01*
X160466666Y-91554819D02*
X160561904Y-91507200D01*
X160561904Y-91507200D02*
X160609523Y-91459580D01*
X159371428Y-90554819D02*
X159276190Y-90554819D01*
X159276190Y-90554819D02*
X159180952Y-90602438D01*
X159180952Y-90602438D02*
X159133333Y-90650057D01*
X159133333Y-90650057D02*
X159085714Y-90745295D01*
X159085714Y-90745295D02*
X159038095Y-90935771D01*
X159038095Y-90935771D02*
X159038095Y-91173866D01*
X159038095Y-91173866D02*
X159085714Y-91364342D01*
X159085714Y-91364342D02*
X159133333Y-91459580D01*
X159133333Y-91459580D02*
X159180952Y-91507200D01*
X159180952Y-91507200D02*
X159276190Y-91554819D01*
X159276190Y-91554819D02*
X159371428Y-91554819D01*
X159371428Y-91554819D02*
X159466666Y-91507200D01*
X159466666Y-91507200D02*
X159514285Y-91459580D01*
X159514285Y-91459580D02*
X159561904Y-91364342D01*
X159561904Y-91364342D02*
X159609523Y-91173866D01*
X159609523Y-91173866D02*
X159609523Y-90935771D01*
X159609523Y-90935771D02*
X159561904Y-90745295D01*
X159561904Y-90745295D02*
X159514285Y-90650057D01*
X159514285Y-90650057D02*
X159466666Y-90602438D01*
X159466666Y-90602438D02*
X159371428Y-90554819D01*
X160933333Y-92854819D02*
X161504761Y-92854819D01*
X161219047Y-92854819D02*
X161219047Y-91854819D01*
X161219047Y-91854819D02*
X161314285Y-91997676D01*
X161314285Y-91997676D02*
X161409523Y-92092914D01*
X161409523Y-92092914D02*
X161504761Y-92140533D01*
X160504761Y-92759580D02*
X160457142Y-92807200D01*
X160457142Y-92807200D02*
X160504761Y-92854819D01*
X160504761Y-92854819D02*
X160552380Y-92807200D01*
X160552380Y-92807200D02*
X160504761Y-92759580D01*
X160504761Y-92759580D02*
X160504761Y-92854819D01*
X160076190Y-91950057D02*
X160028571Y-91902438D01*
X160028571Y-91902438D02*
X159933333Y-91854819D01*
X159933333Y-91854819D02*
X159695238Y-91854819D01*
X159695238Y-91854819D02*
X159600000Y-91902438D01*
X159600000Y-91902438D02*
X159552381Y-91950057D01*
X159552381Y-91950057D02*
X159504762Y-92045295D01*
X159504762Y-92045295D02*
X159504762Y-92140533D01*
X159504762Y-92140533D02*
X159552381Y-92283390D01*
X159552381Y-92283390D02*
X160123809Y-92854819D01*
X160123809Y-92854819D02*
X159504762Y-92854819D01*
X159076190Y-92854819D02*
X159076190Y-91854819D01*
X158980952Y-92473866D02*
X158695238Y-92854819D01*
X158695238Y-92188152D02*
X159076190Y-92569104D01*
D12*
%TO.C,R13*%
X166465000Y-48472936D02*
X166465000Y-48927064D01*
X167935000Y-48472936D02*
X167935000Y-48927064D01*
%TO.C,HALL*%
X144700000Y-66600000D02*
G75*
G02*
X143300000Y-66600000I-700000J0D01*
G01*
X143300000Y-66600000D02*
G75*
G02*
X144700000Y-66600000I700000J0D01*
G01*
%TO.C,R39*%
X163827064Y-87465000D02*
X163372936Y-87465000D01*
X163827064Y-88935000D02*
X163372936Y-88935000D01*
%TO.C,CHARGER_SET_V*%
X114500000Y-82800000D02*
G75*
G02*
X113100000Y-82800000I-700000J0D01*
G01*
X113100000Y-82800000D02*
G75*
G02*
X114500000Y-82800000I700000J0D01*
G01*
%TO.C,R42*%
X169865000Y-92272936D02*
X169865000Y-92727064D01*
X171335000Y-92272936D02*
X171335000Y-92727064D01*
%TO.C,VB1*%
X157100000Y-66300000D02*
G75*
G02*
X155700000Y-66300000I-700000J0D01*
G01*
X155700000Y-66300000D02*
G75*
G02*
X157100000Y-66300000I700000J0D01*
G01*
%TO.C,HALL*%
X178400000Y-100300000D02*
G75*
G02*
X177000000Y-100300000I-700000J0D01*
G01*
X177000000Y-100300000D02*
G75*
G02*
X178400000Y-100300000I700000J0D01*
G01*
%TO.C,VB5*%
X157100000Y-61600000D02*
G75*
G02*
X155700000Y-61600000I-700000J0D01*
G01*
X155700000Y-61600000D02*
G75*
G02*
X157100000Y-61600000I700000J0D01*
G01*
%TO.C,R38*%
X163827064Y-79365000D02*
X163372936Y-79365000D01*
X163827064Y-80835000D02*
X163372936Y-80835000D01*
%TO.C,R17*%
X163827064Y-55165000D02*
X163372936Y-55165000D01*
X163827064Y-56635000D02*
X163372936Y-56635000D01*
%TO.C,R74*%
X136477064Y-63140000D02*
X136022936Y-63140000D01*
X136477064Y-64610000D02*
X136022936Y-64610000D01*
%TO.C,R35*%
X166365000Y-80772936D02*
X166365000Y-81227064D01*
X167835000Y-80772936D02*
X167835000Y-81227064D01*
%TO.C,R34*%
X166365000Y-72672936D02*
X166365000Y-73127064D01*
X167835000Y-72672936D02*
X167835000Y-73127064D01*
%TO.C,R20*%
X169765000Y-60272936D02*
X169765000Y-60727064D01*
X171235000Y-60272936D02*
X171235000Y-60727064D01*
%TO.C,R15*%
X166365000Y-64672936D02*
X166365000Y-65127064D01*
X167835000Y-64672936D02*
X167835000Y-65127064D01*
%TO.C,R36*%
X166365000Y-88872936D02*
X166365000Y-89327064D01*
X167835000Y-88872936D02*
X167835000Y-89327064D01*
%TO.C,R14*%
X166365000Y-56572936D02*
X166365000Y-57027064D01*
X167835000Y-56572936D02*
X167835000Y-57027064D01*
%TO.C,R40*%
X169865000Y-76272936D02*
X169865000Y-76727064D01*
X171335000Y-76272936D02*
X171335000Y-76727064D01*
%TO.C,R7*%
X163572936Y-50865000D02*
X164027064Y-50865000D01*
X163572936Y-52335000D02*
X164027064Y-52335000D01*
%TO.C,R8*%
X163372936Y-58965000D02*
X163827064Y-58965000D01*
X163372936Y-60435000D02*
X163827064Y-60435000D01*
%TO.C,R9*%
X163372936Y-67065000D02*
X163827064Y-67065000D01*
X163372936Y-68535000D02*
X163827064Y-68535000D01*
%TO.C,CHARGER_SET_I*%
X117700000Y-82900000D02*
G75*
G02*
X116300000Y-82900000I-700000J0D01*
G01*
X116300000Y-82900000D02*
G75*
G02*
X117700000Y-82900000I700000J0D01*
G01*
%TO.C,VB6*%
X154300000Y-61600000D02*
G75*
G02*
X152900000Y-61600000I-700000J0D01*
G01*
X152900000Y-61600000D02*
G75*
G02*
X154300000Y-61600000I700000J0D01*
G01*
%TO.C,BATTERY_EN*%
X129100000Y-82800000D02*
G75*
G02*
X127700000Y-82800000I-700000J0D01*
G01*
X127700000Y-82800000D02*
G75*
G02*
X129100000Y-82800000I700000J0D01*
G01*
%TO.C,R21*%
X169865000Y-68272936D02*
X169865000Y-68727064D01*
X171335000Y-68272936D02*
X171335000Y-68727064D01*
%TO.C,VOUT*%
X154300000Y-69500000D02*
G75*
G02*
X152900000Y-69500000I-700000J0D01*
G01*
X152900000Y-69500000D02*
G75*
G02*
X154300000Y-69500000I700000J0D01*
G01*
%TO.C,BALL_SET_V*%
X120500000Y-82800000D02*
G75*
G02*
X119100000Y-82800000I-700000J0D01*
G01*
X119100000Y-82800000D02*
G75*
G02*
X120500000Y-82800000I700000J0D01*
G01*
%TO.C,U7*%
X182750000Y-97690000D02*
X184700000Y-97690000D01*
X182750000Y-102810000D02*
X184700000Y-102810000D01*
X186650000Y-97690000D02*
X184700000Y-97690000D01*
X186650000Y-102810000D02*
X184700000Y-102810000D01*
X182240000Y-103045000D02*
X181760000Y-103045000D01*
X182000000Y-102715000D01*
X182240000Y-103045000D01*
G36*
X182240000Y-103045000D02*
G01*
X181760000Y-103045000D01*
X182000000Y-102715000D01*
X182240000Y-103045000D01*
G37*
%TO.C,R28*%
X163372936Y-75065000D02*
X163827064Y-75065000D01*
X163372936Y-76535000D02*
X163827064Y-76535000D01*
%TO.C,\u002ACHARGER_EN*%
X111300000Y-82800000D02*
G75*
G02*
X109900000Y-82800000I-700000J0D01*
G01*
X109900000Y-82800000D02*
G75*
G02*
X111300000Y-82800000I700000J0D01*
G01*
%TO.C,VB2*%
X154300000Y-66300000D02*
G75*
G02*
X152900000Y-66300000I-700000J0D01*
G01*
X152900000Y-66300000D02*
G75*
G02*
X154300000Y-66300000I700000J0D01*
G01*
%TO.C,R16*%
X164027064Y-47065000D02*
X163572936Y-47065000D01*
X164027064Y-48535000D02*
X163572936Y-48535000D01*
%TO.C,R37*%
X163827064Y-71265000D02*
X163372936Y-71265000D01*
X163827064Y-72735000D02*
X163372936Y-72735000D01*
%TO.C,VB3*%
X157100000Y-63700000D02*
G75*
G02*
X155700000Y-63700000I-700000J0D01*
G01*
X155700000Y-63700000D02*
G75*
G02*
X157100000Y-63700000I700000J0D01*
G01*
%TO.C,ADC*%
X119000000Y-59700000D02*
G75*
G02*
X117600000Y-59700000I-700000J0D01*
G01*
X117600000Y-59700000D02*
G75*
G02*
X119000000Y-59700000I700000J0D01*
G01*
%TO.C,R41*%
X169865000Y-84272936D02*
X169865000Y-84727064D01*
X171335000Y-84272936D02*
X171335000Y-84727064D01*
%TO.C,VOUT*%
X151500000Y-118500000D02*
G75*
G02*
X150100000Y-118500000I-700000J0D01*
G01*
X150100000Y-118500000D02*
G75*
G02*
X151500000Y-118500000I700000J0D01*
G01*
%TO.C,R29*%
X163372936Y-83165000D02*
X163827064Y-83165000D01*
X163372936Y-84635000D02*
X163827064Y-84635000D01*
%TO.C,VB4*%
X154300000Y-63700000D02*
G75*
G02*
X152900000Y-63700000I-700000J0D01*
G01*
X152900000Y-63700000D02*
G75*
G02*
X154300000Y-63700000I700000J0D01*
G01*
%TO.C,R19*%
X169865000Y-52072936D02*
X169865000Y-52527064D01*
X171335000Y-52072936D02*
X171335000Y-52527064D01*
%TO.C,LOAD_SET_I*%
X123400000Y-82800000D02*
G75*
G02*
X122000000Y-82800000I-700000J0D01*
G01*
X122000000Y-82800000D02*
G75*
G02*
X123400000Y-82800000I700000J0D01*
G01*
%TO.C,LOAD_EN*%
X126300000Y-82800000D02*
G75*
G02*
X124900000Y-82800000I-700000J0D01*
G01*
X124900000Y-82800000D02*
G75*
G02*
X126300000Y-82800000I700000J0D01*
G01*
%TO.C,R18*%
X163827064Y-63265000D02*
X163372936Y-63265000D01*
X163827064Y-64735000D02*
X163372936Y-64735000D01*
%TO.C,R30*%
X163372936Y-91265000D02*
X163827064Y-91265000D01*
X163372936Y-92735000D02*
X163827064Y-92735000D01*
%TD*%
D13*
X189500000Y-141400000D03*
D14*
X188475000Y-107450000D03*
X188475000Y-120950000D03*
D13*
X182475000Y-110600000D03*
X182475000Y-117800000D03*
X96000000Y-47900000D03*
X96000000Y-141900000D03*
X149415000Y-85575000D03*
X146875000Y-85575000D03*
X144335000Y-85575000D03*
X141795000Y-85575000D03*
X139255000Y-85575000D03*
X136715000Y-85575000D03*
X134175000Y-85575000D03*
X144335000Y-54575000D03*
X141795000Y-54575000D03*
X139255000Y-54575000D03*
X136715000Y-54575000D03*
X134175000Y-54575000D03*
X131635000Y-54575000D03*
X129095000Y-54575000D03*
X126555000Y-54575000D03*
X124015000Y-54575000D03*
X121475000Y-54575000D03*
X189500000Y-89900000D03*
X96000000Y-91900000D03*
X110585000Y-85450000D03*
X108045000Y-85450000D03*
X105505000Y-85450000D03*
X188775000Y-56425000D03*
X188775000Y-58965000D03*
X188775000Y-61505000D03*
X188775000Y-64045000D03*
X188775000Y-66585000D03*
X188775000Y-69125000D03*
X188775000Y-71665000D03*
X190000000Y-47900000D03*
D14*
X96400000Y-120900000D03*
X96400000Y-107400000D03*
D13*
X102400000Y-117750000D03*
X102400000Y-110550000D03*
M02*
