M48
; DRILL file {KiCad 8.0.1} date 2024-05-10T21:49:13+0200
; FORMAT={-:-/ absolute / metric / decimal}
; #@! TF.CreationDate,2024-05-10T21:49:13+02:00
; #@! TF.GenerationSoftware,Kicad,Pcbnew,8.0.1
; #@! TF.FileFunction,MixedPlating,1,2
FMAT,2
METRIC
; #@! TA.AperFunction,Plated,PTH,ViaDrill
T1C0.300
; #@! TA.AperFunction,Plated,PTH,ComponentDrill
T2C0.600
; #@! TA.AperFunction,Plated,PTH,ComponentDrill
T3C1.000
; #@! TA.AperFunction,Plated,PTH,ComponentDrill
T4C2.200
; #@! TA.AperFunction,Plated,PTH,ComponentDrill
T5C2.700
%
G90
G05
T1
X95.5Y-52.4
X95.5Y-57.4
X95.5Y-62.4
X95.5Y-67.4
X95.5Y-72.4
X95.5Y-104.9
X95.5Y-109.9
X95.5Y-114.9
X95.5Y-124.9
X95.5Y-134.9
X96.4Y-98.425
X97.95Y-64.9
X97.955Y-63.9
X98.575Y-97.125
X98.6Y-90.075
X98.662Y-84.062
X100.5Y-47.4
X100.5Y-52.4
X100.5Y-62.4
X100.5Y-67.4
X100.5Y-72.4
X100.5Y-104.9
X100.5Y-124.9
X100.65Y-88.05
X101.25Y-134.75
X101.25Y-135.85
X101.25Y-136.95
X101.25Y-137.95
X101.25Y-139.05
X101.25Y-140.05
X101.25Y-141.05
X101.25Y-142.15
X102.35Y-134.75
X102.35Y-135.85
X102.35Y-136.95
X102.35Y-137.95
X102.35Y-139.05
X102.35Y-140.05
X102.35Y-141.05
X102.35Y-142.15
X103.0Y-74.9
X103.135Y-125.35
X103.15Y-124.275
X103.45Y-134.75
X103.45Y-135.85
X103.45Y-136.95
X103.45Y-137.95
X103.45Y-139.05
X103.45Y-140.05
X103.45Y-141.05
X103.45Y-142.15
X104.55Y-134.75
X104.55Y-135.85
X104.55Y-136.95
X104.55Y-137.95
X104.55Y-139.05
X104.55Y-140.05
X104.55Y-141.05
X104.55Y-142.15
X105.5Y-62.4
X105.5Y-67.4
X105.5Y-72.4
X105.5Y-89.9
X105.55Y-134.75
X105.55Y-135.85
X105.55Y-136.95
X105.55Y-137.95
X105.55Y-139.05
X105.55Y-140.05
X105.55Y-141.05
X105.55Y-142.15
X106.75Y-134.75
X106.75Y-135.85
X106.75Y-136.95
X106.75Y-137.95
X106.75Y-139.05
X106.75Y-140.05
X106.75Y-141.05
X106.75Y-142.15
X107.025Y-94.3
X107.072Y-98.328
X107.125Y-89.525
X107.125Y-91.5
X107.85Y-97.025
X107.85Y-134.75
X107.85Y-135.85
X107.85Y-136.95
X107.85Y-137.95
X107.85Y-139.05
X107.85Y-140.05
X107.85Y-141.05
X107.85Y-142.15
X108.3Y-100.85
X108.95Y-134.75
X108.95Y-135.85
X108.95Y-136.95
X108.95Y-137.95
X108.95Y-139.05
X108.95Y-140.05
X108.95Y-141.05
X108.95Y-142.15
X109.6Y-56.05
X110.05Y-134.75
X110.05Y-135.85
X110.05Y-136.95
X110.05Y-137.95
X110.05Y-139.05
X110.05Y-140.05
X110.05Y-141.05
X110.05Y-142.15
X110.5Y-72.4
X110.5Y-92.4
X110.5Y-104.9
X110.5Y-124.9
X110.575Y-56.05
X113.0Y-117.4
X113.0Y-122.4
X113.882Y-84.5
X114.9Y-94.28
X115.5Y-67.4
X115.5Y-97.4
X115.5Y-124.9
X115.5Y-134.9
X115.5Y-139.9
X117.935Y-92.4
X118.0Y-74.9
X118.0Y-89.9
X119.3Y-62.5
X119.4Y-108.675
X119.4Y-109.675
X119.4Y-110.6
X119.4Y-111.6
X119.9Y-109.175
X119.9Y-111.1
X120.312Y-84.5
X120.4Y-108.675
X120.4Y-109.675
X120.4Y-110.6
X120.4Y-111.6
X120.5Y-47.4
X120.5Y-52.4
X120.5Y-62.4
X120.5Y-89.9
X120.5Y-92.4
X122.337Y-91.737
X122.825Y-96.8
X123.0Y-107.4
X123.0Y-112.4
X123.0Y-134.9
X123.0Y-139.9
X124.725Y-84.55
X125.5Y-47.4
X125.5Y-52.4
X125.5Y-62.4
X125.5Y-67.4
X125.5Y-74.9
X126.9Y-86.325
X127.45Y-134.35
X127.45Y-135.45
X127.45Y-136.45
X127.45Y-137.45
X127.45Y-138.55
X127.45Y-139.55
X127.45Y-140.65
X127.45Y-141.75
X128.55Y-134.35
X128.55Y-135.45
X128.55Y-136.45
X128.55Y-137.45
X128.55Y-138.55
X128.55Y-139.55
X128.55Y-140.65
X128.55Y-141.75
X128.775Y-70.875
X129.2Y-95.75
X129.65Y-134.35
X129.65Y-135.45
X129.65Y-136.45
X129.65Y-137.45
X129.65Y-138.55
X129.65Y-139.55
X129.65Y-140.65
X129.65Y-141.75
X129.825Y-72.1
X130.5Y-47.4
X130.5Y-52.4
X130.5Y-62.4
X130.5Y-67.4
X130.7Y-73.275
X130.75Y-134.35
X130.75Y-135.45
X130.75Y-136.45
X130.75Y-137.45
X130.75Y-138.55
X130.75Y-139.55
X130.75Y-140.65
X130.75Y-141.75
X131.725Y-84.325
X131.95Y-134.35
X131.95Y-135.45
X131.95Y-136.45
X131.95Y-137.45
X131.95Y-138.55
X131.95Y-139.55
X131.95Y-140.65
X131.95Y-141.75
X132.95Y-134.35
X132.95Y-135.45
X132.95Y-136.45
X132.95Y-137.45
X132.95Y-138.55
X132.95Y-139.55
X132.95Y-140.65
X132.95Y-141.75
X133.0Y-74.9
X133.8Y-93.225
X134.05Y-134.35
X134.05Y-135.45
X134.05Y-136.45
X134.05Y-137.45
X134.05Y-138.55
X134.05Y-139.55
X134.05Y-140.65
X134.05Y-141.75
X135.15Y-134.35
X135.15Y-135.45
X135.15Y-136.45
X135.15Y-137.45
X135.15Y-138.55
X135.15Y-139.55
X135.15Y-140.65
X135.15Y-141.75
X135.5Y-47.4
X135.5Y-52.4
X135.5Y-62.4
X135.5Y-67.4
X135.5Y-87.4
X135.5Y-114.9
X136.25Y-134.35
X136.25Y-135.45
X136.25Y-136.45
X136.25Y-137.45
X136.25Y-138.55
X136.25Y-139.55
X136.25Y-140.65
X136.25Y-141.75
X136.975Y-108.925
X137.15Y-128.25
X137.15Y-129.0
X137.15Y-129.75
X137.825Y-128.25
X137.825Y-129.0
X137.825Y-129.75
X138.025Y-108.925
X139.525Y-63.9
X140.5Y-47.4
X140.5Y-52.4
X140.5Y-62.4
X140.5Y-67.4
X140.5Y-74.9
X140.5Y-87.4
X140.5Y-92.4
X140.5Y-114.9
X140.5Y-119.9
X140.5Y-134.9
X145.075Y-63.75
X145.5Y-47.4
X145.5Y-52.4
X145.5Y-87.4
X145.5Y-92.4
X145.65Y-97.65
X145.65Y-98.65
X145.65Y-99.75
X145.65Y-100.75
X145.65Y-101.75
X145.65Y-102.85
X146.85Y-97.65
X146.85Y-98.65
X146.85Y-99.75
X146.85Y-100.75
X146.85Y-101.75
X146.85Y-102.85
X147.375Y-81.7
X147.95Y-70.875
X147.95Y-72.1
X147.95Y-73.275
X147.95Y-97.65
X147.95Y-98.65
X147.95Y-99.75
X147.95Y-100.75
X147.95Y-101.75
X147.95Y-102.85
X148.0Y-74.9
X149.05Y-97.65
X149.05Y-98.65
X149.05Y-99.75
X149.05Y-100.75
X149.05Y-101.75
X149.05Y-102.85
X149.975Y-93.15
X150.15Y-97.65
X150.15Y-98.65
X150.15Y-99.75
X150.15Y-100.75
X150.15Y-101.75
X150.15Y-102.85
X150.2Y-128.4
X150.2Y-129.15
X150.2Y-129.9
X150.5Y-47.4
X150.5Y-52.4
X150.5Y-57.4
X150.5Y-87.4
X150.5Y-109.9
X150.875Y-128.4
X150.875Y-129.15
X150.875Y-129.9
X151.625Y-106.55
X151.75Y-61.225
X151.775Y-59.925
X151.775Y-75.0
X151.95Y-134.85
X151.95Y-135.95
X151.95Y-136.95
X151.95Y-137.95
X151.95Y-139.05
X151.95Y-140.05
X151.95Y-141.15
X151.95Y-142.25
X152.675Y-58.9
X152.675Y-60.7
X153.05Y-97.65
X153.05Y-98.65
X153.05Y-99.75
X153.05Y-100.75
X153.05Y-101.75
X153.05Y-102.85
X153.05Y-134.85
X153.05Y-135.95
X153.05Y-136.95
X153.05Y-137.95
X153.05Y-139.05
X153.05Y-140.05
X153.05Y-141.15
X153.05Y-142.25
X154.15Y-134.85
X154.15Y-135.95
X154.15Y-136.95
X154.15Y-137.95
X154.15Y-139.05
X154.15Y-140.05
X154.15Y-141.15
X154.15Y-142.25
X154.25Y-97.65
X154.25Y-98.65
X154.25Y-99.75
X154.25Y-100.75
X154.25Y-101.75
X154.25Y-102.85
X154.8Y-65.0
X155.025Y-118.025
X155.025Y-118.7
X155.25Y-134.85
X155.25Y-135.95
X155.25Y-136.95
X155.25Y-137.95
X155.25Y-139.05
X155.25Y-140.05
X155.25Y-141.15
X155.25Y-142.25
X155.35Y-97.65
X155.35Y-98.65
X155.35Y-99.75
X155.35Y-100.75
X155.35Y-101.75
X155.35Y-102.85
X155.5Y-47.4
X155.5Y-52.4
X155.775Y-118.025
X155.775Y-118.7
X156.025Y-89.225
X156.45Y-97.65
X156.45Y-98.65
X156.45Y-99.75
X156.45Y-100.75
X156.45Y-101.75
X156.45Y-102.85
X156.45Y-134.85
X156.45Y-135.95
X156.45Y-136.95
X156.45Y-137.95
X156.45Y-139.05
X156.45Y-140.05
X156.45Y-141.15
X156.45Y-142.25
X156.525Y-118.025
X156.525Y-118.7
X156.55Y-93.15
X156.688Y-87.037
X157.45Y-134.85
X157.45Y-135.95
X157.45Y-136.95
X157.45Y-137.95
X157.45Y-139.05
X157.45Y-140.05
X157.45Y-141.15
X157.45Y-142.25
X157.55Y-97.65
X157.55Y-98.65
X157.55Y-99.75
X157.55Y-100.75
X157.55Y-101.75
X157.55Y-102.85
X157.875Y-123.5
X158.112Y-53.462
X158.275Y-66.9
X158.312Y-61.887
X158.55Y-59.925
X158.55Y-134.85
X158.55Y-135.95
X158.55Y-136.95
X158.55Y-137.95
X158.55Y-139.05
X158.55Y-140.05
X158.55Y-141.15
X158.55Y-142.25
X159.075Y-61.2
X159.25Y-71.0
X159.65Y-134.85
X159.65Y-135.95
X159.65Y-136.95
X159.65Y-137.95
X159.65Y-139.05
X159.65Y-140.05
X159.65Y-141.15
X159.65Y-142.25
X159.75Y-86.45
X159.85Y-48.55
X159.85Y-57.75
X160.75Y-134.85
X160.75Y-135.95
X160.75Y-136.95
X160.75Y-137.95
X160.75Y-139.05
X160.75Y-140.05
X160.75Y-141.15
X160.75Y-142.25
X160.9Y-61.6
X160.9Y-70.925
X160.9Y-79.325
X163.9Y-62.6
X164.0Y-54.5
X164.125Y-90.05
X164.2Y-78.7
X164.2Y-81.95
X164.2Y-128.575
X164.2Y-129.325
X164.2Y-130.075
X164.25Y-65.825
X164.3Y-86.8
X164.375Y-73.85
X164.4Y-70.7
X164.45Y-97.65
X164.45Y-98.65
X164.45Y-99.75
X164.45Y-100.75
X164.45Y-101.75
X164.45Y-102.85
X164.875Y-128.575
X164.875Y-129.325
X164.875Y-130.075
X165.4Y-49.7
X165.5Y-57.8
X165.6Y-65.9
X165.6Y-82.0
X165.6Y-90.1
X165.65Y-97.65
X165.65Y-98.65
X165.65Y-99.75
X165.65Y-100.75
X165.65Y-101.75
X165.65Y-102.85
X165.7Y-73.9
X165.95Y-106.55
X165.95Y-134.85
X165.95Y-135.95
X165.95Y-136.95
X165.95Y-137.95
X165.95Y-139.05
X165.95Y-140.05
X165.95Y-141.15
X165.95Y-142.25
X166.75Y-97.65
X166.75Y-98.65
X166.75Y-99.75
X166.75Y-100.75
X166.75Y-101.75
X166.75Y-102.85
X167.05Y-134.85
X167.05Y-135.95
X167.05Y-136.95
X167.05Y-137.95
X167.05Y-139.05
X167.05Y-140.05
X167.05Y-141.15
X167.05Y-142.25
X167.2Y-67.45
X167.225Y-51.35
X167.4Y-59.375
X167.6Y-83.45
X167.65Y-75.225
X167.85Y-97.65
X167.85Y-98.65
X167.85Y-99.75
X167.85Y-100.75
X167.85Y-101.75
X167.85Y-102.85
X168.15Y-134.85
X168.15Y-135.95
X168.15Y-136.95
X168.15Y-137.95
X168.15Y-139.05
X168.15Y-140.05
X168.15Y-141.15
X168.15Y-142.25
X168.2Y-92.0
X168.775Y-59.5
X168.8Y-75.7
X168.8Y-83.8
X168.825Y-67.65
X168.9Y-51.35
X168.95Y-97.65
X168.95Y-98.65
X168.95Y-99.75
X168.95Y-100.75
X168.95Y-101.75
X168.95Y-102.85
X169.25Y-134.85
X169.25Y-135.95
X169.25Y-136.95
X169.25Y-137.95
X169.25Y-139.05
X169.25Y-140.05
X169.25Y-141.15
X169.25Y-142.25
X169.325Y-111.575
X169.8Y-55.8
X169.8Y-63.9
X169.8Y-71.9
X169.8Y-79.8
X169.8Y-88.0
X170.0Y-47.8
X170.45Y-134.85
X170.45Y-135.95
X170.45Y-136.95
X170.45Y-137.95
X170.45Y-139.05
X170.45Y-140.05
X170.45Y-141.15
X170.45Y-142.25
X171.45Y-134.85
X171.45Y-135.95
X171.45Y-136.95
X171.45Y-137.95
X171.45Y-139.05
X171.45Y-140.05
X171.45Y-141.15
X171.45Y-142.25
X171.6Y-65.8
X171.7Y-90.1
X171.8Y-73.9
X171.8Y-82.0
X171.8Y-84.3
X171.8Y-92.4
X171.9Y-60.1
X171.9Y-68.2
X171.9Y-76.3
X172.088Y-102.35
X172.2Y-49.4
X172.3Y-57.5
X172.55Y-134.85
X172.55Y-135.95
X172.55Y-136.95
X172.55Y-137.95
X172.55Y-139.05
X172.55Y-140.05
X172.55Y-141.15
X172.55Y-142.25
X173.0Y-122.4
X173.65Y-134.85
X173.65Y-135.95
X173.65Y-136.95
X173.65Y-137.95
X173.65Y-139.05
X173.65Y-140.05
X173.65Y-141.15
X173.65Y-142.25
X173.9Y-94.625
X174.75Y-50.5
X174.75Y-51.5
X174.75Y-58.75
X174.75Y-59.75
X174.75Y-134.85
X174.75Y-135.95
X174.75Y-136.95
X174.75Y-137.95
X174.75Y-139.05
X174.75Y-140.05
X174.75Y-141.15
X174.75Y-142.25
X174.8Y-66.7
X174.8Y-67.7
X174.8Y-74.7
X174.8Y-75.7
X174.8Y-82.7
X174.8Y-83.7
X174.8Y-90.7
X174.8Y-91.7
X175.15Y-107.0
X175.15Y-108.0
X175.25Y-51.0
X175.25Y-59.25
X175.3Y-67.2
X175.3Y-75.2
X175.3Y-83.2
X175.3Y-91.2
X175.5Y-97.4
X175.5Y-124.9
X175.65Y-107.5
X175.75Y-50.5
X175.75Y-51.5
X175.75Y-58.75
X175.75Y-59.75
X175.8Y-66.7
X175.8Y-67.7
X175.8Y-74.7
X175.8Y-75.7
X175.8Y-82.7
X175.8Y-83.7
X175.8Y-90.7
X175.8Y-91.7
X176.15Y-107.0
X176.15Y-108.0
X178.0Y-127.4
X178.7Y-80.2
X178.7Y-81.2
X178.7Y-82.3
X178.7Y-83.3
X178.7Y-84.3
X178.7Y-85.4
X178.8Y-48.2
X178.8Y-49.3
X178.8Y-50.3
X178.8Y-51.3
X178.8Y-52.4
X178.8Y-53.4
X178.8Y-56.0
X178.8Y-57.0
X178.8Y-58.1
X178.8Y-59.1
X178.8Y-60.1
X178.8Y-61.2
X178.8Y-64.1
X178.8Y-65.1
X178.8Y-66.2
X178.8Y-67.2
X178.8Y-68.2
X178.8Y-69.3
X178.8Y-72.1
X178.8Y-73.1
X178.8Y-74.2
X178.8Y-75.2
X178.8Y-76.2
X178.8Y-77.3
X178.8Y-88.2
X178.8Y-89.2
X178.8Y-90.3
X178.8Y-91.3
X178.8Y-92.3
X178.8Y-93.4
X179.8Y-80.2
X179.8Y-81.2
X179.8Y-82.3
X179.8Y-83.3
X179.8Y-84.3
X179.8Y-85.4
X179.9Y-48.2
X179.9Y-49.3
X179.9Y-50.3
X179.9Y-51.3
X179.9Y-52.4
X179.9Y-53.4
X179.9Y-56.0
X179.9Y-57.0
X179.9Y-58.1
X179.9Y-59.1
X179.9Y-60.1
X179.9Y-61.2
X179.9Y-64.1
X179.9Y-65.1
X179.9Y-66.2
X179.9Y-67.2
X179.9Y-68.2
X179.9Y-69.3
X179.9Y-72.1
X179.9Y-73.1
X179.9Y-74.2
X179.9Y-75.2
X179.9Y-76.2
X179.9Y-77.3
X179.9Y-88.2
X179.9Y-89.2
X179.9Y-90.3
X179.9Y-91.3
X179.9Y-92.3
X179.9Y-93.4
X180.1Y-100.075
X180.5Y-127.4
X181.0Y-48.2
X181.0Y-49.3
X181.0Y-50.3
X181.0Y-51.3
X181.0Y-52.4
X181.0Y-53.4
X181.0Y-80.2
X181.0Y-81.2
X181.0Y-82.3
X181.0Y-83.3
X181.0Y-84.3
X181.0Y-85.4
X181.1Y-56.0
X181.1Y-57.0
X181.1Y-58.1
X181.1Y-59.1
X181.1Y-60.1
X181.1Y-61.2
X181.1Y-64.1
X181.1Y-65.1
X181.1Y-66.2
X181.1Y-67.2
X181.1Y-68.2
X181.1Y-69.3
X181.1Y-72.1
X181.1Y-73.1
X181.1Y-74.2
X181.1Y-75.2
X181.1Y-76.2
X181.1Y-77.3
X181.1Y-88.2
X181.1Y-89.2
X181.1Y-90.3
X181.1Y-91.3
X181.1Y-92.3
X181.1Y-93.4
X182.1Y-48.2
X182.1Y-49.3
X182.1Y-50.3
X182.1Y-51.3
X182.1Y-52.4
X182.1Y-53.4
X182.1Y-80.2
X182.1Y-81.2
X182.1Y-82.3
X182.1Y-83.3
X182.1Y-84.3
X182.1Y-85.4
X182.2Y-56.0
X182.2Y-57.0
X182.2Y-58.1
X182.2Y-59.1
X182.2Y-60.1
X182.2Y-61.2
X182.2Y-64.1
X182.2Y-65.1
X182.2Y-66.2
X182.2Y-67.2
X182.2Y-68.2
X182.2Y-69.3
X182.2Y-72.1
X182.2Y-73.1
X182.2Y-74.2
X182.2Y-75.2
X182.2Y-76.2
X182.2Y-77.3
X182.2Y-88.2
X182.2Y-89.2
X182.2Y-90.3
X182.2Y-91.3
X182.2Y-92.3
X182.2Y-93.4
X183.0Y-129.9
X183.0Y-134.9
X183.2Y-80.2
X183.2Y-81.2
X183.2Y-82.3
X183.2Y-83.3
X183.2Y-84.3
X183.2Y-85.4
X183.3Y-48.2
X183.3Y-49.3
X183.3Y-50.3
X183.3Y-51.3
X183.3Y-52.4
X183.3Y-53.4
X183.3Y-56.0
X183.3Y-57.0
X183.3Y-58.1
X183.3Y-59.1
X183.3Y-60.1
X183.3Y-61.2
X183.3Y-64.1
X183.3Y-65.1
X183.3Y-66.2
X183.3Y-67.2
X183.3Y-68.2
X183.3Y-69.3
X183.3Y-72.1
X183.3Y-73.1
X183.3Y-74.2
X183.3Y-75.2
X183.3Y-76.2
X183.3Y-77.3
X183.3Y-88.2
X183.3Y-89.2
X183.3Y-90.3
X183.3Y-91.3
X183.3Y-92.3
X183.3Y-93.4
X184.3Y-80.2
X184.3Y-81.2
X184.3Y-82.3
X184.3Y-83.3
X184.3Y-84.3
X184.3Y-85.4
X184.4Y-48.2
X184.4Y-49.3
X184.4Y-50.3
X184.4Y-51.3
X184.4Y-52.4
X184.4Y-53.4
X184.4Y-56.0
X184.4Y-57.0
X184.4Y-58.1
X184.4Y-59.1
X184.4Y-60.1
X184.4Y-61.2
X184.4Y-64.1
X184.4Y-65.1
X184.4Y-66.2
X184.4Y-67.2
X184.4Y-68.2
X184.4Y-69.3
X184.4Y-72.1
X184.4Y-73.1
X184.4Y-74.2
X184.4Y-75.2
X184.4Y-76.2
X184.4Y-77.3
X184.4Y-88.2
X184.4Y-89.2
X184.4Y-90.3
X184.4Y-91.3
X184.4Y-92.3
X184.4Y-93.4
X185.2Y-99.62
X185.5Y-134.9
X186.6Y-127.05
X186.6Y-127.725
X187.15Y-97.002
X187.35Y-127.05
X187.35Y-127.725
X188.0Y-74.9
X188.0Y-82.4
X188.0Y-87.4
X188.0Y-92.4
X188.0Y-109.9
X188.0Y-112.4
X188.0Y-114.9
X188.0Y-117.4
X188.0Y-134.9
X188.0Y-137.4
X188.1Y-127.05
X188.1Y-127.725
X188.75Y-100.89
X190.5Y-82.4
X190.5Y-87.4
X190.5Y-92.4
T3
X105.505Y-85.45
X108.045Y-85.45
X110.585Y-85.45
X121.475Y-54.575
X124.015Y-54.575
X126.555Y-54.575
X129.095Y-54.575
X131.635Y-54.575
X134.175Y-54.575
X134.175Y-85.575
X136.715Y-54.575
X136.715Y-85.575
X139.255Y-54.575
X139.255Y-85.575
X141.795Y-54.575
X141.795Y-85.575
X144.335Y-54.575
X144.335Y-85.575
X146.875Y-85.575
X149.415Y-85.575
X188.775Y-56.425
X188.775Y-58.965
X188.775Y-61.505
X188.775Y-64.045
X188.775Y-66.585
X188.775Y-69.125
X188.775Y-71.665
T4
X96.0Y-47.9
X96.0Y-91.9
X96.0Y-141.9
X189.5Y-89.9
X189.5Y-141.4
X190.0Y-47.9
T5
X102.4Y-110.55
X102.4Y-117.75
X182.475Y-110.6
X182.475Y-117.8
T2
G00X95.85Y-107.4
M15
G01X96.95Y-107.4
M16
G05
G00X95.85Y-120.9
M15
G01X96.95Y-120.9
M16
G05
G00X189.025Y-107.45
M15
G01X187.925Y-107.45
M16
G05
G00X189.025Y-120.95
M15
G01X187.925Y-120.95
M16
G05
M30
