%TF.GenerationSoftware,KiCad,Pcbnew,8.0.1*%
%TF.CreationDate,2024-05-10T21:49:12+02:00*%
%TF.ProjectId,Charger,43686172-6765-4722-9e6b-696361645f70,rev?*%
%TF.SameCoordinates,Original*%
%TF.FileFunction,Soldermask,Top*%
%TF.FilePolarity,Negative*%
%FSLAX46Y46*%
G04 Gerber Fmt 4.6, Leading zero omitted, Abs format (unit mm)*
G04 Created by KiCad (PCBNEW 8.0.1) date 2024-05-10 21:49:12*
%MOMM*%
%LPD*%
G01*
G04 APERTURE LIST*
G04 Aperture macros list*
%AMRoundRect*
0 Rectangle with rounded corners*
0 $1 Rounding radius*
0 $2 $3 $4 $5 $6 $7 $8 $9 X,Y pos of 4 corners*
0 Add a 4 corners polygon primitive as box body*
4,1,4,$2,$3,$4,$5,$6,$7,$8,$9,$2,$3,0*
0 Add four circle primitives for the rounded corners*
1,1,$1+$1,$2,$3*
1,1,$1+$1,$4,$5*
1,1,$1+$1,$6,$7*
1,1,$1+$1,$8,$9*
0 Add four rect primitives between the rounded corners*
20,1,$1+$1,$2,$3,$4,$5,0*
20,1,$1+$1,$4,$5,$6,$7,0*
20,1,$1+$1,$6,$7,$8,$9,0*
20,1,$1+$1,$8,$9,$2,$3,0*%
%AMFreePoly0*
4,1,28,0.178017,0.779942,0.347107,0.720775,0.498792,0.625465,0.625465,0.498792,0.720775,0.347107,0.779942,0.178017,0.800000,0.000000,0.779942,-0.178017,0.720775,-0.347107,0.625465,-0.498792,0.498792,-0.625465,0.347107,-0.720775,0.178017,-0.779942,0.000000,-0.800000,-2.200000,-0.800000,-2.205014,-0.794986,-2.244504,-0.794986,-2.324698,-0.756366,-2.380194,-0.686777,-2.400000,-0.600000,
-2.400000,0.600000,-2.380194,0.686777,-2.324698,0.756366,-2.244504,0.794986,-2.205014,0.794986,-2.200000,0.800000,0.000000,0.800000,0.178017,0.779942,0.178017,0.779942,$1*%
%AMFreePoly1*
4,1,29,0.605014,0.794986,0.644504,0.794986,0.724698,0.756366,0.780194,0.686777,0.800000,0.600000,0.800000,-0.600000,0.780194,-0.686777,0.724698,-0.756366,0.644504,-0.794986,0.605014,-0.794986,0.600000,-0.800000,0.000000,-0.800000,-1.600000,-0.800000,-1.778017,-0.779942,-1.947107,-0.720775,-2.098792,-0.625465,-2.225465,-0.498792,-2.320775,-0.347107,-2.379942,-0.178017,-2.400000,0.000000,
-2.379942,0.178017,-2.320775,0.347107,-2.225465,0.498792,-2.098792,0.625465,-1.947107,0.720775,-1.778017,0.779942,-1.600000,0.800000,0.600000,0.800000,0.605014,0.794986,0.605014,0.794986,$1*%
%AMFreePoly2*
4,1,29,1.778017,0.779942,1.947107,0.720775,2.098792,0.625465,2.225465,0.498792,2.320775,0.347107,2.379942,0.178017,2.400000,0.000000,2.379942,-0.178017,2.320775,-0.347107,2.225465,-0.498792,2.098792,-0.625465,1.947107,-0.720775,1.778017,-0.779942,1.600000,-0.800000,0.000000,-0.800000,-0.600000,-0.800000,-0.605014,-0.794986,-0.644504,-0.794986,-0.724698,-0.756366,-0.780194,-0.686777,
-0.800000,-0.600000,-0.800000,0.600000,-0.780194,0.686777,-0.724698,0.756366,-0.644504,0.794986,-0.605014,0.794986,-0.600000,0.800000,1.600000,0.800000,1.778017,0.779942,1.778017,0.779942,$1*%
G04 Aperture macros list end*
%ADD10RoundRect,0.250000X-0.300000X2.050000X-0.300000X-2.050000X0.300000X-2.050000X0.300000X2.050000X0*%
%ADD11RoundRect,0.250002X-5.149998X4.449998X-5.149998X-4.449998X5.149998X-4.449998X5.149998X4.449998X0*%
%ADD12RoundRect,0.250000X-0.337500X-0.475000X0.337500X-0.475000X0.337500X0.475000X-0.337500X0.475000X0*%
%ADD13RoundRect,0.250000X-0.350000X-0.450000X0.350000X-0.450000X0.350000X0.450000X-0.350000X0.450000X0*%
%ADD14RoundRect,0.250000X0.450000X-0.350000X0.450000X0.350000X-0.450000X0.350000X-0.450000X-0.350000X0*%
%ADD15RoundRect,0.250000X-0.850000X-0.350000X0.850000X-0.350000X0.850000X0.350000X-0.850000X0.350000X0*%
%ADD16RoundRect,0.249997X-2.950003X-2.650003X2.950003X-2.650003X2.950003X2.650003X-2.950003X2.650003X0*%
%ADD17RoundRect,0.150000X-0.825000X-0.150000X0.825000X-0.150000X0.825000X0.150000X-0.825000X0.150000X0*%
%ADD18RoundRect,0.250000X0.350000X0.450000X-0.350000X0.450000X-0.350000X-0.450000X0.350000X-0.450000X0*%
%ADD19RoundRect,0.150000X0.150000X-0.725000X0.150000X0.725000X-0.150000X0.725000X-0.150000X-0.725000X0*%
%ADD20C,3.800000*%
%ADD21C,2.600000*%
%ADD22R,2.000000X0.900000*%
%ADD23RoundRect,1.025000X-1.025000X1.025000X-1.025000X-1.025000X1.025000X-1.025000X1.025000X1.025000X0*%
%ADD24C,4.100000*%
%ADD25RoundRect,0.250000X0.475000X-0.337500X0.475000X0.337500X-0.475000X0.337500X-0.475000X-0.337500X0*%
%ADD26RoundRect,0.250000X-0.475000X0.337500X-0.475000X-0.337500X0.475000X-0.337500X0.475000X0.337500X0*%
%ADD27RoundRect,0.250000X0.337500X0.475000X-0.337500X0.475000X-0.337500X-0.475000X0.337500X-0.475000X0*%
%ADD28RoundRect,0.250000X-0.650000X1.000000X-0.650000X-1.000000X0.650000X-1.000000X0.650000X1.000000X0*%
%ADD29RoundRect,0.250000X0.400000X0.600000X-0.400000X0.600000X-0.400000X-0.600000X0.400000X-0.600000X0*%
%ADD30RoundRect,0.250000X0.400000X0.625000X-0.400000X0.625000X-0.400000X-0.625000X0.400000X-0.625000X0*%
%ADD31RoundRect,0.150000X0.825000X0.150000X-0.825000X0.150000X-0.825000X-0.150000X0.825000X-0.150000X0*%
%ADD32RoundRect,0.250000X-0.450000X0.350000X-0.450000X-0.350000X0.450000X-0.350000X0.450000X0.350000X0*%
%ADD33RoundRect,0.150000X0.512500X0.150000X-0.512500X0.150000X-0.512500X-0.150000X0.512500X-0.150000X0*%
%ADD34RoundRect,0.250000X0.600000X-0.400000X0.600000X0.400000X-0.600000X0.400000X-0.600000X-0.400000X0*%
%ADD35RoundRect,0.112500X-0.112500X-0.237500X0.112500X-0.237500X0.112500X0.237500X-0.112500X0.237500X0*%
%ADD36RoundRect,0.250000X0.350000X-0.850000X0.350000X0.850000X-0.350000X0.850000X-0.350000X-0.850000X0*%
%ADD37RoundRect,0.249997X2.650003X-2.950003X2.650003X2.950003X-2.650003X2.950003X-2.650003X-2.950003X0*%
%ADD38RoundRect,0.249999X1.075001X-0.512501X1.075001X0.512501X-1.075001X0.512501X-1.075001X-0.512501X0*%
%ADD39R,3.500000X3.550000*%
%ADD40RoundRect,0.250001X-1.074999X-2.324999X1.074999X-2.324999X1.074999X2.324999X-1.074999X2.324999X0*%
%ADD41RoundRect,0.132500X-0.530000X2.367500X-0.530000X-2.367500X0.530000X-2.367500X0.530000X2.367500X0*%
%ADD42RoundRect,0.112500X-0.237500X0.112500X-0.237500X-0.112500X0.237500X-0.112500X0.237500X0.112500X0*%
%ADD43R,1.700000X1.700000*%
%ADD44O,1.700000X1.700000*%
%ADD45RoundRect,0.150000X-0.837500X-0.150000X0.837500X-0.150000X0.837500X0.150000X-0.837500X0.150000X0*%
%ADD46RoundRect,0.250001X1.074999X2.324999X-1.074999X2.324999X-1.074999X-2.324999X1.074999X-2.324999X0*%
%ADD47RoundRect,0.250000X-0.550000X1.050000X-0.550000X-1.050000X0.550000X-1.050000X0.550000X1.050000X0*%
%ADD48RoundRect,0.250000X-0.400000X-0.625000X0.400000X-0.625000X0.400000X0.625000X-0.400000X0.625000X0*%
%ADD49RoundRect,0.249999X-1.075001X0.512501X-1.075001X-0.512501X1.075001X-0.512501X1.075001X0.512501X0*%
%ADD50R,7.000000X4.000000*%
%ADD51FreePoly0,90.000000*%
%ADD52RoundRect,0.800000X0.000010X-0.800000X0.000010X0.800000X-0.000010X0.800000X-0.000010X-0.800000X0*%
%ADD53FreePoly1,90.000000*%
%ADD54FreePoly2,90.000000*%
%ADD55RoundRect,0.112500X0.112500X0.237500X-0.112500X0.237500X-0.112500X-0.237500X0.112500X-0.237500X0*%
%ADD56RoundRect,0.375000X0.375000X-0.625000X0.375000X0.625000X-0.375000X0.625000X-0.375000X-0.625000X0*%
%ADD57RoundRect,0.500000X1.400000X-0.500000X1.400000X0.500000X-1.400000X0.500000X-1.400000X-0.500000X0*%
%ADD58RoundRect,0.250000X-0.600000X0.400000X-0.600000X-0.400000X0.600000X-0.400000X0.600000X0.400000X0*%
%ADD59RoundRect,0.132500X0.530000X-2.367500X0.530000X2.367500X-0.530000X2.367500X-0.530000X-2.367500X0*%
%ADD60R,3.550000X3.500000*%
%ADD61RoundRect,0.250000X-1.000000X-0.650000X1.000000X-0.650000X1.000000X0.650000X-1.000000X0.650000X0*%
%ADD62RoundRect,1.025000X1.025000X-1.025000X1.025000X1.025000X-1.025000X1.025000X-1.025000X-1.025000X0*%
%ADD63RoundRect,0.150000X-0.512500X-0.150000X0.512500X-0.150000X0.512500X0.150000X-0.512500X0.150000X0*%
G04 APERTURE END LIST*
D10*
%TO.C,U18*%
X159575000Y-129175000D03*
X157875000Y-129175000D03*
X156175000Y-129175000D03*
D11*
X156175000Y-138325000D03*
D10*
X154475000Y-129175000D03*
X152775000Y-129175000D03*
%TD*%
D12*
%TO.C,C35*%
X128425000Y-86400000D03*
X130500000Y-86400000D03*
%TD*%
D13*
%TO.C,R77*%
X123350000Y-82825000D03*
X125350000Y-82825000D03*
%TD*%
%TO.C,R59*%
X144475000Y-94125000D03*
X146475000Y-94125000D03*
%TD*%
D12*
%TO.C,C11*%
X172087500Y-104050000D03*
X174162500Y-104050000D03*
%TD*%
D14*
%TO.C,R32*%
X162700000Y-85800000D03*
X162700000Y-83800000D03*
%TD*%
D15*
%TO.C,Q6*%
X175275000Y-64385000D03*
D16*
X181575000Y-66665000D03*
D15*
X175275000Y-68945000D03*
%TD*%
D13*
%TO.C,R53*%
X116800000Y-98350000D03*
X118800000Y-98350000D03*
%TD*%
D17*
%TO.C,U12*%
X182200000Y-98350000D03*
X182200000Y-99620000D03*
X182200000Y-100890000D03*
X182200000Y-102160000D03*
X187150000Y-102160000D03*
X187150000Y-100890000D03*
X187150000Y-99620000D03*
X187150000Y-98350000D03*
%TD*%
D18*
%TO.C,R23*%
X172800000Y-83100000D03*
X170800000Y-83100000D03*
%TD*%
D19*
%TO.C,U1*%
X165095000Y-53075000D03*
X166365000Y-53075000D03*
X167635000Y-53075000D03*
X168905000Y-53075000D03*
X168905000Y-47925000D03*
X167635000Y-47925000D03*
X166365000Y-47925000D03*
X165095000Y-47925000D03*
%TD*%
D20*
%TO.C,REF\u002A\u002A*%
X189500000Y-141400000D03*
D21*
X189500000Y-141400000D03*
%TD*%
D10*
%TO.C,U21*%
X108215000Y-129200000D03*
D11*
X105675000Y-138350000D03*
D10*
X103135000Y-129200000D03*
%TD*%
D22*
%TO.C,J2*%
X188475000Y-107450000D03*
X188475000Y-120950000D03*
D23*
X182475000Y-110600000D03*
D24*
X182475000Y-117800000D03*
%TD*%
D25*
%TO.C,C9*%
X190050000Y-100877500D03*
X190050000Y-98802500D03*
%TD*%
D26*
%TO.C,C5*%
X162700000Y-79862500D03*
X162700000Y-81937500D03*
%TD*%
D13*
%TO.C,R79*%
X128437500Y-82825000D03*
X130437500Y-82825000D03*
%TD*%
D20*
%TO.C,REF\u002A\u002A*%
X96000000Y-47900000D03*
D21*
X96000000Y-47900000D03*
%TD*%
D13*
%TO.C,R52*%
X121325000Y-102475000D03*
X123325000Y-102475000D03*
%TD*%
D27*
%TO.C,C28*%
X108362500Y-125250000D03*
X106287500Y-125250000D03*
%TD*%
D14*
%TO.C,R58*%
X139092500Y-103650000D03*
X139092500Y-101650000D03*
%TD*%
%TO.C,R33*%
X162700000Y-93900000D03*
X162700000Y-91900000D03*
%TD*%
D19*
%TO.C,U5*%
X164960000Y-85410000D03*
X166230000Y-85410000D03*
X167500000Y-85410000D03*
X168770000Y-85410000D03*
X168770000Y-80260000D03*
X167500000Y-80260000D03*
X166230000Y-80260000D03*
X164960000Y-80260000D03*
%TD*%
%TO.C,U4*%
X164985000Y-77305000D03*
X166255000Y-77305000D03*
X167525000Y-77305000D03*
X168795000Y-77305000D03*
X168795000Y-72155000D03*
X167525000Y-72155000D03*
X166255000Y-72155000D03*
X164985000Y-72155000D03*
%TD*%
D28*
%TO.C,D7*%
X108350000Y-116150000D03*
X108350000Y-120150000D03*
%TD*%
D29*
%TO.C,D1*%
X103325000Y-90075000D03*
X99825000Y-90075000D03*
%TD*%
D30*
%TO.C,R60*%
X169375000Y-109375000D03*
X166275000Y-109375000D03*
%TD*%
D14*
%TO.C,R10*%
X162900000Y-53500000D03*
X162900000Y-51500000D03*
%TD*%
D26*
%TO.C,C4*%
X162700000Y-71762500D03*
X162700000Y-73837500D03*
%TD*%
D18*
%TO.C,R1*%
X172900000Y-50900000D03*
X170900000Y-50900000D03*
%TD*%
D13*
%TO.C,R61*%
X113850000Y-89550000D03*
X115850000Y-89550000D03*
%TD*%
D31*
%TO.C,Q18*%
X166225000Y-119580000D03*
X166225000Y-118310000D03*
X166225000Y-117040000D03*
X166225000Y-115770000D03*
X161275000Y-115770000D03*
X161275000Y-117040000D03*
X161275000Y-118310000D03*
X161275000Y-119580000D03*
%TD*%
D12*
%TO.C,C21*%
X159637500Y-121850000D03*
X161712500Y-121850000D03*
%TD*%
D27*
%TO.C,C12*%
X154862500Y-73325000D03*
X152787500Y-73325000D03*
%TD*%
%TO.C,C16*%
X153437500Y-125075000D03*
X151362500Y-125075000D03*
%TD*%
D32*
%TO.C,R66*%
X152775000Y-80375000D03*
X152775000Y-82375000D03*
%TD*%
D13*
%TO.C,R63*%
X99975000Y-100000000D03*
X101975000Y-100000000D03*
%TD*%
D18*
%TO.C,R78*%
X125350000Y-86225000D03*
X123350000Y-86225000D03*
%TD*%
D13*
%TO.C,R47*%
X121325000Y-94675000D03*
X123325000Y-94675000D03*
%TD*%
D18*
%TO.C,R55*%
X174175000Y-114950000D03*
X172175000Y-114950000D03*
%TD*%
D32*
%TO.C,R67*%
X149850000Y-78450000D03*
X149850000Y-80450000D03*
%TD*%
D33*
%TO.C,U10*%
X174337500Y-100775000D03*
X174337500Y-99825000D03*
X174337500Y-98875000D03*
X172062500Y-98875000D03*
X172062500Y-100775000D03*
%TD*%
D18*
%TO.C,R3*%
X172800000Y-67000000D03*
X170800000Y-67000000D03*
%TD*%
D34*
%TO.C,D2*%
X113302500Y-95877500D03*
X113302500Y-92377500D03*
%TD*%
D35*
%TO.C,Q13*%
X140577500Y-98750000D03*
X141877500Y-98750000D03*
X141227500Y-96750000D03*
%TD*%
D27*
%TO.C,C15*%
X123387500Y-98350000D03*
X121312500Y-98350000D03*
%TD*%
D13*
%TO.C,R48*%
X116800000Y-94675000D03*
X118800000Y-94675000D03*
%TD*%
D12*
%TO.C,C10*%
X187887500Y-96265000D03*
X189962500Y-96265000D03*
%TD*%
D10*
%TO.C,U17*%
X173575000Y-129175000D03*
X171875000Y-129175000D03*
X170175000Y-129175000D03*
D11*
X170175000Y-138325000D03*
D10*
X168475000Y-129175000D03*
X166775000Y-129175000D03*
%TD*%
D36*
%TO.C,Q15*%
X153045000Y-106550000D03*
D37*
X155325000Y-100250000D03*
D36*
X157605000Y-106550000D03*
%TD*%
D20*
%TO.C,REF\u002A\u002A*%
X96000000Y-141900000D03*
D21*
X96000000Y-141900000D03*
%TD*%
D27*
%TO.C,C27*%
X98612500Y-129250000D03*
X96537500Y-129250000D03*
%TD*%
%TO.C,C29*%
X107587500Y-56040000D03*
X105512500Y-56040000D03*
%TD*%
D38*
%TO.C,F2*%
X160950000Y-109212500D03*
X160950000Y-104537500D03*
%TD*%
D26*
%TO.C,C3*%
X162700000Y-63762500D03*
X162700000Y-65837500D03*
%TD*%
D39*
%TO.C,L2*%
X144350000Y-135175000D03*
X144350000Y-126225000D03*
%TD*%
D40*
%TO.C,D4*%
X178400000Y-140425000D03*
X184950000Y-140425000D03*
%TD*%
D27*
%TO.C,C17*%
X166287500Y-125325000D03*
X164212500Y-125325000D03*
%TD*%
D41*
%TO.C,C24*%
X118920000Y-129742500D03*
X118920000Y-139142500D03*
%TD*%
D18*
%TO.C,R6*%
X172800000Y-77400000D03*
X170800000Y-77400000D03*
%TD*%
D42*
%TO.C,Q2*%
X170900000Y-55750000D03*
X170900000Y-57050000D03*
X172900000Y-56400000D03*
%TD*%
D15*
%TO.C,Q4*%
X175275000Y-48575000D03*
D16*
X181575000Y-50855000D03*
D15*
X175275000Y-53135000D03*
%TD*%
D26*
%TO.C,C2*%
X162700000Y-55662500D03*
X162700000Y-57737500D03*
%TD*%
D43*
%TO.C,J5*%
X149415000Y-85575000D03*
D44*
X146875000Y-85575000D03*
X144335000Y-85575000D03*
X141795000Y-85575000D03*
X139255000Y-85575000D03*
X136715000Y-85575000D03*
X134175000Y-85575000D03*
%TD*%
D15*
%TO.C,Q10*%
X175275000Y-72440000D03*
D16*
X181575000Y-74720000D03*
D15*
X175275000Y-77000000D03*
%TD*%
D26*
%TO.C,C19*%
X155825000Y-123387500D03*
X155825000Y-125462500D03*
%TD*%
D45*
%TO.C,U24*%
X149712500Y-59930000D03*
X149712500Y-61200000D03*
X149712500Y-62470000D03*
X149712500Y-63740000D03*
X149712500Y-65010000D03*
X149712500Y-66280000D03*
X149712500Y-67550000D03*
X149712500Y-68820000D03*
X156637500Y-68820000D03*
X156637500Y-67550000D03*
X156637500Y-66280000D03*
X156637500Y-65010000D03*
X156637500Y-63740000D03*
X156637500Y-62470000D03*
X156637500Y-61200000D03*
X156637500Y-59930000D03*
%TD*%
D12*
%TO.C,C36*%
X98262500Y-56425000D03*
X100337500Y-56425000D03*
%TD*%
D19*
%TO.C,U3*%
X164995000Y-69275000D03*
X166265000Y-69275000D03*
X167535000Y-69275000D03*
X168805000Y-69275000D03*
X168805000Y-64125000D03*
X167535000Y-64125000D03*
X166265000Y-64125000D03*
X164995000Y-64125000D03*
%TD*%
D46*
%TO.C,D5*%
X147450000Y-140450000D03*
X140900000Y-140450000D03*
%TD*%
D18*
%TO.C,R2*%
X172900000Y-59000000D03*
X170900000Y-59000000D03*
%TD*%
D10*
%TO.C,U20*%
X135250000Y-129075000D03*
X133550000Y-129075000D03*
X131850000Y-129075000D03*
D11*
X131850000Y-138225000D03*
D10*
X130150000Y-129075000D03*
X128450000Y-129075000D03*
%TD*%
D18*
%TO.C,R24*%
X172800000Y-91200000D03*
X170800000Y-91200000D03*
%TD*%
D47*
%TO.C,C30*%
X114950000Y-48100000D03*
X114950000Y-51700000D03*
%TD*%
D17*
%TO.C,Q17*%
X169250000Y-117035000D03*
X169250000Y-118305000D03*
X169250000Y-119575000D03*
X169250000Y-120845000D03*
X174200000Y-120845000D03*
X174200000Y-119575000D03*
X174200000Y-118305000D03*
X174200000Y-117035000D03*
%TD*%
D36*
%TO.C,Q16*%
X164472500Y-106575000D03*
D37*
X166752500Y-100275000D03*
D36*
X169032500Y-106575000D03*
%TD*%
D48*
%TO.C,R43*%
X154500000Y-109375000D03*
X157600000Y-109375000D03*
%TD*%
D27*
%TO.C,C37*%
X157037500Y-57050000D03*
X154962500Y-57050000D03*
%TD*%
D18*
%TO.C,R62*%
X111000000Y-92400000D03*
X109000000Y-92400000D03*
%TD*%
%TO.C,R65*%
X97350000Y-97075000D03*
X95350000Y-97075000D03*
%TD*%
%TO.C,R75*%
X101925000Y-82850000D03*
X99925000Y-82850000D03*
%TD*%
D49*
%TO.C,F1*%
X108350000Y-107012500D03*
X108350000Y-111687500D03*
%TD*%
D26*
%TO.C,C20*%
X190200000Y-135262500D03*
X190200000Y-137337500D03*
%TD*%
D18*
%TO.C,R26*%
X172800000Y-93400000D03*
X170800000Y-93400000D03*
%TD*%
D15*
%TO.C,Q11*%
X175275000Y-80495000D03*
D16*
X181575000Y-82775000D03*
D15*
X175275000Y-85055000D03*
%TD*%
D13*
%TO.C,R56*%
X172175000Y-112675000D03*
X174175000Y-112675000D03*
%TD*%
D43*
%TO.C,J4*%
X144335000Y-54575000D03*
D44*
X141795000Y-54575000D03*
X139255000Y-54575000D03*
X136715000Y-54575000D03*
X134175000Y-54575000D03*
X131635000Y-54575000D03*
X129095000Y-54575000D03*
X126555000Y-54575000D03*
X124015000Y-54575000D03*
X121475000Y-54575000D03*
%TD*%
D17*
%TO.C,U25*%
X105125000Y-94517500D03*
X105125000Y-95787500D03*
X105125000Y-97057500D03*
X105125000Y-98327500D03*
X105125000Y-99597500D03*
X105125000Y-100867500D03*
X105125000Y-102137500D03*
X110075000Y-102137500D03*
X110075000Y-100867500D03*
X110075000Y-99597500D03*
X110075000Y-98327500D03*
X110075000Y-97057500D03*
X110075000Y-95787500D03*
X110075000Y-94517500D03*
%TD*%
D27*
%TO.C,C32*%
X120312500Y-86250000D03*
X118237500Y-86250000D03*
%TD*%
D26*
%TO.C,C6*%
X162700000Y-87962500D03*
X162700000Y-90037500D03*
%TD*%
D20*
%TO.C,REF\u002A\u002A*%
X189500000Y-89900000D03*
D21*
X189500000Y-89900000D03*
%TD*%
D12*
%TO.C,C34*%
X113820000Y-86247500D03*
X115895000Y-86247500D03*
%TD*%
D17*
%TO.C,U13*%
X126100000Y-94492500D03*
X126100000Y-95762500D03*
X126100000Y-97032500D03*
X126100000Y-98302500D03*
X126100000Y-99572500D03*
X126100000Y-100842500D03*
X126100000Y-102112500D03*
X131050000Y-102112500D03*
X131050000Y-100842500D03*
X131050000Y-99572500D03*
X131050000Y-98302500D03*
X131050000Y-97032500D03*
X131050000Y-95762500D03*
X131050000Y-94492500D03*
%TD*%
D19*
%TO.C,U6*%
X164985000Y-93475000D03*
X166255000Y-93475000D03*
X167525000Y-93475000D03*
X168795000Y-93475000D03*
X168795000Y-88325000D03*
X167525000Y-88325000D03*
X166255000Y-88325000D03*
X164985000Y-88325000D03*
%TD*%
D50*
%TO.C,L3*%
X132192500Y-118932500D03*
X132192500Y-108932500D03*
%TD*%
D14*
%TO.C,R57*%
X142967500Y-103675000D03*
X142967500Y-101675000D03*
%TD*%
D27*
%TO.C,C13*%
X101987500Y-97125000D03*
X99912500Y-97125000D03*
%TD*%
D20*
%TO.C,REF\u002A\u002A*%
X96000000Y-91900000D03*
D21*
X96000000Y-91900000D03*
%TD*%
D18*
%TO.C,R5*%
X172800000Y-69300000D03*
X170800000Y-69300000D03*
%TD*%
D51*
%TO.C,U23*%
X95415000Y-78375000D03*
D52*
X97955000Y-79175000D03*
D53*
X100495000Y-78375000D03*
D52*
X103035000Y-79175000D03*
X105575000Y-79175000D03*
X108115000Y-79175000D03*
X110655000Y-79175000D03*
D53*
X113195000Y-78375000D03*
D52*
X115735000Y-79175000D03*
X118275000Y-79175000D03*
X120815000Y-79175000D03*
X123355000Y-79175000D03*
D53*
X125895000Y-78375000D03*
D52*
X128435000Y-79175000D03*
X130975000Y-79175000D03*
X133515000Y-79175000D03*
X136055000Y-79175000D03*
D53*
X138595000Y-78375000D03*
D52*
X141135000Y-79175000D03*
X143675000Y-79175000D03*
X143675000Y-59795000D03*
X141135000Y-59795000D03*
D54*
X138595000Y-60595000D03*
D52*
X136055000Y-59795000D03*
X133515000Y-59795000D03*
X130975000Y-59795000D03*
X128435000Y-59795000D03*
D54*
X125895000Y-60595000D03*
D52*
X123355000Y-59795000D03*
X120815000Y-59795000D03*
X118275000Y-59795000D03*
X115735000Y-59795000D03*
D54*
X113195000Y-60595000D03*
D52*
X110655000Y-59795000D03*
X108115000Y-59795000D03*
X105575000Y-59795000D03*
X103035000Y-59795000D03*
D54*
X100495000Y-60595000D03*
D52*
X97955000Y-59795000D03*
X95415000Y-59795000D03*
%TD*%
D27*
%TO.C,C38*%
X129500000Y-124650000D03*
X127425000Y-124650000D03*
%TD*%
D15*
%TO.C,Q12*%
X175275000Y-88550000D03*
D16*
X181575000Y-90830000D03*
D15*
X175275000Y-93110000D03*
%TD*%
D55*
%TO.C,Q19*%
X169972500Y-112972500D03*
X168672500Y-112972500D03*
X169322500Y-114972500D03*
%TD*%
D56*
%TO.C,U22*%
X105325000Y-53375000D03*
X107625000Y-53375000D03*
D57*
X107625000Y-47075000D03*
D56*
X109925000Y-53375000D03*
%TD*%
D43*
%TO.C,J8*%
X110585000Y-85450000D03*
D44*
X108045000Y-85450000D03*
X105505000Y-85450000D03*
%TD*%
D26*
%TO.C,C1*%
X162900000Y-47562500D03*
X162900000Y-49637500D03*
%TD*%
D13*
%TO.C,R64*%
X99925000Y-94650000D03*
X101925000Y-94650000D03*
%TD*%
D19*
%TO.C,U2*%
X164960000Y-61210000D03*
X166230000Y-61210000D03*
X167500000Y-61210000D03*
X168770000Y-61210000D03*
X168770000Y-56060000D03*
X167500000Y-56060000D03*
X166230000Y-56060000D03*
X164960000Y-56060000D03*
%TD*%
D42*
%TO.C,Q8*%
X170800000Y-79850000D03*
X170800000Y-81150000D03*
X172800000Y-80500000D03*
%TD*%
D14*
%TO.C,R31*%
X162700000Y-77700000D03*
X162700000Y-75700000D03*
%TD*%
%TO.C,R69*%
X154725000Y-114950000D03*
X154725000Y-112950000D03*
%TD*%
D18*
%TO.C,R46*%
X178750000Y-100900000D03*
X176750000Y-100900000D03*
%TD*%
D12*
%TO.C,C33*%
X99920000Y-86225000D03*
X101995000Y-86225000D03*
%TD*%
D13*
%TO.C,R54*%
X125750000Y-92275000D03*
X127750000Y-92275000D03*
%TD*%
D58*
%TO.C,D3*%
X113325000Y-98200000D03*
X113325000Y-101700000D03*
%TD*%
D18*
%TO.C,R25*%
X172800000Y-85400000D03*
X170800000Y-85400000D03*
%TD*%
%TO.C,R4*%
X172900000Y-61200000D03*
X170900000Y-61200000D03*
%TD*%
D47*
%TO.C,C26*%
X97325000Y-133225000D03*
X97325000Y-136825000D03*
%TD*%
D41*
%TO.C,C25*%
X117495000Y-110217500D03*
X117495000Y-119617500D03*
%TD*%
D42*
%TO.C,Q7*%
X170800000Y-71850000D03*
X170800000Y-73150000D03*
X172800000Y-72500000D03*
%TD*%
D32*
%TO.C,R49*%
X133775000Y-94575000D03*
X133775000Y-96575000D03*
%TD*%
D42*
%TO.C,Q1*%
X171000000Y-47650000D03*
X171000000Y-48950000D03*
X173000000Y-48300000D03*
%TD*%
D13*
%TO.C,R51*%
X117300000Y-102475000D03*
X119300000Y-102475000D03*
%TD*%
D42*
%TO.C,Q3*%
X170900000Y-63750000D03*
X170900000Y-65050000D03*
X172900000Y-64400000D03*
%TD*%
%TO.C,Q9*%
X170800000Y-87950000D03*
X170800000Y-89250000D03*
X172800000Y-88600000D03*
%TD*%
D59*
%TO.C,C22*%
X146325000Y-120700000D03*
X146325000Y-111300000D03*
%TD*%
D43*
%TO.C,J1*%
X188775000Y-56425000D03*
D44*
X188775000Y-58965000D03*
X188775000Y-61505000D03*
X188775000Y-64045000D03*
X188775000Y-66585000D03*
X188775000Y-69125000D03*
X188775000Y-71665000D03*
%TD*%
D32*
%TO.C,R27*%
X160600000Y-91900000D03*
X160600000Y-93900000D03*
%TD*%
D20*
%TO.C,REF\u002A\u002A*%
X190000000Y-47900000D03*
D21*
X190000000Y-47900000D03*
%TD*%
D13*
%TO.C,R70*%
X95325000Y-102475000D03*
X97325000Y-102475000D03*
%TD*%
D14*
%TO.C,R11*%
X162700000Y-61600000D03*
X162700000Y-59600000D03*
%TD*%
D26*
%TO.C,C18*%
X168450000Y-123600000D03*
X168450000Y-125675000D03*
%TD*%
D15*
%TO.C,Q5*%
X175275000Y-56330000D03*
D16*
X181575000Y-58610000D03*
D15*
X175275000Y-60890000D03*
%TD*%
D13*
%TO.C,R73*%
X118282500Y-82822500D03*
X120282500Y-82822500D03*
%TD*%
D18*
%TO.C,R45*%
X178750000Y-98900000D03*
X176750000Y-98900000D03*
%TD*%
D13*
%TO.C,R71*%
X99975000Y-102475000D03*
X101975000Y-102475000D03*
%TD*%
D60*
%TO.C,L1*%
X178400000Y-131500000D03*
X187350000Y-131500000D03*
%TD*%
D61*
%TO.C,D6*%
X132900000Y-124450000D03*
X136900000Y-124450000D03*
%TD*%
D22*
%TO.C,J3*%
X96400000Y-120900000D03*
X96400000Y-107400000D03*
D62*
X102400000Y-117750000D03*
D24*
X102400000Y-110550000D03*
%TD*%
D18*
%TO.C,R22*%
X172800000Y-75100000D03*
X170800000Y-75100000D03*
%TD*%
D13*
%TO.C,R44*%
X95325000Y-100000000D03*
X97325000Y-100000000D03*
%TD*%
D32*
%TO.C,R68*%
X156925000Y-112950000D03*
X156925000Y-114950000D03*
%TD*%
D12*
%TO.C,C31*%
X112262500Y-56000000D03*
X114337500Y-56000000D03*
%TD*%
D18*
%TO.C,R76*%
X115882500Y-82822500D03*
X113882500Y-82822500D03*
%TD*%
D63*
%TO.C,U19*%
X152775000Y-76525000D03*
X152775000Y-77475000D03*
X152775000Y-78425000D03*
X155050000Y-78425000D03*
X155050000Y-76525000D03*
%TD*%
D14*
%TO.C,R50*%
X133775000Y-102050000D03*
X133775000Y-100050000D03*
%TD*%
D36*
%TO.C,Q14*%
X145720000Y-106550000D03*
D37*
X148000000Y-100250000D03*
D36*
X150280000Y-106550000D03*
%TD*%
D18*
%TO.C,R72*%
X97125000Y-82850000D03*
X95125000Y-82850000D03*
%TD*%
D14*
%TO.C,R12*%
X162700000Y-69700000D03*
X162700000Y-67700000D03*
%TD*%
M02*
